<svg width="52" height="52" viewBox="0 0 52 52" fill="none" xmlns="http://www.w3.org/2000/svg">
<path d="M28.1038 27.3234C27.7609 29.533 28.2779 31.6391 28.5293 33.8185C28.7596 35.8153 28.7355 37.8226 29.5725 39.7062C29.6015 39.7616 29.6476 39.8061 29.7039 39.833C29.7603 39.8599 29.8239 39.8678 29.8851 39.8555C29.9464 39.8432 30.002 39.8113 30.0435 39.7647C30.0851 39.718 30.1104 39.6592 30.1157 39.5969C30.1078 38.5103 29.7482 37.6023 29.5691 36.5577C29.4108 35.6362 29.4252 34.6472 29.3423 33.7161C29.2292 32.697 29.0506 31.6864 28.8077 30.6903C28.592 29.5724 28.4441 28.4426 28.3649 27.3069C28.3502 27.1449 28.1244 27.1876 28.1038 27.3234Z" fill="white" fill-opacity="0.5"/>
<path d="M27.6243 14.5352C27.4464 14.598 27.2823 14.6944 27.1408 14.8193C26.849 15.0178 26.5244 15.163 26.1819 15.2482C25.8833 15.3508 25.5706 15.4067 25.2549 15.4139C24.9843 15.4301 24.7132 15.4313 24.4425 15.4174C24.225 15.3831 24.1904 15.673 24.3236 15.7823C24.7755 16.1499 25.5139 16.1307 26.0518 16.0668C26.4211 16.0309 26.7836 15.9439 27.129 15.8084C27.4305 15.6863 27.6133 15.466 27.8886 15.3145C28.2872 15.0941 28.0987 14.3865 27.6243 14.5352Z" fill="white" fill-opacity="0.5"/>
<path d="M22.5278 9.34347C22.4793 10.2213 22.6718 11.1652 22.8582 12.0186C23.0028 12.6742 23.1512 13.6573 23.6295 14.1597C23.6491 14.1806 23.6748 14.1947 23.7029 14.1997C23.7311 14.2048 23.7601 14.2006 23.7857 14.1878C23.8113 14.175 23.832 14.1543 23.8449 14.1288C23.8577 14.1032 23.8619 14.0742 23.8569 14.0461C23.5036 12.4635 22.8245 10.9406 22.5494 9.34346C22.5476 9.33067 22.5285 9.33082 22.5278 9.34347Z" fill="white" fill-opacity="0.5"/>
<path d="M21.4762 6.63452C22.003 9.03173 22.4456 11.4367 22.9261 13.844C23.1183 14.8145 23.2962 15.8362 23.7091 16.7446C24.2085 17.8447 25.0625 18.7179 25.8962 19.5683C26.0507 19.7258 26.3103 19.4947 26.1531 19.3396C25.2645 18.4517 24.3611 17.5338 23.8793 16.3485C23.451 15.2906 23.2669 14.1138 23.0588 13.0015C22.6401 10.8631 22.367 8.64303 21.5033 6.6272C21.5017 6.62543 21.4995 6.62436 21.4971 6.62422C21.4948 6.62408 21.4924 6.62489 21.4907 6.62647C21.4889 6.62805 21.4878 6.63027 21.4877 6.63264C21.4875 6.63502 21.4883 6.63734 21.4899 6.63912L21.4762 6.63452Z" fill="white" fill-opacity="0.5"/>
<path d="M27.3846 5.36386C27.7437 9.79305 30.1253 14.7053 27.9641 18.9841C27.8695 19.1715 28.1405 19.3548 28.2443 19.1641C29.2733 17.2888 29.2485 15.0756 28.952 13.0179C28.7703 11.779 28.5104 10.5521 28.2747 9.32524C28.0216 8.00351 27.8183 6.65675 27.4368 5.36055C27.4357 5.35426 27.4321 5.34868 27.4268 5.34504C27.4216 5.3414 27.4151 5.34001 27.4088 5.34116C27.4025 5.34231 27.3969 5.3459 27.3933 5.35117C27.3896 5.35643 27.3882 5.36292 27.3894 5.36921L27.3846 5.36386Z" fill="white" fill-opacity="0.5"/>
<path d="M21.6605 7.16187C21.7158 6.95444 21.5598 6.66873 21.6689 6.49489C21.7033 6.4444 21.7496 6.40311 21.8037 6.37462C21.8578 6.34613 21.918 6.33133 21.9791 6.33148C22.0745 6.34972 22.1467 6.48208 22.1816 6.55898C22.2629 6.70964 22.2759 6.88043 22.3575 7.02603C22.378 7.06529 22.4465 7.06673 22.4569 7.01912C22.4687 6.90473 22.4578 6.78914 22.4248 6.67899C22.3917 6.56884 22.3373 6.46629 22.2645 6.37726C22.2236 6.29668 22.1538 6.23451 22.069 6.20323C21.9843 6.17194 21.8908 6.17384 21.8074 6.20855C21.7202 6.23592 21.6431 6.28831 21.5855 6.35918C21.5279 6.43006 21.4924 6.51631 21.4834 6.60719C21.4779 6.81117 21.6293 6.95702 21.6518 7.16009C21.6518 7.16009 21.6589 7.16812 21.6518 7.16009L21.6605 7.16187Z" fill="white" fill-opacity="0.5"/>
<path d="M23.3479 6.70738C23.461 6.50838 23.3666 5.97121 23.7313 6.00638C24.096 6.04155 24.0537 6.46291 24.1838 6.69254C24.2092 6.73463 24.2888 6.74054 24.3023 6.68295C24.3845 6.3172 24.111 5.80513 23.6939 5.82147C23.3198 5.83779 23.114 6.4311 23.3326 6.70902C23.3326 6.70902 23.341 6.71839 23.3479 6.70738Z" fill="white" fill-opacity="0.5"/>
<path d="M25.0357 6.34647C25.0387 6.22864 25.0519 6.11139 25.0664 5.99296C25.0698 5.92648 25.0835 5.86093 25.1069 5.79862C25.1196 5.76451 25.1394 5.73351 25.1651 5.70773C25.1908 5.68194 25.2217 5.66198 25.2558 5.64916C25.2898 5.63635 25.3263 5.63099 25.3626 5.63346C25.3989 5.63592 25.4342 5.64614 25.4662 5.66344C25.7014 5.83066 25.6204 6.17618 25.7484 6.39807C25.7761 6.44537 25.8607 6.45156 25.8745 6.38891C25.8978 6.17245 25.8494 5.95431 25.7368 5.768C25.7054 5.69151 25.6547 5.62449 25.5896 5.57353C25.5245 5.52258 25.4472 5.48944 25.3654 5.47738C24.9064 5.44942 24.9314 6.06758 25.0281 6.34603C25.0281 6.34603 25.0352 6.35406 25.0281 6.34603L25.0357 6.34647Z" fill="white" fill-opacity="0.5"/>
<path d="M26.7812 6.14872C26.7653 6.01082 26.7628 5.87172 26.7736 5.73333C26.7931 5.57205 26.9484 5.25877 27.1683 5.33881C27.3187 5.39451 27.3483 5.69189 27.3783 5.83068C27.404 5.95949 27.4435 6.08517 27.4961 6.20553C27.5014 6.21598 27.5101 6.22439 27.5206 6.22947C27.5312 6.23456 27.5432 6.23604 27.5547 6.23369C27.5662 6.23134 27.5766 6.22527 27.5843 6.21644C27.5921 6.20761 27.5967 6.19649 27.5975 6.18478C27.6289 5.86429 27.5062 5.05011 27.0236 5.187C26.5952 5.30928 26.5782 5.84252 26.7279 6.16973C26.7437 6.20364 26.7855 6.18323 26.7835 6.1514L26.7812 6.14872Z" fill="white" fill-opacity="0.5"/>
<path d="M22.2744 6.48793C22.3416 7.79759 22.8481 9.14802 23.1587 10.4185C23.4785 11.7264 23.7106 13.0812 24.1023 14.3754C24.1074 14.4008 24.1223 14.4231 24.1439 14.4374C24.1654 14.4518 24.1918 14.457 24.2171 14.4519C24.2425 14.4468 24.2648 14.4318 24.2791 14.4103C24.2935 14.3888 24.2987 14.3624 24.2936 14.337C24.1465 13.005 23.7265 11.6735 23.406 10.3758C23.094 9.10902 22.9124 7.64933 22.2958 6.49045C22.2953 6.48806 22.2938 6.48599 22.2918 6.48468C22.2897 6.48337 22.2872 6.48293 22.2848 6.48347C22.2824 6.484 22.2804 6.48546 22.2791 6.48752C22.2777 6.48959 22.2773 6.49209 22.2778 6.49448L22.2744 6.48793Z" fill="white" fill-opacity="0.5"/>
<path d="M23.3227 6.42892C23.205 7.49306 23.7271 8.66167 23.9289 9.70759C24.2073 11.1387 24.4607 12.5632 24.7499 13.9847C24.7589 14.0167 24.7797 14.0441 24.8081 14.0615C24.8364 14.0789 24.8703 14.085 24.9029 14.0786C24.9356 14.0722 24.9646 14.0538 24.9843 14.0269C25.004 14.0001 25.0128 13.9669 25.0091 13.9338C24.5381 11.4295 24.114 8.85928 23.3587 6.42086C23.348 6.40881 23.3318 6.40407 23.3294 6.42296L23.3227 6.42892Z" fill="white" fill-opacity="0.5"/>
<path d="M24.1268 6.41675C24.258 7.69586 24.6354 8.97406 24.8405 10.2473C25.0319 11.4297 25.2158 12.6954 25.6532 13.8146C25.6897 13.9069 25.8236 13.8525 25.8099 13.7616C25.6055 12.4757 25.2244 11.2176 25.0283 9.91944C24.844 8.74763 24.7012 7.47166 24.1606 6.40349C24.1591 6.40056 24.1566 6.39824 24.1536 6.39691C24.1506 6.39558 24.1472 6.39531 24.1441 6.39617C24.1409 6.39703 24.1381 6.39895 24.1362 6.40161C24.1343 6.40427 24.1333 6.40752 24.1335 6.4108L24.1268 6.41675Z" fill="white" fill-opacity="0.5"/>
<path d="M24.9456 6.05086C24.8789 7.24232 25.3033 8.49788 25.4409 9.68727C25.5964 11.0287 25.8659 12.3501 26.1419 13.6706C26.1487 13.7037 26.1684 13.7327 26.1966 13.7512C26.2248 13.7697 26.2592 13.7763 26.2922 13.7695C26.3253 13.7627 26.3542 13.743 26.3728 13.7148C26.3913 13.6866 26.3979 13.6522 26.3911 13.6192C26.1124 12.301 25.839 10.9806 25.6797 9.64025C25.542 8.47243 25.4554 7.12485 24.9751 6.04622C24.9655 6.03552 24.9477 6.03702 24.9468 6.05219L24.9456 6.05086Z" fill="white" fill-opacity="0.5"/>
<path d="M25.6223 5.9035C26.0841 8.37054 26.5392 10.8435 26.9662 13.3415C26.9944 13.5107 27.2551 13.4586 27.2255 13.2906L26.5121 9.21517C26.3187 8.11136 26.2017 6.89398 25.6582 5.89797C25.6558 5.89411 25.6522 5.89119 25.6479 5.88969C25.6436 5.8882 25.6389 5.88822 25.6347 5.88976C25.6304 5.8913 25.6268 5.89426 25.6245 5.89815C25.6222 5.90203 25.6212 5.90661 25.6219 5.91109L25.6223 5.9035Z" fill="white" fill-opacity="0.5"/>
<path d="M26.7537 5.7763C26.6721 7.04811 27.0017 8.38572 27.1682 9.64531C27.3348 10.9049 27.5068 12.1813 27.6872 13.443C27.7103 13.6118 27.9698 13.5584 27.9478 13.3909C27.7767 12.1209 27.5989 10.8594 27.4147 9.5962C27.2306 8.33304 27.1803 6.97235 26.7615 5.77422L26.7537 5.7763Z" fill="white" fill-opacity="0.5"/>
<path d="M24.1158 14.2635C23.9402 14.5325 24.4298 14.8858 24.6673 14.7512C24.8261 14.6602 24.8787 14.4335 24.9074 14.2664C24.9362 14.0993 24.9751 13.844 24.8251 13.7401C24.8073 13.7295 24.7863 13.726 24.766 13.7302C24.7458 13.7345 24.7279 13.7462 24.7159 13.763C24.6524 13.8506 24.6823 13.9488 24.6801 14.0514C24.6771 14.1674 24.6563 14.2822 24.6184 14.3917C24.5941 14.4614 24.5852 14.5269 24.4977 14.5256C24.4524 14.5122 24.4091 14.4926 24.3691 14.4673C24.2935 14.4121 24.2306 14.3414 24.1845 14.2599C24.1799 14.2549 24.1743 14.251 24.1681 14.2485C24.1618 14.246 24.155 14.2449 24.1483 14.2454C24.1416 14.2458 24.135 14.2478 24.1291 14.2512C24.1233 14.2545 24.1182 14.2592 24.1144 14.2647L24.1158 14.2635Z" fill="white" fill-opacity="0.5"/>
<path d="M25.6045 13.5967C25.6281 13.6933 25.6158 13.7953 25.6351 13.9005C25.6518 13.9787 25.6818 14.0534 25.7238 14.1214C25.7611 14.1833 25.8176 14.2314 25.8848 14.2582C25.952 14.285 26.0261 14.2891 26.0958 14.2699C26.1588 14.2522 26.2146 14.2149 26.255 14.1635C26.2954 14.112 26.3184 14.0489 26.3206 13.9835C26.3469 13.8353 26.4021 13.5847 26.286 13.465C26.2782 13.457 26.2688 13.4509 26.2584 13.4469C26.248 13.443 26.2368 13.4415 26.2257 13.4424C26.2146 13.4434 26.2038 13.4467 26.1942 13.4523C26.1845 13.4579 26.1763 13.4656 26.17 13.4748C26.0766 13.5963 26.1895 13.9898 26.0418 14.0422C25.8941 14.0945 25.8316 13.903 25.7959 13.8197C25.7573 13.7331 25.705 13.6534 25.6408 13.5836C25.6313 13.5729 25.613 13.582 25.6208 13.6015L25.6045 13.5967Z" fill="white" fill-opacity="0.5"/>
<path d="M25.4855 13.3269C25.4863 13.5501 25.5566 13.7675 25.6866 13.949C25.7147 14.0176 25.7577 14.0791 25.8125 14.129C25.8674 14.179 25.9326 14.2161 26.0035 14.2377C26.3358 14.2849 26.4496 13.7472 26.3099 13.5309C26.3034 13.519 26.2936 13.5092 26.2817 13.5027C26.2698 13.4963 26.2563 13.4934 26.2427 13.4945C26.2292 13.4956 26.2163 13.5006 26.2056 13.5089C26.1949 13.5172 26.1868 13.5285 26.1824 13.5413C26.1412 13.6379 26.1611 13.7329 26.1463 13.8348C26.1372 13.9028 26.1224 13.9832 26.0494 13.9954C25.9763 14.0077 25.9431 13.9461 25.9035 13.8854C25.7861 13.6997 25.6939 13.4532 25.5206 13.3125C25.5111 13.3017 25.4938 13.3147 25.4965 13.3339L25.4855 13.3269Z" fill="white" fill-opacity="0.5"/>
<path d="M26.9824 13.2005C26.9998 13.4895 27.1352 13.9111 27.4918 13.9318C27.8485 13.9526 27.966 13.4595 27.9185 13.2067C27.8995 13.0965 27.7168 13.0744 27.6922 13.1923C27.6676 13.3101 27.643 13.6894 27.4527 13.6453C27.3596 13.6041 27.2865 13.5278 27.2493 13.433C27.2024 13.3452 27.1526 13.2624 27.1018 13.1757C27.0743 13.1259 26.9788 13.1318 26.9824 13.2005Z" fill="white" fill-opacity="0.5"/>
<path d="M24.0773 14.2531L24.1162 14.1729L23.9656 14.1222C23.9788 14.4199 24.3286 14.8857 24.6644 14.7187C24.9675 14.5688 25.0899 13.9922 24.8935 13.7257C24.8848 13.7162 24.8742 13.7088 24.8623 13.7041C24.8503 13.6993 24.8375 13.6974 24.8247 13.6984C24.8119 13.6993 24.7995 13.7032 24.7885 13.7097C24.7774 13.7162 24.768 13.7251 24.7609 13.7358C24.666 13.9282 24.7402 14.1572 24.6487 14.3561C24.5572 14.5551 24.448 14.4675 24.3351 14.3595C24.2462 14.2858 24.1733 14.1948 24.1209 14.0919C24.0719 13.9749 23.8954 14.108 23.9862 14.1831C24.01 14.2098 24.0419 14.2295 24.0696 14.2552L24.0773 14.2531Z" fill="white" fill-opacity="0.5"/>
<path d="M23.4149 6.15586L23.403 6.14247C23.39 6.13415 23.3742 6.13126 23.3591 6.13442C23.344 6.13757 23.3307 6.14651 23.3221 6.15934C23.228 6.29345 23.2677 6.50513 23.2843 6.65583C23.3013 6.84462 23.3258 7.09857 23.4719 7.22762C23.4822 7.23868 23.4956 7.24652 23.5103 7.25017C23.5251 7.25382 23.5406 7.25314 23.5549 7.24822C23.5693 7.24329 23.5819 7.23432 23.5913 7.22239C23.6007 7.21046 23.6064 7.19608 23.6078 7.18096C23.6336 6.97816 23.5108 6.75403 23.4638 6.55842C23.4513 6.51201 23.4414 6.46322 23.4316 6.41443C23.4226 6.3462 23.4223 6.2771 23.4309 6.20881C23.432 6.18858 23.4411 6.16373 23.4216 6.1499L23.4149 6.15586Z" fill="white" fill-opacity="0.5"/>
<path d="M24.0789 6.15287C24.1417 6.38239 24.189 6.61609 24.248 6.84666C24.2789 7.06464 24.3328 7.27875 24.4088 7.48541C24.4179 7.50244 24.4322 7.51608 24.4497 7.52428C24.4672 7.53248 24.4869 7.5348 24.5058 7.53091C24.5247 7.52701 24.5419 7.51711 24.5547 7.50267C24.5676 7.48823 24.5754 7.47002 24.577 7.45077C24.5901 7.21154 24.5494 6.97241 24.4578 6.751C24.3805 6.52961 24.2741 6.31945 24.1414 6.12605C24.1176 6.09928 24.0664 6.10645 24.0767 6.14766L24.0789 6.15287Z" fill="white" fill-opacity="0.5"/>
<path d="M25.0025 5.82405C24.802 5.86822 24.876 6.14534 24.8953 6.29366C24.9165 6.539 24.9901 6.77693 25.111 6.99144C25.1508 7.04959 25.2585 7.0089 25.2574 6.94032C25.2362 6.7688 25.2001 6.59943 25.1498 6.43409C25.1179 6.28504 25.0137 6.04676 25.0752 5.90568C25.0783 5.89519 25.0786 5.88411 25.0762 5.87345C25.0738 5.8628 25.0687 5.85292 25.0615 5.84476C25.0542 5.8366 25.045 5.83043 25.0347 5.8268C25.0244 5.82318 25.0133 5.82223 25.0025 5.82405Z" fill="white" fill-opacity="0.5"/>
<path d="M25.6714 5.90972C25.7035 6.12096 25.7625 6.32742 25.8188 6.5388C25.8588 6.73352 25.9143 6.92473 25.9847 7.1106C25.992 7.12484 26.0037 7.13632 26.0181 7.1433C26.0325 7.15028 26.0488 7.15237 26.0644 7.14927C26.0801 7.14616 26.0944 7.13802 26.105 7.12608C26.1157 7.11415 26.1221 7.09907 26.1234 7.08313C26.0942 6.65756 25.9476 6.24842 25.6998 5.90122C25.6903 5.89051 25.6731 5.90094 25.6797 5.91908L25.6714 5.90972Z" fill="white" fill-opacity="0.5"/>
<path d="M25.9127 19.3063C26.056 19.447 26.1623 19.621 26.222 19.8128L26.3476 19.7706C26.2194 19.5123 26.032 19.2879 25.8007 19.1158C25.7804 19.1042 25.7567 19.1001 25.7337 19.1041C25.7107 19.1081 25.6898 19.12 25.6746 19.1378C25.6595 19.1555 25.651 19.178 25.6506 19.2014C25.6502 19.2247 25.6581 19.2475 25.6727 19.2657C25.8543 19.4374 26.0479 19.6872 26.2724 19.7967C26.2889 19.8014 26.3063 19.8013 26.3227 19.7964C26.3391 19.7915 26.3538 19.782 26.3649 19.7691C26.3761 19.7561 26.3833 19.7402 26.3858 19.7233C26.3882 19.7063 26.3857 19.689 26.3786 19.6735C26.3109 19.5734 26.2278 19.4847 26.1325 19.4104L25.8286 19.1364L25.7006 19.2864C25.9127 19.4318 26.0945 19.6168 26.2362 19.8314C26.2446 19.8458 26.2582 19.8564 26.2741 19.8612C26.2901 19.866 26.3073 19.8646 26.3223 19.8574C26.3372 19.8501 26.3489 19.8374 26.355 19.8219C26.3611 19.8064 26.3611 19.7891 26.355 19.7736C26.2735 19.5703 26.1235 19.4018 25.931 19.2972L25.9127 19.3063Z" fill="white" fill-opacity="0.5"/>
<path d="M25.8865 19.3894C26.5274 20.1741 26.542 21.3411 26.6673 22.3064C26.7815 23.1785 26.8894 24.0514 26.9908 24.9253C27.2063 26.7841 27.4078 28.6434 27.6234 30.4997C27.8308 32.301 28.0547 34.102 28.3222 35.8953C28.5897 37.6887 28.7864 39.6505 29.3522 41.399C29.3555 41.4154 29.362 41.4311 29.3713 41.445C29.3807 41.4589 29.3927 41.4709 29.4066 41.4802C29.4206 41.4895 29.4362 41.4959 29.4527 41.4992C29.4691 41.5024 29.486 41.5024 29.5025 41.4991C29.5189 41.4958 29.5345 41.4893 29.5485 41.48C29.5624 41.4706 29.5743 41.4587 29.5836 41.4447C29.5929 41.4308 29.5994 41.4151 29.6026 41.3987C29.6059 41.3822 29.6059 41.3653 29.6026 41.3489C29.3887 39.3975 28.8787 37.453 28.5974 35.504C28.3162 33.555 28.0898 31.5788 27.8662 29.6193C27.6526 27.706 27.448 25.7919 27.2191 23.8803C27.102 22.9052 26.9928 21.9231 26.8422 20.9563C26.7359 20.2763 26.547 19.7057 25.9866 19.2835C25.9172 19.2325 25.8403 19.3321 25.8913 19.3947L25.8865 19.3894Z" fill="white" fill-opacity="0.5"/>
<path d="M28.2545 18.9752C27.9111 19.1633 27.9403 19.4467 27.9849 19.8148C28.1023 20.7847 28.3746 21.7535 28.578 22.7069C29.0136 24.7448 29.4599 26.7795 29.917 28.811C30.8183 32.82 31.7659 36.8182 32.7597 40.8055C32.8133 41.0192 33.1496 40.9525 33.0997 40.7427C32.2074 37.2038 31.3473 33.6587 30.5192 30.1074C30.1116 28.3596 29.713 26.6102 29.3233 24.8593C29.1222 23.9542 28.9231 23.0497 28.7261 22.1458C28.5662 21.4272 27.872 19.7042 28.3117 19.0394C28.3168 19.0312 28.3192 19.0215 28.3184 19.0119C28.3175 19.0022 28.3136 18.9931 28.3072 18.9859C28.3007 18.9786 28.2921 18.9737 28.2826 18.9717C28.2731 18.9698 28.2633 18.971 28.2545 18.9752Z" fill="white" fill-opacity="0.5"/>
<path d="M29.1179 39.511C29.0683 40.6133 29.234 41.7147 29.6056 42.7536C29.8895 43.5011 30.4903 43.6451 31.2377 43.5795C31.8628 43.5219 32.8489 43.3014 33.1858 42.7017C33.5383 42.0738 33.2285 40.9417 32.9233 40.3643C32.9146 40.3402 32.8967 40.3206 32.8735 40.3098C32.8504 40.2989 32.8238 40.2977 32.7998 40.3064C32.7757 40.3151 32.7561 40.333 32.7452 40.3561C32.7344 40.3793 32.7331 40.4058 32.7418 40.4299C32.7777 40.7198 32.8296 41.0075 32.8973 41.2917C32.9876 41.7677 32.9712 41.8974 32.7461 42.3856C32.4869 42.9593 32.3172 43.0408 31.7355 43.1795C31.4691 43.244 30.9781 43.374 30.7117 43.2849C30.2316 43.1174 29.804 42.354 29.6902 41.8893C29.625 41.6275 29.563 41.3629 29.5041 41.0956C29.4092 40.5622 29.2813 40.0352 29.1213 39.5176C29.1154 39.5109 29.1118 39.5069 29.1046 39.5204L29.1179 39.511Z" fill="white" fill-opacity="0.5"/>
<path d="M27.7797 14.8519C27.7846 14.8475 27.7875 14.8414 27.7879 14.8349C27.7883 14.8284 27.7861 14.8219 27.7817 14.8171C27.7774 14.8122 27.7713 14.8092 27.7647 14.8088C27.7582 14.8085 27.7518 14.8107 27.7469 14.815C27.742 14.8194 27.7391 14.8255 27.7387 14.832C27.7383 14.8385 27.7406 14.8449 27.7449 14.8498C27.7492 14.8547 27.7554 14.8577 27.7619 14.858C27.7684 14.8584 27.7748 14.8562 27.7797 14.8519Z" fill="white" fill-opacity="0.5"/>
<path d="M24.2686 15.0468C24.3641 15.1231 24.4828 15.1645 24.6051 15.1642C24.7274 15.164 24.846 15.122 24.9412 15.0453C24.984 15.0072 24.9279 14.9468 24.8828 14.9797C24.7985 15.0479 24.6961 15.09 24.5882 15.1009C24.4802 15.1117 24.3715 15.0909 24.2752 15.0408L24.2686 15.0468Z" fill="white" fill-opacity="0.5"/>
<path d="M25.6266 14.5312C25.9913 14.8493 26.5165 14.6769 26.8429 14.3888C26.8494 14.3813 26.8532 14.3718 26.8537 14.3619C26.8542 14.352 26.8515 14.3422 26.8459 14.3341C26.8403 14.3259 26.8321 14.3199 26.8227 14.3168C26.8132 14.3138 26.8031 14.314 26.7937 14.3174C26.4225 14.4607 26.0435 14.7597 25.6401 14.5167C25.6382 14.5159 25.6361 14.5156 25.634 14.5159C25.632 14.5162 25.63 14.5171 25.6285 14.5185C25.6269 14.5199 25.6258 14.5217 25.6252 14.5237C25.6247 14.5257 25.6247 14.5279 25.6254 14.5298L25.6266 14.5312Z" fill="white" fill-opacity="0.5"/>
<path d="M26.9809 14.3093C27.1126 14.3644 27.2571 14.3817 27.398 14.3592C27.539 14.3367 27.6709 14.2753 27.7789 14.1818C27.7989 14.164 27.7745 14.1258 27.7467 14.1457C27.6381 14.2221 27.5134 14.2729 27.3823 14.294C27.2511 14.3152 27.1168 14.3063 26.9897 14.2679C26.9611 14.2574 26.9482 14.3048 26.9756 14.314L26.9809 14.3093Z" fill="white" fill-opacity="0.5"/>
<path d="M24.2459 16.4817C24.2547 16.7614 24.333 17.0346 24.4737 17.2766C24.494 17.2993 24.5295 17.2773 24.5248 17.2504C24.478 16.985 24.3542 16.7354 24.2947 16.4718C24.2927 16.466 24.2887 16.4611 24.2834 16.4581C24.2782 16.455 24.2719 16.454 24.2659 16.4552C24.2599 16.4564 24.2546 16.4598 24.2509 16.4646C24.2472 16.4695 24.2454 16.4756 24.2459 16.4817Z" fill="white" fill-opacity="0.5"/>
<path d="M24.4669 16.5451C24.5671 16.8949 24.6515 17.2538 24.7737 17.5959C24.7809 17.6039 24.795 17.601 24.7931 17.5907C24.7161 17.2347 24.5903 16.8886 24.4874 16.5413C24.4802 16.5332 24.4637 16.5335 24.4669 16.5451Z" fill="white" fill-opacity="0.5"/>
<path d="M24.6829 16.1657C24.8901 16.8566 25.091 17.5484 25.324 18.2333C25.3393 18.2747 25.4048 18.2621 25.392 18.2207C25.1835 17.5284 24.9465 16.8472 24.7135 16.1624C24.7028 16.1503 24.68 16.149 24.6852 16.1683L24.6829 16.1657Z" fill="white" fill-opacity="0.5"/>
<path d="M25.3611 17.2744C25.4259 17.6691 25.5199 18.0584 25.6423 18.4391C25.6557 18.4704 25.7013 18.4515 25.6968 18.4195C25.6196 18.0271 25.5126 17.6413 25.3769 17.2652C25.3697 17.2571 25.3546 17.2562 25.3564 17.269L25.3611 17.2744Z" fill="white" fill-opacity="0.5"/>
<path d="M25.6781 17.4714C25.764 17.9658 25.8853 18.4533 26.0412 18.9302C26.0555 18.9679 26.1114 18.9445 26.1047 18.9073C26.0038 18.4183 25.8681 17.9372 25.6986 17.4675C25.6976 17.4653 25.6959 17.4635 25.6938 17.4624C25.6916 17.4613 25.6892 17.4609 25.6868 17.4614C25.6844 17.4618 25.6823 17.4631 25.6807 17.4649C25.6791 17.4667 25.6782 17.469 25.6781 17.4714Z" fill="white" fill-opacity="0.5"/>
<path d="M25.7138 16.0994C25.9346 17.2491 26.2275 18.3838 26.591 19.4966C26.6085 19.5459 26.6837 19.5172 26.6739 19.4685C26.4281 18.326 26.1109 17.2001 25.7241 16.0975C25.7241 16.0975 25.7169 16.0894 25.7174 16.1034L25.7138 16.0994Z" fill="white" fill-opacity="0.5"/>
<path d="M26.3735 17.5442L26.5683 18.4045C26.6095 18.6644 26.6893 18.9167 26.8052 19.153C26.8279 19.1784 26.8798 19.1801 26.8798 19.137C26.8544 18.8931 26.793 18.6544 26.6976 18.4285C26.5969 18.132 26.496 17.8381 26.3912 17.5452C26.3896 17.5435 26.3874 17.5424 26.385 17.5422C26.3826 17.5421 26.3803 17.5429 26.3785 17.5445C26.3768 17.5461 26.3757 17.5483 26.3755 17.5507C26.3754 17.553 26.3762 17.5554 26.3778 17.5571L26.3735 17.5442Z" fill="white" fill-opacity="0.5"/>
<path d="M26.7852 17.7184C26.8711 18.2213 26.9967 18.7166 27.161 19.1996C27.1744 19.2308 27.2199 19.2119 27.2166 19.1812C27.1238 18.6816 26.9924 18.1899 26.8238 17.7105C26.8175 17.6873 26.7803 17.694 26.7852 17.7184Z" fill="white" fill-opacity="0.5"/>
<path d="M26.7502 16.0816C26.9695 17.0664 27.1443 18.0765 27.4579 19.0324C27.4618 19.044 27.4698 19.0538 27.4804 19.0599C27.491 19.0661 27.5034 19.0681 27.5154 19.0657C27.5274 19.0633 27.5381 19.0565 27.5455 19.0468C27.5529 19.037 27.5564 19.0249 27.5555 19.0127C27.3864 18.0144 27.071 17.0456 26.803 16.0682C26.7958 16.0386 26.7484 16.0472 26.7555 16.0768L26.7502 16.0816Z" fill="white" fill-opacity="0.5"/>
<path d="M27.3584 16.9186C27.4656 17.4108 27.5231 17.9712 27.7158 18.4329C27.7357 18.4823 27.8024 18.4493 27.7986 18.4047C27.7577 17.9087 27.552 17.3866 27.4239 16.9059C27.4124 16.8633 27.347 16.876 27.3571 16.9197L27.3584 16.9186Z" fill="white" fill-opacity="0.5"/>
<path d="M27.6911 16.8241C27.7465 17.0507 27.8044 17.2774 27.8609 17.5053C27.8934 17.7123 27.9529 17.9141 28.0379 18.1056C28.0423 18.1128 28.0487 18.1184 28.0564 18.1218C28.0641 18.1251 28.0726 18.1261 28.0808 18.1245C28.089 18.1229 28.0966 18.1189 28.1024 18.1129C28.1083 18.1069 28.1122 18.0993 28.1136 18.091C28.0985 17.8836 28.0566 17.679 27.9891 17.4823C27.9312 17.2556 27.8734 17.0289 27.8168 16.801C27.7973 16.7224 27.6728 16.7469 27.6935 16.8268L27.6911 16.8241Z" fill="white" fill-opacity="0.5"/>
<path d="M27.903 15.1674C28.0065 15.9535 28.1509 16.7336 28.3356 17.5046C28.3382 17.5143 28.3445 17.5225 28.353 17.5278C28.3615 17.533 28.3717 17.5348 28.3815 17.5328C28.3913 17.5308 28.4 17.5251 28.4058 17.5169C28.4116 17.5088 28.414 17.4987 28.4127 17.4888C28.2999 16.7031 28.1453 15.9241 27.9495 15.1549C27.9475 15.1491 27.9435 15.1442 27.9382 15.1411C27.9329 15.1381 27.9267 15.1371 27.9207 15.1383C27.9147 15.1395 27.9094 15.1428 27.9057 15.1477C27.902 15.1526 27.9002 15.1586 27.9007 15.1647L27.903 15.1674Z" fill="white" fill-opacity="0.5"/>
<path d="M28.2955 15.2471C28.3517 15.6121 28.3986 15.9828 28.474 16.345C28.4767 16.3547 28.4829 16.3629 28.4914 16.3682C28.4999 16.3734 28.5102 16.3752 28.52 16.3732C28.5298 16.3712 28.5384 16.3655 28.5442 16.3573C28.55 16.3492 28.5525 16.3391 28.5511 16.3292C28.5052 15.9623 28.4274 15.5974 28.3623 15.2332C28.3547 15.1897 28.2879 15.2035 28.2955 15.2471Z" fill="white" fill-opacity="0.5"/>
<path d="M27.4183 19.9712C27.5607 20.7078 27.7084 21.4423 27.8713 22.175C27.8784 22.1831 27.8924 22.1826 27.8833 22.1643C27.7448 21.4266 27.5908 20.6931 27.4317 19.9593C27.4245 19.9512 27.4106 19.9517 27.4124 19.9645L27.4183 19.9712Z" fill="white" fill-opacity="0.5"/>
<path d="M27.8702 21.0421C28.1025 22.0657 28.2846 23.1245 28.6215 24.1173C28.626 24.1281 28.6342 24.137 28.6446 24.1424C28.655 24.1478 28.667 24.1494 28.6784 24.1469C28.6899 24.1444 28.7001 24.138 28.7073 24.1287C28.7145 24.1195 28.7182 24.108 28.7179 24.0963C28.5305 23.0639 28.1861 22.0465 27.8984 21.0361C27.8877 21.0241 27.865 21.0228 27.8702 21.0421Z" fill="white" fill-opacity="0.5"/>
<path d="M28.3063 24.3565C28.3365 24.6196 28.3898 24.8796 28.4655 25.1334C28.4796 25.1736 28.532 25.1462 28.5302 25.1118C28.4892 24.8528 28.4272 24.5975 28.3449 24.3486C28.3386 24.3254 28.3014 24.3321 28.3063 24.3565Z" fill="white" fill-opacity="0.5"/>
<path d="M28.6491 24.8571C28.9777 26.5386 29.3271 28.2111 29.6814 29.8864C29.684 29.896 29.6903 29.9043 29.6988 29.9096C29.7073 29.9148 29.7175 29.9166 29.7274 29.9146C29.7372 29.9126 29.7458 29.9069 29.7516 29.8987C29.7574 29.8905 29.7598 29.8805 29.7585 29.8705C29.4092 28.1955 29.0548 26.5228 28.6786 24.8525C28.6734 24.8332 28.6451 24.8391 28.6491 24.8571Z" fill="white" fill-opacity="0.5"/>
<path d="M29.2904 29.8328C29.355 30.2707 29.4542 30.7029 29.587 31.1253C29.6951 31.5567 29.7905 31.9899 29.9141 32.4171C29.917 32.431 29.9253 32.4433 29.9372 32.4511C29.9492 32.4589 29.9637 32.4617 29.9777 32.4588C29.9916 32.4559 30.0039 32.4476 30.0117 32.4357C30.0195 32.4238 30.0223 32.4092 30.0194 32.3953C29.9086 31.5729 29.732 30.5525 29.3279 29.821C29.326 29.8164 29.3225 29.8126 29.318 29.8105C29.3135 29.8084 29.3084 29.8081 29.3037 29.8095C29.2989 29.811 29.2949 29.8142 29.2925 29.8185C29.29 29.8228 29.2893 29.8279 29.2904 29.8328Z" fill="white" fill-opacity="0.5"/>
<path d="M30.1378 30.9316C30.2817 31.6861 30.4362 32.4336 30.6173 33.1814C30.6206 33.192 30.6277 33.201 30.6373 33.2066C30.6468 33.2122 30.6581 33.2141 30.669 33.2119C30.6799 33.2097 30.6895 33.2035 30.6961 33.1946C30.7027 33.1857 30.7057 33.1747 30.7046 33.1636C30.5454 32.4108 30.3627 31.6692 30.1674 30.9244C30.1656 30.9216 30.163 30.9194 30.1598 30.9182C30.1567 30.9169 30.1533 30.9167 30.1501 30.9175C30.1468 30.9183 30.1439 30.9201 30.1417 30.9226C30.1395 30.9251 30.1381 30.9282 30.1378 30.9316Z" fill="white" fill-opacity="0.5"/>
<path d="M30.2033 33.7251C30.4516 35.1062 30.7132 36.4995 31.0489 37.8628C31.0515 37.8725 31.0577 37.8808 31.0663 37.886C31.0748 37.8912 31.085 37.893 31.0948 37.891C31.1046 37.889 31.1133 37.8833 31.1191 37.8752C31.1249 37.867 31.1273 37.8569 31.1259 37.847C30.8828 36.4637 30.5608 35.0834 30.2316 33.7191C30.2312 33.7173 30.2304 33.7155 30.2294 33.7139C30.2283 33.7124 30.2269 33.711 30.2253 33.71C30.2237 33.709 30.222 33.7083 30.2201 33.7079C30.2182 33.7076 30.2163 33.7076 30.2145 33.708C30.2126 33.7084 30.2109 33.7091 30.2093 33.7102C30.2077 33.7113 30.2064 33.7126 30.2054 33.7142C30.2043 33.7158 30.2036 33.7176 30.2033 33.7195C30.2029 33.7213 30.2029 33.7232 30.2033 33.7251Z" fill="white" fill-opacity="0.5"/>
<path d="M30.8197 34.7138C30.9303 35.4308 31.0174 36.1808 31.2501 36.8706C31.2519 36.8795 31.2572 36.8873 31.2648 36.8922C31.2723 36.8972 31.2816 36.8989 31.2904 36.8971C31.2993 36.8953 31.307 36.89 31.312 36.8824C31.317 36.8748 31.3187 36.8656 31.3169 36.8568C31.2181 36.1341 30.9993 35.4221 30.8453 34.7102C30.8445 34.7064 30.8423 34.7032 30.8391 34.7011C30.8359 34.699 30.832 34.6983 30.8282 34.699C30.8245 34.6998 30.8212 34.7021 30.8191 34.7053C30.817 34.7085 30.8163 34.7124 30.8171 34.7162L30.8197 34.7138Z" fill="white" fill-opacity="0.5"/>
<path d="M31.5835 37.246C31.6727 37.7396 31.7874 38.2283 31.9272 38.71C31.9447 38.7593 32.0176 38.728 32.0101 38.6819C31.9355 38.1966 31.7611 37.7042 31.6414 37.2328C31.6384 37.2266 31.6334 37.2217 31.6272 37.2187C31.621 37.2157 31.6139 37.2149 31.6072 37.2164C31.6005 37.2179 31.5945 37.2217 31.5902 37.2271C31.5859 37.2324 31.5835 37.2391 31.5835 37.246Z" fill="white" fill-opacity="0.5"/>
<path d="M31.8718 39.5306C31.9779 39.9974 32.0383 40.5072 32.2375 40.9439C32.2667 41.009 32.3528 40.9683 32.3476 40.9059C32.3064 40.4365 32.1055 39.9629 31.968 39.5121C31.9512 39.4527 31.8576 39.4688 31.8718 39.5306Z" fill="white" fill-opacity="0.5"/>
<path d="M30.2553 42.6341C30.7284 43.0309 31.5795 43.1464 32.0928 42.7423C32.1303 42.7089 32.0966 42.6334 32.0462 42.6495C31.7608 42.7628 31.4585 42.8275 31.1518 42.8411C30.8431 42.8287 30.5399 42.7554 30.2596 42.6255C30.2596 42.6255 30.2596 42.6255 30.2596 42.6255L30.2553 42.6341Z" fill="white" fill-opacity="0.5"/>
<path d="M32.3749 42.5264C32.5074 42.4301 32.6952 42.2773 32.7168 42.1022C32.7208 42.077 32.6834 42.0647 32.6674 42.079C32.6173 42.1386 32.5736 42.2033 32.5369 42.2719C32.4816 42.3518 32.4168 42.4247 32.344 42.4891C32.3411 42.4937 32.3397 42.4992 32.3401 42.5047C32.3405 42.5101 32.3427 42.5153 32.3464 42.5194C32.35 42.5235 32.3549 42.5263 32.3603 42.5274C32.3657 42.5284 32.3713 42.5277 32.3762 42.5252L32.3749 42.5264Z" fill="white" fill-opacity="0.5"/>
<path d="M31.0021 42.5019C31.1007 42.5458 31.209 42.5634 31.3164 42.5532C31.4205 42.5533 31.5208 42.5138 31.5969 42.4426C31.5998 42.4366 31.6008 42.4298 31.5998 42.4232C31.5989 42.4166 31.596 42.4104 31.5916 42.4054C31.5871 42.4004 31.5813 42.3968 31.5748 42.3951C31.5684 42.3934 31.5615 42.3936 31.5552 42.3958C31.4706 42.4112 31.3987 42.4679 31.309 42.483C31.21 42.4974 31.109 42.4868 31.0152 42.4519C30.9792 42.4384 30.9657 42.496 30.9968 42.5067L31.0021 42.5019Z" fill="white" fill-opacity="0.5"/>
<path d="M18.1275 31.4849C18.3892 32.9188 18.9417 34.1539 19.4425 35.5142C19.699 36.2092 19.9918 36.8912 20.2691 37.5773C20.5756 38.318 20.9492 39.0291 21.3853 39.7017C21.4156 39.7588 21.4635 39.8046 21.5219 39.8322C21.5803 39.8598 21.6461 39.8677 21.7094 39.8548C21.7727 39.8419 21.8301 39.8089 21.8731 39.7607C21.9161 39.7125 21.9423 39.6516 21.9478 39.5873C22.0335 38.9641 21.4753 38.2642 21.2372 37.711C20.9374 37.0185 20.663 36.3034 20.3552 35.618C19.7118 34.2 18.9517 32.8475 18.3046 31.428C18.2971 31.4045 18.2805 31.3849 18.2586 31.3737C18.2366 31.3624 18.2111 31.3603 18.1876 31.3679C18.1641 31.3754 18.1446 31.392 18.1333 31.4139C18.122 31.4359 18.1199 31.4614 18.1275 31.4849Z" fill="white" fill-opacity="0.5"/>
<path d="M10.8768 14.8814C10.4548 14.9812 10.2524 15.3197 10.1787 15.757C10.1104 15.7785 10.052 15.8237 10.014 15.8845C9.64464 16.453 9.76252 16.9789 9.95383 17.6169C10.2318 18.5543 10.392 19.5077 10.7497 20.4269C11.2417 21.6991 12.4853 23.2688 13.9899 22.8817C14.4653 22.7584 14.5543 22.058 14.047 21.9003C13.5397 21.7427 13.358 21.8996 12.9131 21.3674C12.6783 21.0847 12.5443 20.6836 12.3633 20.3698C12.0594 19.8193 11.8054 19.2426 11.6045 18.6468C11.2781 17.6685 10.556 16.1647 11.0803 15.18C11.0991 15.1473 11.1083 15.11 11.1069 15.0723C11.1055 15.0346 11.0935 14.9981 11.0722 14.9669C11.051 14.9357 11.0214 14.9112 10.9868 14.896C10.9523 14.8809 10.9141 14.8759 10.8768 14.8814Z" fill="white" fill-opacity="0.5"/>
<path d="M15.6254 27.0688C15.7244 25.9566 14.8777 25.264 13.9616 24.8034C13.206 24.4206 12.4038 24.1633 11.7937 23.5479C11.1836 22.9325 10.7415 22.1556 10.3368 21.4126C8.85736 18.7049 7.68908 14.0941 10.8369 12.0502C14.4622 9.69653 17.0902 15.7614 17.755 18.4027C18.1631 19.9378 18.0162 21.5677 17.3401 23.0051C16.7624 24.2988 16.7871 25.2266 17.4073 26.4973C17.427 26.5282 17.4573 26.5507 17.4926 26.5605C17.5278 26.5703 17.5654 26.5669 17.5982 26.5507C17.6311 26.5345 17.6568 26.5069 17.6705 26.4729C17.6842 26.439 17.6849 26.4012 17.6725 26.3668C17.2675 25.54 17.0141 24.7703 17.3006 23.8581C17.4951 23.2413 17.8472 22.6856 18.0417 22.0688C18.3902 20.9648 18.3547 19.7636 18.1139 18.6469C17.8311 17.3348 17.2586 16.0935 16.663 14.9016C16.1059 13.7906 15.4474 12.6762 14.4031 11.9556C12.3559 10.5448 10.1266 11.6536 9.0604 13.6866C7.99426 15.7196 8.71532 18.5507 9.57119 20.5039C10.0945 21.6954 10.8217 23.1107 11.83 23.9713C13.0666 25.0292 15.3076 25.138 15.5586 27.0827C15.5627 27.1222 15.624 27.1156 15.6262 27.0777L15.6254 27.0688Z" fill="white" fill-opacity="0.5"/>
<path d="M15.1097 25.6859C16.1807 29.0881 17.6184 32.3821 18.8643 35.7247C20.1541 39.1768 21.3968 42.646 22.5924 46.1324C22.6653 46.3409 22.9724 46.1875 22.9007 45.9803C21.7082 42.5567 20.4738 39.148 19.1976 35.7542C17.927 32.3785 16.7379 28.9111 15.1278 25.6794C15.1262 25.6776 15.124 25.6765 15.1216 25.6764C15.1193 25.6763 15.1169 25.6771 15.1152 25.6786C15.1134 25.6802 15.1123 25.6824 15.1122 25.6848C15.112 25.6872 15.1128 25.6895 15.1144 25.6913L15.1097 25.6859Z" fill="white" fill-opacity="0.5"/>
<path d="M16.9761 25.0992C19.4759 31.7961 22.5683 38.2991 25.4242 44.8518C25.506 45.0381 25.787 44.8983 25.7063 44.7134C22.8514 38.1646 20.1976 31.4752 16.9944 25.0901C16.9925 25.0892 16.9903 25.0889 16.9883 25.0892C16.9862 25.0895 16.9843 25.0904 16.9827 25.0918C16.9811 25.0932 16.98 25.095 16.9795 25.0971C16.9789 25.0991 16.979 25.1012 16.9796 25.1032L16.9761 25.0992Z" fill="white" fill-opacity="0.5"/>
<path d="M22.481 45.4044C22.6294 46.0589 22.7799 46.9851 23.2921 47.4718C23.7382 47.8974 24.3036 47.8186 24.8424 47.6317C25.3811 47.4448 26.1193 47.1235 26.2559 46.4983C26.408 45.8041 25.8121 45.0754 25.5126 44.5072C25.4806 44.447 25.3696 44.457 25.374 44.5347C25.3942 44.9724 25.6232 45.2458 25.7895 45.6375C26.0285 46.1754 26.089 46.5317 25.476 46.991C25.2425 47.1431 24.9872 47.2587 24.7188 47.3339C24.134 47.5283 23.6921 47.5547 23.2856 46.9524C23.1278 46.7186 23.0854 46.423 22.9888 46.1636C22.906 45.8657 22.7358 45.5995 22.5003 45.3992C22.4986 45.3988 22.4968 45.3987 22.4951 45.3991C22.4934 45.3996 22.4918 45.4004 22.4904 45.4016C22.4891 45.4028 22.4881 45.4042 22.4875 45.4059C22.4869 45.4076 22.4867 45.4094 22.4869 45.4111L22.481 45.4044Z" fill="white" fill-opacity="0.5"/>
<path d="M9.09083 15.9624C9.17521 18.4824 10.0263 21.2385 11.8036 23.1007C13.4123 24.7867 15.9389 24.303 16.9767 22.2354C18.1261 19.9483 17.0943 17.1804 15.9745 15.0951C14.9577 13.2036 13.3075 11.1636 10.983 12.5131C8.61115 13.8903 8.72908 17.426 9.85169 19.5711C9.88267 19.6275 9.97816 19.6001 9.96175 19.5331C9.66306 18.2544 9.19215 17.1002 9.3213 15.7525C9.47026 14.2169 10.3543 12.6745 11.9752 12.3614C13.6868 12.0371 14.6885 13.3593 15.4581 14.6578C16.1596 15.8169 16.6856 17.0735 17.019 18.3866C17.3549 19.7906 17.3333 21.3615 16.4765 22.587C15.527 23.9454 13.7342 24.3563 12.3794 23.3245C10.3069 21.737 9.3674 18.4288 9.11523 15.9575C9.10928 15.9508 9.09544 15.9487 9.09485 15.9588L9.09083 15.9624Z" fill="white" fill-opacity="0.5"/>
<path d="M17.6464 27.9947C17.8656 28.6425 18.1403 29.2703 18.4674 29.871C18.4877 29.8937 18.5338 29.8862 18.5231 29.8526C18.2895 29.2055 18.0012 28.5796 17.6611 27.9816C17.6528 27.9722 17.6372 27.9789 17.6464 27.9947Z" fill="white" fill-opacity="0.5"/>
<path d="M18.9073 31.1176C19.5031 32.4148 19.9436 33.8096 20.5893 35.0768C20.6168 35.1292 20.707 35.104 20.6903 35.0421C20.337 33.6777 19.5872 32.3449 18.9243 31.1097C18.9227 31.1079 18.9205 31.1068 18.9181 31.1067C18.9157 31.1066 18.9134 31.1074 18.9116 31.109C18.9099 31.1105 18.9088 31.1128 18.9087 31.1151C18.9085 31.1175 18.9093 31.1198 18.9109 31.1216L18.9073 31.1176Z" fill="white" fill-opacity="0.5"/>
<path d="M23.6228 46.9448C23.8739 47.1217 24.1746 47.2143 24.4817 47.2092C24.718 47.2051 25.0928 47.1089 25.2212 46.8867C25.2257 46.8794 25.2279 46.871 25.2277 46.8624C25.2275 46.8539 25.2248 46.8455 25.22 46.8385C25.2152 46.8314 25.2085 46.8258 25.2006 46.8224C25.1928 46.819 25.1841 46.818 25.1757 46.8194C25.0842 46.8468 24.9961 46.8842 24.9129 46.931C24.7816 46.984 24.6444 47.0207 24.5042 47.0404C24.2106 47.0954 23.907 47.0532 23.6395 46.9203C23.6275 46.907 23.6069 46.935 23.618 46.9394L23.6228 46.9448Z" fill="white" fill-opacity="0.5"/>
<path d="M25.4348 46.594C25.4911 46.544 25.5592 46.5073 25.6107 46.4494C25.6568 46.4061 25.6909 46.3517 25.71 46.2915C25.7135 46.2846 25.714 46.2767 25.7116 46.2694C25.7092 46.2621 25.7039 46.2561 25.6971 46.2527C25.6902 46.2492 25.6822 46.2487 25.675 46.2511C25.6677 46.2535 25.6617 46.2588 25.6582 46.2656C25.5964 46.3686 25.555 46.535 25.4256 46.5782C25.4149 46.5877 25.4255 46.6023 25.4375 46.5916L25.4348 46.594Z" fill="white" fill-opacity="0.5"/>
<path d="M24.4071 46.7113C24.5826 46.7296 24.7595 46.6956 24.9157 46.6137C25.072 46.5318 25.2005 46.4057 25.2853 46.251C25.2983 46.2251 25.2566 46.1998 25.2389 46.2204C25.0289 46.4765 24.7331 46.6477 24.4064 46.7024C24.4064 46.7024 24.4064 46.7024 24.4064 46.7024L24.4071 46.7113Z" fill="white" fill-opacity="0.5"/>
<path d="M24.7197 44.9874C24.8641 45.3194 25.011 45.6515 25.1554 45.9835C25.1676 46.0134 25.2121 45.9906 25.1985 45.9619L24.755 44.9704C24.745 44.9457 24.7109 44.964 24.7197 44.9874Z" fill="white" fill-opacity="0.5"/>
<path d="M24.9488 44.7C25.0269 44.951 25.1278 45.1944 25.2504 45.4269C25.2825 45.463 25.358 45.4535 25.3423 45.3955C25.2443 45.1478 25.1244 44.9094 24.984 44.6831C24.9814 44.679 24.9774 44.676 24.9728 44.6747C24.9682 44.6734 24.9632 44.6738 24.9589 44.6759C24.9545 44.678 24.9511 44.6816 24.9492 44.6861C24.9474 44.6905 24.9472 44.6955 24.9488 44.7Z" fill="white" fill-opacity="0.5"/>
<path d="M23.4617 42.1429C23.7916 42.8854 24.07 43.7048 24.4877 44.4004C24.5115 44.4271 24.5653 44.4176 24.5524 44.3788C24.2954 43.605 23.8554 42.8574 23.5035 42.1225C23.4899 42.0938 23.4468 42.1154 23.459 42.1453L23.4617 42.1429Z" fill="white" fill-opacity="0.5"/>
<path d="M24.0463 42.6653C24.2264 43.139 24.4329 43.6022 24.6648 44.0527C24.6708 44.0621 24.68 44.0689 24.6906 44.0718C24.7013 44.0748 24.7127 44.0737 24.7226 44.0688C24.7325 44.0638 24.7402 44.0554 24.7443 44.0451C24.7483 44.0348 24.7484 44.0233 24.7445 44.013C24.5588 43.5424 24.3466 43.0826 24.109 42.636C24.1051 42.6277 24.098 42.6213 24.0894 42.6182C24.0808 42.615 24.0713 42.6155 24.063 42.6194C24.0547 42.6232 24.0482 42.6303 24.0451 42.6389C24.042 42.6475 24.0424 42.657 24.0463 42.6653Z" fill="white" fill-opacity="0.5"/>
<path d="M21.7454 37.6554C22.2858 38.8365 22.7545 40.0502 23.3302 41.2143C23.3335 41.2212 23.3394 41.2265 23.3466 41.2291C23.3538 41.2317 23.3618 41.2313 23.3687 41.228C23.3756 41.2247 23.3809 41.2187 23.3835 41.2115C23.3861 41.2043 23.3857 41.1963 23.3824 41.1894C22.8902 39.987 22.2885 38.8341 21.761 37.6487L21.749 37.6594L21.7454 37.6554Z" fill="white" fill-opacity="0.5"/>
<path d="M21.0819 36.64C21.2084 36.9519 21.3362 37.2652 21.464 37.5759C21.4759 37.5892 21.4979 37.5816 21.4854 37.5568L21.0929 36.6254C21.0846 36.6161 21.0703 36.6216 21.0796 36.6373L21.0819 36.64Z" fill="white" fill-opacity="0.5"/>
<path d="M16.3012 24.8033C16.5682 25.5802 16.8446 26.3703 17.188 27.12C17.2082 27.1427 17.2545 27.1327 17.2424 27.1003C16.9847 26.3176 16.6514 25.547 16.3243 24.7996C16.3224 24.7987 16.3203 24.7984 16.3182 24.7987C16.3161 24.799 16.3142 24.7999 16.3126 24.8013C16.3111 24.8027 16.31 24.8045 16.3094 24.8065C16.3089 24.8086 16.3089 24.8107 16.3096 24.8127L16.3012 24.8033Z" fill="white" fill-opacity="0.5"/>
<path d="M14.7203 24.913C14.788 25.0134 14.8546 25.1124 14.921 25.214C14.9245 25.2179 14.9294 25.2203 14.9346 25.2206C14.9398 25.2209 14.9449 25.2191 14.9488 25.2156C14.9527 25.2121 14.9551 25.2072 14.9554 25.202C14.9557 25.1968 14.9539 25.1917 14.9505 25.1878C14.88 25.0898 14.8109 24.9906 14.7417 24.8939C14.7309 24.8819 14.7085 24.8971 14.7203 24.913Z" fill="white" fill-opacity="0.5"/>
<path d="M14.9398 24.816C15.0506 24.9663 15.1459 25.1274 15.224 25.297C15.224 25.297 15.2366 25.2977 15.232 25.2898C15.122 25.1376 15.0282 24.9744 14.952 24.8028C14.9449 24.7947 14.9279 24.8026 14.9386 24.8147L14.9398 24.816Z" fill="white" fill-opacity="0.5"/>
<path d="M15.0755 24.4893C15.3816 25.0083 15.6276 25.5569 15.9061 26.0908C15.9233 26.1235 15.9826 26.1067 15.9697 26.0678C15.7674 25.4928 15.4735 24.9542 15.0993 24.4729C15.0886 24.4609 15.0661 24.4761 15.0779 24.492L15.0755 24.4893Z" fill="white" fill-opacity="0.5"/>
<path d="M15.5058 24.4464C15.8525 25.2698 16.1835 26.1025 16.5902 26.8989C16.5945 26.9044 16.6006 26.9082 16.6074 26.9098C16.6141 26.9114 16.6213 26.9106 16.6275 26.9075C16.6338 26.9045 16.6388 26.8994 16.6418 26.893C16.6447 26.8867 16.6454 26.8796 16.6438 26.8728C16.3166 26.0392 15.9137 25.2442 15.5306 24.4339C15.5298 24.4318 15.5284 24.4298 15.5267 24.4283C15.525 24.4268 15.5229 24.4257 15.5206 24.4252C15.5184 24.4246 15.516 24.4246 15.5138 24.4252C15.5116 24.4258 15.5095 24.4269 15.5078 24.4284C15.506 24.4299 15.5047 24.4319 15.5039 24.434C15.5031 24.4362 15.5028 24.4385 15.5031 24.4408C15.5033 24.4431 15.5042 24.4453 15.5055 24.4472C15.5068 24.4491 15.5085 24.4507 15.5106 24.4518L15.5058 24.4464Z" fill="white" fill-opacity="0.5"/>
<path d="M15.7165 24.3643L15.9043 24.8447C15.9404 24.9941 16.0055 25.135 16.0959 25.2594C16.1185 25.2848 16.1762 25.2742 16.1735 25.2334C16.1469 25.0894 16.0905 24.9526 16.0078 24.8317C15.9248 24.6657 15.8405 24.5009 15.7562 24.3361C15.7529 24.3308 15.7476 24.327 15.7416 24.3253C15.7355 24.3236 15.7291 24.3243 15.7235 24.3272C15.7179 24.33 15.7136 24.3349 15.7114 24.3407C15.7093 24.3466 15.7094 24.3531 15.7117 24.3589L15.7165 24.3643Z" fill="white" fill-opacity="0.5"/>
<path d="M15.9822 24.1973C16.0939 24.4144 16.1963 24.6399 16.3248 24.8517C16.3287 24.86 16.3357 24.8664 16.3444 24.8695C16.353 24.8726 16.3625 24.8722 16.3708 24.8683C16.3791 24.8644 16.3855 24.8574 16.3886 24.8487C16.3918 24.8401 16.3913 24.8306 16.3874 24.8223C16.2979 24.595 16.1786 24.3774 16.0734 24.1569C16.0664 24.1474 16.0564 24.1407 16.045 24.1379C16.0336 24.135 16.0216 24.1363 16.011 24.1414C16.0005 24.1465 15.992 24.1552 15.9872 24.1659C15.9824 24.1766 15.9814 24.1886 15.9846 24.1999L15.9822 24.1973Z" fill="white" fill-opacity="0.5"/>
<path d="M13.4014 12.822C13.9989 13.3855 14.5055 14.0382 14.903 14.7569C15.3052 15.4998 15.4502 16.2798 15.6945 17.0744C15.7094 17.1235 15.7917 17.127 15.7914 17.0673C15.7949 15.4141 14.6584 13.7923 13.4083 12.8135L13.4002 12.8207L13.4014 12.822Z" fill="white" fill-opacity="0.5"/>
<path d="M15.9163 17.7114C16.01 18.1077 16.0491 18.5262 16.1244 18.9341C16.1291 18.961 16.1713 18.9572 16.1729 18.9293C16.1802 18.5084 16.0985 18.0907 15.9333 17.7036C15.9261 17.6955 15.912 17.6985 15.9199 17.7155L15.9163 17.7114Z" fill="white" fill-opacity="0.5"/>
<path d="M14.6853 23.1918C15.974 23.2439 16.4454 21.7283 16.3321 20.6659C16.3252 20.6097 16.2292 20.6016 16.2182 20.6593C16.0264 21.6671 16.0359 23.0305 14.6845 23.1829L14.6853 23.1918Z" fill="white" fill-opacity="0.5"/>
<path d="M16.7104 21.1674C16.8679 20.5763 16.9311 19.9036 16.692 19.325C16.6686 19.2691 16.5966 19.3068 16.6 19.3565C16.6422 19.9617 16.7411 20.5524 16.6903 21.1637C16.6903 21.1637 16.7046 21.1797 16.7104 21.1674Z" fill="white" fill-opacity="0.5"/>
<path d="M16.042 16.6395C16.1886 17.0414 16.2736 17.4791 16.4501 17.8687C16.4737 17.9221 16.5491 17.891 16.542 17.8373C16.4513 17.4109 16.285 17.0041 16.051 16.6362L16.042 16.6395Z" fill="white" fill-opacity="0.5"/>
<path d="M14.5553 15.9506C15.3598 17.4122 15.478 18.8277 15.4709 20.4553C15.4703 20.5086 15.5515 20.5298 15.5662 20.4735C15.9382 18.9432 15.4054 17.2182 14.5736 15.9415C14.5652 15.9321 14.5496 15.9388 14.5589 15.9546L14.5553 15.9506Z" fill="white" fill-opacity="0.5"/>
<path d="M12.389 22.7696C12.7255 22.9618 13.1793 23.0998 13.5578 22.9645C13.5902 22.9524 13.5768 22.8996 13.5437 22.9002C13.356 22.8995 13.1706 22.9229 12.9825 22.9057C12.7812 22.8851 12.5848 22.8303 12.4019 22.7437C12.3985 22.742 12.3945 22.7417 12.3908 22.743C12.3872 22.7442 12.3842 22.7468 12.3825 22.7502C12.3808 22.7536 12.3805 22.7576 12.3817 22.7613C12.3829 22.7649 12.3855 22.7679 12.389 22.7696Z" fill="white" fill-opacity="0.5"/>
<path d="M9.92482 14.7818C10.256 13.4509 11.3324 12.9006 12.6188 12.9932C12.6337 12.993 12.6481 12.9877 12.6595 12.9782C12.671 12.9686 12.6788 12.9554 12.6816 12.9408C12.6844 12.9261 12.682 12.9109 12.6749 12.8978C12.6677 12.8847 12.6563 12.8745 12.6425 12.8689C11.3375 12.5075 10.1131 13.5301 9.90474 14.778C9.90474 14.778 9.91902 14.7941 9.92482 14.7818Z" fill="white" fill-opacity="0.5"/>
<path d="M12.3298 13.4255C12.5617 13.4146 12.7923 13.4661 12.9975 13.5747C13.0051 13.5797 13.0144 13.5814 13.0233 13.5796C13.0277 13.5787 13.0319 13.5769 13.0356 13.5743C13.0393 13.5718 13.0425 13.5685 13.045 13.5648C13.0475 13.561 13.0492 13.5568 13.05 13.5524C13.0509 13.5479 13.0508 13.5434 13.0499 13.539C13.049 13.5345 13.0472 13.5304 13.0446 13.5266C13.0421 13.5229 13.0389 13.5197 13.0351 13.5172C12.9331 13.4422 12.8162 13.3899 12.6922 13.3641C12.5682 13.3383 12.4401 13.3395 12.3167 13.3676C12.2795 13.3743 12.2916 13.4283 12.3298 13.4255Z" fill="white" fill-opacity="0.5"/>
<path d="M13.6905 14.1569C14.0151 14.5419 14.2853 14.9696 14.4934 15.4282C14.5287 15.4975 14.6231 15.4446 14.6004 15.376C14.4196 14.8916 14.1309 14.4547 13.756 14.0986C13.7478 14.0924 13.7376 14.0892 13.7273 14.0896C13.717 14.0901 13.7071 14.0941 13.6994 14.1009C13.6917 14.1078 13.6866 14.1171 13.6849 14.1273C13.6833 14.1375 13.6853 14.148 13.6905 14.1569Z" fill="white" fill-opacity="0.5"/>
<path d="M29.4914 48.605C29.9079 48.666 30.2408 48.6143 30.5504 48.31C30.6937 48.1655 30.7896 47.9808 30.8255 47.7805C30.8614 47.5802 30.8356 47.3738 30.7514 47.1885C30.7364 47.1455 30.7126 47.1062 30.6814 47.0731C30.6502 47.0401 30.6123 47.014 30.5703 46.9965C30.5283 46.9791 30.4831 46.9708 30.4376 46.972C30.3922 46.9733 30.3475 46.9842 30.3066 47.004C30.1159 47.097 30.085 47.3667 30.079 47.5567C30.0874 47.6252 30.0765 47.6947 30.0475 47.7574C30.0185 47.82 29.9726 47.8734 29.915 47.9114C29.7753 47.9992 29.6224 48.064 29.4622 48.1033C29.2235 48.1719 29.2334 48.5684 29.4914 48.605Z" fill="white" fill-opacity="0.5"/>
<path d="M29.7493 49.0134C30.6864 49.1555 31.2341 47.9869 31.0867 47.1827C30.9281 46.3093 29.5837 45.9278 28.8699 46.3089C28.6955 46.4051 28.5431 46.5367 28.4224 46.6952C28.3016 46.8536 28.2153 47.0355 28.1688 47.2292C28.1223 47.4229 28.1167 47.6242 28.1523 47.8202C28.188 48.0162 28.2641 48.2026 28.3759 48.3676C28.5084 48.5603 28.682 48.7212 28.8841 48.8389C29.0863 48.9567 29.3119 49.0282 29.5449 49.0484C29.778 49.0686 30.0126 49.0371 30.232 48.9559C30.4514 48.8748 30.6501 48.7461 30.8139 48.5792C30.8201 48.5709 30.8232 48.5607 30.8228 48.5504C30.8223 48.5401 30.8184 48.5302 30.8115 48.5225C30.8046 48.5148 30.7953 48.5097 30.7851 48.5081C30.7749 48.5064 30.7644 48.5084 30.7555 48.5136C30.128 48.9618 29.2458 49.097 28.6604 48.4932C28.5325 48.3672 28.4318 48.2163 28.3646 48.0498C28.2974 47.8833 28.2651 47.7048 28.2697 47.5253C28.2743 47.3458 28.3158 47.1692 28.3914 47.0064C28.4671 46.8435 28.5754 46.698 28.7096 46.5787C29.289 46.063 30.2879 46.2772 30.7647 46.829C31.358 47.5144 30.7158 49.0645 29.7525 48.9819C29.7336 48.9795 29.7284 49.0033 29.752 49.011L29.7493 49.0134Z" fill="white" fill-opacity="0.5"/>
<path d="M30.4717 47.19C30.433 47.0952 30.3744 47.0098 30.2999 46.9396C30.2254 46.8694 30.1367 46.816 30.0398 46.7829C29.8633 46.7256 29.6717 46.7376 29.5037 46.8164C29.4973 46.8196 29.4924 46.8252 29.4901 46.8319C29.4878 46.8387 29.4883 46.8461 29.4914 46.8525C29.4946 46.8589 29.5002 46.8638 29.5069 46.8661C29.5137 46.8684 29.5211 46.8679 29.5275 46.8648C29.6088 46.8259 29.6973 46.8042 29.7873 46.8008C29.8774 46.7974 29.9672 46.8124 30.0512 46.845C30.1352 46.8776 30.2117 46.927 30.2759 46.9902C30.3402 47.0534 30.3908 47.1291 30.4247 47.2126C30.438 47.2464 30.4851 47.2212 30.4717 47.19Z" fill="white" fill-opacity="0.5"/>
<path d="M28.9566 46.9592L28.7803 47.1761C28.7783 47.1789 28.777 47.1821 28.7763 47.1855C28.7756 47.1889 28.7757 47.1925 28.7764 47.1958C28.7772 47.1992 28.7786 47.2024 28.7807 47.2052C28.7827 47.208 28.7854 47.2103 28.7884 47.2121C28.7942 47.2161 28.8014 47.2176 28.8083 47.2163C28.8153 47.2151 28.8215 47.2111 28.8255 47.2053L29.0019 46.9885C29.0052 46.9822 29.0061 46.9749 29.0044 46.968C29.0027 46.9611 28.9985 46.9551 28.9926 46.9511C28.9898 46.9492 28.9865 46.9478 28.9831 46.9471C28.9797 46.9465 28.9762 46.9465 28.9728 46.9473C28.9695 46.948 28.9663 46.9495 28.9635 46.9515C28.9607 46.9536 28.9583 46.9562 28.9566 46.9592Z" fill="white" fill-opacity="0.5"/>
<path d="M28.8851 48.1014C28.8238 48.0501 28.7759 47.9848 28.7452 47.911C28.7146 47.8372 28.7023 47.7571 28.7093 47.6775C28.7125 47.6434 28.6594 47.6403 28.6561 47.6744C28.6492 47.7634 28.6637 47.8527 28.6984 47.9349C28.7332 48.017 28.7872 48.0897 28.8558 48.1466C28.8785 48.1721 28.9104 48.1244 28.8851 48.1014Z" fill="white" fill-opacity="0.5"/>
<path d="M29.5847 47.1387C29.4928 47.1662 29.4085 47.2146 29.3385 47.2801C29.2684 47.3456 29.2145 47.4265 29.1808 47.5163C29.1472 47.6062 29.1349 47.7026 29.1447 47.798C29.1546 47.8934 29.1864 47.9853 29.2376 48.0664C29.2603 48.0918 29.3032 48.0727 29.286 48.0425C29.2374 47.969 29.2067 47.8851 29.1962 47.7976C29.1856 47.7101 29.1956 47.6214 29.2253 47.5384C29.255 47.4555 29.3036 47.3806 29.3672 47.3196C29.4309 47.2587 29.5079 47.2134 29.592 47.1873C29.6245 47.1752 29.6148 47.1239 29.5811 47.1346L29.5847 47.1387Z" fill="white" fill-opacity="0.5"/>
<path d="M36.2905 22.251C35.4641 22.5405 34.7925 23.6155 34.7081 24.4773C34.6608 24.9631 35.0748 26.0696 35.7005 25.9372C35.7238 25.9322 35.7454 25.9213 35.7632 25.9055C35.7811 25.8896 35.7945 25.8695 35.8022 25.8469C35.8099 25.8243 35.8116 25.8002 35.8072 25.7768C35.8028 25.7533 35.7924 25.7315 35.777 25.7133C35.5844 25.5193 35.453 25.2731 35.3991 25.0051C35.3452 24.7371 35.3712 24.4592 35.4738 24.2059C35.5698 23.9323 35.7054 23.6743 35.8762 23.44C36.1111 23.1326 36.4555 22.9915 36.6538 22.6592C36.6849 22.6068 36.6985 22.546 36.6927 22.4854C36.6869 22.4248 36.662 22.3676 36.6215 22.3222C36.581 22.2767 36.5271 22.2453 36.4676 22.2325C36.4081 22.2197 36.3461 22.2262 36.2905 22.251Z" fill="white" fill-opacity="0.5"/>
<path d="M34.5297 25.7427C33.8206 24.4071 34.3546 22.9269 35.6842 22.2327C36.0008 22.0675 36.3492 21.9723 36.7058 21.9535C37.0624 21.9348 37.4188 21.9929 37.751 22.1241C38.0831 22.2552 38.3831 22.4562 38.6308 22.7135C38.8784 22.9708 39.0678 23.2783 39.1861 23.6152C39.6854 25.0655 38.8222 26.8172 37.232 26.9303C35.6008 27.0486 34.6391 25.9331 34.0751 24.5476C34.0541 24.4943 33.9605 24.5104 33.9647 24.5691C34.0658 26.2994 35.894 27.4615 37.5324 27.1977C39.1707 26.9339 39.9716 25.0098 39.4266 23.5163C39.2904 23.1514 39.0784 22.8195 38.8047 22.5425C38.5309 22.2654 38.2016 22.0495 37.8383 21.909C37.4751 21.7684 37.0862 21.7065 36.6973 21.7271C36.3084 21.7478 35.9282 21.8506 35.5819 22.0288C34.1748 22.768 33.5092 24.4372 34.4412 25.8023C34.4805 25.8464 34.5571 25.7951 34.5297 25.7427Z" fill="white" fill-opacity="0.5"/>
<path d="M35.9179 25.0153C35.8509 24.5952 35.7485 24.2402 36.0525 23.8785C36.1484 23.7586 36.2746 23.6666 36.4181 23.6121C36.5616 23.5575 36.7171 23.5425 36.8684 23.5686C37.0197 23.5946 37.1612 23.6607 37.2783 23.7601C37.3953 23.8594 37.4835 23.9884 37.5338 24.1334C37.6149 24.3741 37.621 24.6338 37.5514 24.8781C37.4853 25.0609 37.3518 25.2116 37.1783 25.2991C37.0047 25.3867 36.8043 25.4046 36.6179 25.3491C36.1075 25.223 35.9908 24.8089 35.8176 24.3826C35.8112 24.3707 35.8014 24.3609 35.7895 24.3544C35.7776 24.3479 35.764 24.3451 35.7505 24.3462C35.737 24.3472 35.7241 24.3523 35.7134 24.3606C35.7026 24.3689 35.6946 24.3801 35.6901 24.3929C35.4573 25.0798 36.2569 25.6657 36.8743 25.6318C37.7045 25.5836 37.974 24.7897 37.7347 24.0817C37.6865 23.9326 37.6053 23.7963 37.4971 23.683C37.3889 23.5696 37.2565 23.4822 37.1097 23.4272C36.963 23.3722 36.8057 23.351 36.6497 23.3652C36.4936 23.3795 36.3428 23.4288 36.2085 23.5094C35.7284 23.7785 35.3853 24.6163 35.8692 25.0442C35.8738 25.0485 35.8796 25.0512 35.8858 25.0521C35.8921 25.053 35.8984 25.0519 35.904 25.049C35.9096 25.0462 35.9141 25.0416 35.917 25.0361C35.92 25.0305 35.9211 25.0242 35.9203 25.0179L35.9179 25.0153Z" fill="white" fill-opacity="0.5"/>
<path d="M34.586 24.9252C34.6476 25.2109 34.7801 25.4764 34.9713 25.6975C35.157 25.9261 35.4027 26.0986 35.6808 26.1956C35.7967 26.2316 35.8906 26.0568 35.776 25.9981C35.5404 25.8924 35.3265 25.7435 35.1455 25.5592C34.9734 25.3666 34.8462 25.1382 34.7733 24.8904C34.7396 24.7717 34.555 24.8041 34.574 24.9359L34.586 24.9252Z" fill="white" fill-opacity="0.5"/>
<path d="M36.31 26.5323C36.4569 26.6069 36.6154 26.6556 36.7788 26.6763C36.9371 26.6989 37.0983 26.6906 37.2535 26.6519C37.2783 26.6462 37.2999 26.6313 37.3141 26.6102C37.3283 26.5891 37.3339 26.5634 37.3299 26.5384C37.3246 26.5134 37.3098 26.4915 37.2886 26.4772C37.2674 26.463 37.2415 26.4575 37.2164 26.462L37.1048 26.4821C37.0883 26.4853 37.0717 26.4873 37.0549 26.4881L37.0294 26.4917C36.8155 26.5064 36.6015 26.4655 36.4081 26.3731C36.3874 26.3598 36.3622 26.3552 36.3381 26.3605C36.314 26.3657 36.2929 26.3804 36.2796 26.4011C36.2663 26.4219 36.2617 26.4471 36.267 26.4712C36.2723 26.4953 36.2869 26.5163 36.3077 26.5297L36.31 26.5323Z" fill="white" fill-opacity="0.5"/>
<path d="M38.4346 25.9827C38.6641 25.7524 38.8414 25.4755 38.9545 25.1708C39.0677 24.8661 39.1141 24.5406 39.0906 24.2164C39.0823 24.0966 38.8974 24.1341 38.907 24.2527C38.9267 24.5452 38.8839 24.8386 38.7815 25.1133C38.6791 25.388 38.5195 25.6379 38.3131 25.8462C38.2261 25.9236 38.3499 26.0653 38.4322 25.98L38.4346 25.9827Z" fill="white" fill-opacity="0.5"/>
<path d="M38.1297 22.9934C38.2454 23.0776 38.3609 23.1642 38.4752 23.2496C38.4963 23.2632 38.5219 23.2679 38.5465 23.2627C38.571 23.2574 38.5925 23.2427 38.6062 23.2217C38.6199 23.2005 38.6248 23.1748 38.6198 23.1501C38.6148 23.1254 38.6005 23.1037 38.5797 23.0894L38.2287 22.8406C38.2086 22.8274 38.1841 22.8228 38.1605 22.8276C38.1369 22.8324 38.1162 22.8463 38.1028 22.8663C38.0903 22.8869 38.0861 22.9115 38.0911 22.9352C38.0961 22.9588 38.1099 22.9796 38.1297 22.9934Z" fill="white" fill-opacity="0.5"/>
<path d="M37.2231 25.5113L37.5962 26.0113C37.6136 26.0309 37.638 26.0427 37.6641 26.0442C37.6902 26.0457 37.7158 26.0368 37.7353 26.0194C37.7541 26.0016 37.7653 25.9773 37.7668 25.9515C37.7683 25.9257 37.76 25.9002 37.7434 25.8803C37.6187 25.7132 37.4952 25.5448 37.3716 25.379C37.3541 25.3594 37.3296 25.3474 37.3034 25.3456C37.2771 25.3439 37.2513 25.3525 37.2313 25.3696C37.2126 25.388 37.2014 25.4127 37.1999 25.4388C37.1984 25.465 37.2066 25.4908 37.2231 25.5113Z" fill="white" fill-opacity="0.5"/>
<path d="M37.526 25.4364L38.0132 25.9837C38.0306 26.0033 38.055 26.0151 38.0811 26.0166C38.1071 26.0181 38.1328 26.0092 38.1523 25.9918C38.1718 25.9745 38.1836 25.95 38.1852 25.9239C38.1867 25.8979 38.1778 25.8722 38.1604 25.8527L37.6732 25.3054C37.6565 25.2866 37.633 25.2752 37.6078 25.2737C37.5827 25.2723 37.558 25.2808 37.5392 25.2976C37.5204 25.3143 37.509 25.3379 37.5075 25.363C37.506 25.3881 37.5146 25.4128 37.5314 25.4316L37.526 25.4364Z" fill="white" fill-opacity="0.5"/>
<path d="M37.6862 25.0797C37.9199 25.2722 38.1522 25.4685 38.3902 25.6523C38.4005 25.6593 38.4122 25.6642 38.4245 25.6665C38.4368 25.6689 38.4494 25.6688 38.4616 25.6662C38.4739 25.6636 38.4854 25.6586 38.4957 25.6514C38.5059 25.6442 38.5146 25.635 38.5212 25.6244C38.5344 25.6032 38.5388 25.5777 38.5336 25.5533C38.5284 25.5289 38.514 25.5074 38.4933 25.4934C38.2623 25.2985 38.0231 25.1133 37.7867 24.9231C37.7662 24.9122 37.7423 24.9093 37.7198 24.9151C37.6972 24.9208 37.6777 24.9348 37.6649 24.9543C37.6522 24.9738 37.6472 24.9973 37.6509 25.0202C37.6546 25.0432 37.6668 25.0639 37.685 25.0784L37.6862 25.0797Z" fill="white" fill-opacity="0.5"/>
<path d="M38.0104 24.9563C38.0213 24.9392 38.0262 24.9191 38.0246 24.8989C38.023 24.8787 38.0148 24.8596 38.0013 24.8445C37.9879 24.8294 37.9698 24.819 37.95 24.8151C37.9301 24.8111 37.9095 24.8137 37.8913 24.8225C37.8805 24.8396 37.8755 24.8598 37.8771 24.8799C37.8788 24.9001 37.8869 24.9192 37.9004 24.9343C37.9138 24.9495 37.9319 24.9598 37.9517 24.9638C37.9716 24.9677 37.9922 24.9651 38.0104 24.9563Z" fill="white" fill-opacity="0.5"/>
<path d="M37.8924 24.7831C38.0703 24.843 38.2442 24.9089 38.426 24.9677C38.4498 24.9753 38.4756 24.9733 38.4979 24.962C38.5201 24.9507 38.5371 24.9311 38.545 24.9074C38.5521 24.8836 38.5498 24.858 38.5386 24.8358C38.5274 24.8137 38.508 24.7967 38.4846 24.7884L37.9451 24.5971C37.9209 24.5896 37.8948 24.5919 37.8724 24.6034C37.8499 24.6149 37.8328 24.6347 37.8247 24.6586C37.8182 24.6828 37.8208 24.7085 37.8322 24.7307C37.8436 24.753 37.8629 24.7702 37.8863 24.779L37.8924 24.7831Z" fill="white" fill-opacity="0.5"/>
<path d="M37.9312 24.5497L38.9804 24.8151C39.0044 24.823 39.0305 24.8211 39.053 24.8098C39.0756 24.7985 39.0927 24.7787 39.1007 24.7548C39.1086 24.7309 39.1068 24.7048 39.0955 24.6822C39.0842 24.6597 39.0644 24.6425 39.0404 24.6346L37.9872 24.3728C37.965 24.3687 37.9421 24.3729 37.9227 24.3844C37.9033 24.396 37.8888 24.4141 37.8818 24.4356C37.8748 24.4571 37.8759 24.4803 37.8847 24.5011C37.8936 24.5218 37.9097 24.5386 37.93 24.5484L37.9312 24.5497Z" fill="white" fill-opacity="0.5"/>
<path d="M37.7925 24.2531C38.1371 24.2845 38.48 24.3222 38.8292 24.34C38.9518 24.3484 38.9614 24.1624 38.8403 24.1503C38.4971 24.1151 38.1506 24.095 37.8083 24.0687C37.6895 24.0593 37.6803 24.2402 37.7965 24.2495L37.7925 24.2531Z" fill="white" fill-opacity="0.5"/>
<path d="M37.8615 23.9239L38.8917 23.8175C38.9035 23.8151 38.9148 23.8104 38.9248 23.8036C38.9348 23.7968 38.9433 23.7881 38.9499 23.778C38.9565 23.7679 38.9611 23.7565 38.9633 23.7446C38.9655 23.7328 38.9653 23.7206 38.9627 23.7087C38.9604 23.6969 38.9558 23.6857 38.9492 23.6757C38.9426 23.6656 38.934 23.657 38.924 23.6503C38.914 23.6436 38.9028 23.6389 38.891 23.6365C38.8792 23.6342 38.8671 23.6342 38.8553 23.6365L37.8249 23.7454C37.8013 23.7504 37.7805 23.7644 37.7671 23.7845C37.7536 23.8045 37.7484 23.829 37.7527 23.8528C37.7584 23.8763 37.7728 23.8967 37.793 23.9099C37.8132 23.9231 37.8377 23.9281 37.8615 23.9239Z" fill="white" fill-opacity="0.5"/>
<path d="M37.5292 23.6726L38.2495 23.1346C38.2684 23.1178 38.2797 23.0943 38.2812 23.0692C38.2827 23.044 38.2741 23.0193 38.2573 23.0005C38.2406 22.9817 38.2171 22.9703 38.1919 22.9689C38.1668 22.9674 38.1421 22.976 38.1233 22.9927L37.403 23.5307C37.3842 23.5475 37.3728 23.571 37.3713 23.5961C37.3698 23.6213 37.3784 23.646 37.3952 23.6648C37.4124 23.6828 37.4358 23.6936 37.4607 23.6951C37.4855 23.6965 37.51 23.6885 37.5292 23.6726Z" fill="white" fill-opacity="0.5"/>
<path d="M37.2353 23.3407L37.6505 22.8991C37.6678 22.8825 37.6782 22.86 37.6796 22.8361C37.681 22.8122 37.6733 22.7886 37.658 22.7701C37.6271 22.7353 37.5629 22.7253 37.529 22.7626L37.115 23.2055C37.1033 23.2123 37.0933 23.2217 37.0857 23.2328C37.078 23.244 37.073 23.2567 37.0709 23.2701C37.0687 23.2834 37.0696 23.2971 37.0734 23.3101C37.0772 23.3231 37.0838 23.335 37.0928 23.3451C37.1018 23.3552 37.113 23.3632 37.1254 23.3685C37.1379 23.3738 37.1513 23.3762 37.1648 23.3757C37.1784 23.3751 37.1916 23.3716 37.2036 23.3653C37.2155 23.359 37.226 23.3501 37.2341 23.3393L37.2353 23.3407Z" fill="white" fill-opacity="0.5"/>
<path d="M36.8787 23.2891L37.5657 22.4091C37.579 22.3871 37.5835 22.3609 37.5781 22.3358C37.5727 22.3107 37.5579 22.2886 37.5367 22.2741C37.5148 22.2603 37.4885 22.2554 37.4631 22.2606C37.4377 22.2657 37.4154 22.2805 37.4006 22.3017L36.7111 23.1816C36.697 23.2038 36.6921 23.2305 36.6975 23.2562C36.7029 23.2819 36.7181 23.3045 36.74 23.3191C36.7626 23.3326 36.7895 23.3371 36.8153 23.3315C36.841 23.3259 36.8637 23.3108 36.8787 23.2891Z" fill="white" fill-opacity="0.5"/>
<path d="M36.3634 25.6119L36.3733 25.8765C36.3725 25.9712 36.3767 26.0659 36.386 26.1602C36.3909 26.184 36.4044 26.2052 36.4239 26.2197C36.4434 26.2342 36.4676 26.241 36.4919 26.2387C36.5163 26.2385 36.5398 26.2295 36.558 26.2133C36.5762 26.1971 36.5879 26.1748 36.5909 26.1505C36.5934 26.0644 36.5845 25.9763 36.5806 25.8911L36.5678 25.6315C36.5687 25.6181 36.5669 25.6048 36.5626 25.5921C36.5583 25.5795 36.5515 25.5679 36.5426 25.5579C36.5338 25.5479 36.523 25.5398 36.5109 25.5341C36.4989 25.5283 36.4858 25.525 36.4725 25.5244C36.446 25.5229 36.42 25.532 36.4002 25.5496C36.3804 25.5673 36.3684 25.592 36.3668 25.6185L36.3634 25.6119Z" fill="white" fill-opacity="0.5"/>
<path d="M36.7659 25.6762L36.9256 26.268C36.928 26.2804 36.9329 26.2923 36.9399 26.3029C36.947 26.3135 36.956 26.3226 36.9666 26.3297C36.9771 26.3368 36.9889 26.3417 37.0014 26.3442C37.0139 26.3468 37.0267 26.3468 37.0392 26.3444C37.0516 26.3419 37.0635 26.3371 37.0741 26.33C37.0847 26.323 37.0938 26.314 37.1009 26.3034C37.108 26.2929 37.1129 26.281 37.1154 26.2686C37.118 26.2561 37.118 26.2433 37.1156 26.2308L36.9585 25.6367C36.9567 25.6233 36.9521 25.6105 36.9451 25.599C36.9381 25.5875 36.9288 25.5776 36.9178 25.5698C36.9068 25.562 36.8943 25.5566 36.8811 25.5538C36.8679 25.5511 36.8543 25.551 36.8411 25.5537C36.8279 25.5564 36.8154 25.5618 36.8044 25.5696C36.7933 25.5773 36.784 25.5872 36.7769 25.5987C36.7699 25.6102 36.7653 25.623 36.7634 25.6363C36.7615 25.6496 36.7623 25.6632 36.7659 25.6762Z" fill="white" fill-opacity="0.5"/>
<path d="M37.164 25.8493C37.2811 26.0617 37.398 26.2766 37.5174 26.4942C37.5287 26.5152 37.5476 26.5311 37.5704 26.5386C37.5931 26.546 37.6178 26.5445 37.6394 26.5342C37.6501 26.5291 37.6596 26.5219 37.6675 26.513C37.6754 26.5041 37.6814 26.4938 37.6853 26.4825C37.6891 26.4713 37.6907 26.4594 37.6899 26.4476C37.6891 26.4357 37.6859 26.4242 37.6807 26.4136C37.5637 26.1986 37.4468 25.9837 37.3273 25.7687C37.3218 25.7579 37.3142 25.7482 37.3049 25.7404C37.2957 25.7325 37.2849 25.7265 37.2734 25.7228C37.2618 25.719 37.2496 25.7176 37.2375 25.7186C37.2254 25.7196 37.2136 25.7229 37.2028 25.7284C37.192 25.734 37.1823 25.7416 37.1745 25.7508C37.1666 25.7601 37.1606 25.7708 37.1569 25.7824C37.1531 25.794 37.1517 25.8061 37.1527 25.8183C37.1536 25.8304 37.157 25.8422 37.1625 25.853L37.164 25.8493Z" fill="white" fill-opacity="0.5"/>
<path d="M35.7111 15.9793C35.4144 16.0856 35.161 16.2867 34.9901 16.5515C34.8059 16.8378 34.8185 17.1671 34.7637 17.499C34.7088 17.8308 34.7065 18.0895 34.9928 18.3599C35.2442 18.5982 35.5439 18.7797 35.8717 18.892C36.0187 18.9386 36.0827 18.7545 35.98 18.6661C35.743 18.4645 35.3683 18.0112 35.3873 17.7065C35.4063 17.4018 35.4389 16.9723 35.7032 16.7491C35.8651 16.605 36.2639 16.5114 36.246 16.2299C36.2281 15.9485 35.9088 15.9185 35.7111 15.9793Z" fill="white" fill-opacity="0.5"/>
<path d="M34.9223 15.8714C36.9291 13.9629 39.8581 17.3183 37.5727 18.8896C36.5444 19.5962 35.0073 19.2974 34.6228 18.0328C34.2637 16.8533 34.8721 15.9928 35.7235 15.2518C35.7771 15.2042 35.7177 15.1347 35.6593 15.1554C34.2791 15.6284 33.8837 17.4314 34.5489 18.6261C35.1845 19.7633 36.8891 19.8002 37.8293 19.0162C38.0613 18.8212 38.2507 18.5805 38.3857 18.3092C38.5206 18.0378 38.5983 17.7416 38.6137 17.4389C38.6292 17.1362 38.5821 16.8336 38.4755 16.5499C38.3689 16.2662 38.2051 16.0075 37.9941 15.7899C37.0992 14.8788 35.6653 14.7688 34.84 15.8032C34.8016 15.8517 34.8779 15.9158 34.921 15.8726L34.9223 15.8714Z" fill="white" fill-opacity="0.5"/>
<path d="M35.7929 16.7559C36.1511 16.6194 36.4473 16.4133 36.8233 16.6902C36.9175 16.7572 36.9924 16.8479 37.0401 16.9532C37.0878 17.0585 37.1068 17.1746 37.0951 17.2896C37.0834 17.4046 37.0414 17.5144 36.9734 17.6079C36.9054 17.7014 36.8138 17.7752 36.708 17.8218C36.3155 18.0248 35.8403 17.949 35.7407 17.4572C35.7042 17.258 35.7481 17.0525 35.8628 16.8856C35.9804 16.7545 36.1124 16.6371 36.2562 16.5354C36.2661 16.5262 36.273 16.5142 36.2762 16.5011C36.2794 16.4879 36.2787 16.4741 36.2742 16.4614C36.2697 16.4486 36.2616 16.4374 36.2508 16.4292C36.2401 16.421 36.2272 16.416 36.2137 16.4149C35.6129 16.3381 35.3501 17.1692 35.518 17.6219C35.7448 18.2378 36.3932 18.2819 36.8842 17.9551C36.9966 17.887 37.0916 17.7936 37.1616 17.6823C37.2315 17.5711 37.2746 17.4451 37.2874 17.3143C37.3002 17.1835 37.2823 17.0515 37.2352 16.9288C37.1881 16.8062 37.113 16.6961 37.0159 16.6075C36.7085 16.3079 35.9236 16.2103 35.7506 16.7192C35.7487 16.7244 35.7483 16.73 35.7493 16.7354C35.7503 16.7408 35.7528 16.7459 35.7565 16.75C35.7601 16.7541 35.7649 16.7572 35.7701 16.7588C35.7754 16.7605 35.781 16.7607 35.7864 16.7594L35.7929 16.7559Z" fill="white" fill-opacity="0.5"/>
<path d="M34.7794 17.9335C34.8259 18.1786 34.9417 18.4052 35.1131 18.5863C35.2846 18.7675 35.5045 18.8956 35.7466 18.9554C35.8656 18.9814 35.9246 18.797 35.8057 18.7685C35.5986 18.715 35.4103 18.6054 35.2616 18.4516C35.1129 18.2979 35.0096 18.106 34.963 17.8973C34.9606 17.8852 34.9559 17.8737 34.9491 17.8635C34.9423 17.8533 34.9335 17.8445 34.9233 17.8377C34.9131 17.8308 34.9016 17.8261 34.8896 17.8237C34.8775 17.8212 34.8651 17.8212 34.8531 17.8236C34.841 17.826 34.8296 17.8307 34.8193 17.8375C34.8091 17.8443 34.8003 17.8531 34.7935 17.8633C34.7867 17.8735 34.7819 17.885 34.7795 17.897C34.7771 17.9091 34.7771 17.9215 34.7794 17.9335Z" fill="white" fill-opacity="0.5"/>
<path d="M36.5191 19.1508L36.7695 19.0791C36.8586 19.0525 36.9466 19.0221 37.0335 18.9904C37.054 18.9793 37.0698 18.9613 37.0783 18.9396C37.0868 18.9179 37.0873 18.8939 37.0797 18.8719C37.0722 18.8498 37.0571 18.8312 37.0371 18.8192C37.0172 18.8073 36.9936 18.8028 36.9706 18.8065L36.8455 18.8411L36.7055 18.8914L36.4594 18.9786C36.4394 18.9887 36.4239 19.0057 36.4154 19.0264C36.407 19.0471 36.4063 19.0702 36.4135 19.0914C36.4204 19.1127 36.4351 19.1307 36.4547 19.1417C36.4743 19.1527 36.4973 19.1559 36.5191 19.1508Z" fill="white" fill-opacity="0.5"/>
<path d="M37.9342 17.5149C37.9308 17.8083 37.8299 18.0921 37.6475 18.3218C37.635 18.3418 37.6301 18.3655 37.6337 18.3887C37.6372 18.412 37.6489 18.4332 37.6667 18.4485C37.6953 18.4807 37.7635 18.4872 37.7962 18.4485C37.853 18.3859 37.903 18.3173 37.9451 18.2439C37.9857 18.1694 38.02 18.0916 38.0475 18.0113C38.1001 17.855 38.1251 17.6907 38.1214 17.5258C38.1221 17.5012 38.1133 17.4772 38.0969 17.4588C38.0806 17.4404 38.0578 17.429 38.0332 17.4268C38.0085 17.4257 37.9843 17.4343 37.9658 17.4507C37.9473 17.4672 37.936 17.4902 37.9342 17.5149Z" fill="white" fill-opacity="0.5"/>
<path d="M35.4866 17.2971C35.3296 17.3121 35.1703 17.3244 35.0142 17.3458C34.9888 17.3508 34.9663 17.3657 34.9518 17.3872C34.9372 17.4086 34.9317 17.435 34.9365 17.4605C34.9417 17.4863 34.9567 17.5091 34.9785 17.5239C35.0005 17.5366 35.0261 17.5416 35.0513 17.5382C35.2106 17.5259 35.3631 17.5006 35.5251 17.4859C35.5385 17.4844 35.5514 17.4802 35.563 17.4734C35.5747 17.4667 35.5848 17.4576 35.5927 17.4467C35.6007 17.4358 35.6062 17.4234 35.6091 17.4103C35.612 17.3971 35.6121 17.3835 35.6094 17.3704C35.6067 17.3572 35.6013 17.3447 35.5935 17.3337C35.5857 17.3227 35.5757 17.3135 35.5642 17.3066C35.5526 17.2997 35.5397 17.2953 35.5264 17.2937C35.513 17.292 35.4995 17.2932 35.4866 17.2971Z" fill="white" fill-opacity="0.5"/>
<path d="M35.4391 16.9317L35.2676 16.9141C35.2107 16.9095 35.1523 16.9112 35.0953 16.9092C35.0681 16.9086 35.0416 16.9184 35.0214 16.9366C35.0019 16.9547 34.9896 16.9792 34.9869 17.0057C34.9861 17.0326 34.9956 17.0589 35.0136 17.079C35.0315 17.0992 35.0565 17.1117 35.0834 17.114C35.1402 17.1186 35.1981 17.1271 35.2551 17.1291L35.4262 17.1327C35.453 17.1339 35.4793 17.1251 35.4999 17.1078C35.5099 17.0989 35.518 17.0881 35.5237 17.076C35.5294 17.0639 35.5327 17.0508 35.5332 17.0374C35.5342 17.0111 35.525 16.9853 35.5075 16.9656C35.4899 16.9459 35.4654 16.9338 35.4391 16.9317Z" fill="white" fill-opacity="0.5"/>
<path d="M35.4653 17.5492L35.2175 17.6642C35.1365 17.7027 35.0539 17.7499 34.9768 17.7873C34.9532 17.7993 34.9353 17.8201 34.9267 17.8452C34.9181 17.8702 34.9197 17.8977 34.9309 17.9216C34.9429 17.945 34.9635 17.9628 34.9884 17.9711C35.0133 17.9794 35.0405 17.9777 35.0641 17.9662C35.1462 17.9291 35.2361 17.8899 35.313 17.855L35.5548 17.7333C35.5668 17.7274 35.5775 17.7191 35.5863 17.709C35.5951 17.6989 35.6019 17.6871 35.6062 17.6744C35.6104 17.6617 35.6122 17.6483 35.6113 17.6349C35.6103 17.6215 35.6068 17.6084 35.6008 17.5964C35.5886 17.5726 35.5678 17.5544 35.5425 17.5456C35.5173 17.5368 35.4896 17.5381 35.4653 17.5492Z" fill="white" fill-opacity="0.5"/>
<path d="M35.5027 17.8331L35.1904 18.0751C35.0868 18.1554 34.9758 18.2301 34.8805 18.3197C34.863 18.336 34.8518 18.3579 34.8488 18.3816C34.8458 18.4053 34.8512 18.4294 34.8641 18.4495C34.8771 18.4699 34.8972 18.4847 34.9206 18.491C34.9439 18.4973 34.9688 18.4946 34.9903 18.4835C35.1035 18.405 35.2126 18.3207 35.3171 18.2309L35.6325 17.979C35.648 17.9609 35.6565 17.9378 35.6562 17.9139C35.656 17.8901 35.6471 17.8672 35.6313 17.8494C35.6154 17.8316 35.5937 17.8201 35.57 17.8171C35.5464 17.8141 35.5225 17.8198 35.5027 17.8331Z" fill="white" fill-opacity="0.5"/>
<path d="M35.7445 18.0099C35.5564 18.2756 35.366 18.5386 35.189 18.8113C35.179 18.8328 35.1771 18.8573 35.1837 18.8801C35.1903 18.9029 35.2049 18.9226 35.2249 18.9355C35.2448 18.9484 35.2688 18.9537 35.2923 18.9503C35.3158 18.947 35.3373 18.9352 35.3529 18.9173C35.5482 18.6571 35.7264 18.3857 35.9095 18.1172C35.9803 18.0135 35.8164 17.9075 35.7445 18.0099Z" fill="white" fill-opacity="0.5"/>
<path d="M35.9326 18.1375C35.8155 18.4048 35.6895 18.6729 35.5873 18.9461C35.5809 18.9685 35.5827 18.9924 35.5922 19.0136C35.6018 19.0349 35.6186 19.052 35.6396 19.0621C35.6606 19.0721 35.6845 19.0744 35.707 19.0685C35.7295 19.0626 35.7493 19.0489 35.7627 19.0299C35.8927 18.7583 36.0018 18.474 36.1183 18.1953C36.1238 18.1826 36.1265 18.169 36.1264 18.1552C36.1263 18.1414 36.1233 18.1278 36.1175 18.1152C36.1118 18.1027 36.1035 18.0915 36.0932 18.0823C36.0829 18.0732 36.0707 18.0663 36.0576 18.0621C36.0444 18.058 36.0306 18.0566 36.0168 18.0582C36.0031 18.0597 35.9899 18.0641 35.978 18.0711C35.9661 18.0781 35.9558 18.0875 35.9478 18.0987C35.9398 18.1099 35.9342 18.1227 35.9314 18.1362L35.9326 18.1375Z" fill="white" fill-opacity="0.5"/>
<path d="M36.1681 18.1953L36.0686 18.6628C36.0617 18.6866 36.0638 18.712 36.0746 18.7342C36.083 18.7582 36.1005 18.778 36.1234 18.7891C36.1475 18.7961 36.1734 18.7937 36.1958 18.7822C36.2181 18.7708 36.2353 18.7512 36.2437 18.7276L36.3395 18.2586C36.3462 18.2354 36.3445 18.2106 36.3347 18.1885C36.329 18.1774 36.3211 18.1676 36.3116 18.1597C36.302 18.1517 36.2909 18.1457 36.279 18.1421C36.2556 18.1349 36.2302 18.137 36.2083 18.148C36.1864 18.159 36.1695 18.1781 36.1614 18.2013L36.1681 18.1953Z" fill="white" fill-opacity="0.5"/>
<path d="M36.5077 18.0724L36.5387 18.5868C36.5488 18.7625 36.5576 18.9394 36.5818 19.1121C36.5981 19.2248 36.7827 19.2139 36.7817 19.0997C36.7806 18.9232 36.7604 18.7469 36.7451 18.5735L36.6964 18.058C36.6861 17.9521 36.5014 17.9629 36.5077 18.0724Z" fill="white" fill-opacity="0.5"/>
<path d="M36.7028 18.165L36.7798 18.5209C36.8061 18.6367 36.831 18.7536 36.8662 18.8686C36.8679 18.8814 36.8722 18.8938 36.8789 18.9048C36.8855 18.9159 36.8944 18.9256 36.9049 18.9331C36.9154 18.9407 36.9274 18.946 36.94 18.9488C36.9526 18.9515 36.9657 18.9517 36.9784 18.9492C36.9911 18.9468 37.0032 18.9417 37.0139 18.9344C37.0245 18.9271 37.0336 18.9177 37.0406 18.9068C37.0475 18.8958 37.0521 18.8836 37.0541 18.8708C37.0561 18.8581 37.0555 18.845 37.0523 18.8325C37.03 18.7131 36.9974 18.5983 36.9686 18.4824L36.8797 18.1347C36.8744 18.1105 36.8601 18.0893 36.8397 18.0753C36.8192 18.0614 36.7943 18.0558 36.7698 18.0597C36.7454 18.0649 36.724 18.0794 36.7102 18.1002C36.6964 18.121 36.6913 18.1464 36.6961 18.1709L36.7028 18.165Z" fill="white" fill-opacity="0.5"/>
<path d="M36.8313 17.9332L36.9643 18.3521C37.0079 18.4955 37.0491 18.6388 37.1032 18.7777C37.1142 18.7988 37.1323 18.8152 37.1543 18.8242C37.1764 18.8331 37.2008 18.834 37.2234 18.8266C37.2459 18.819 37.2648 18.8034 37.2765 18.7828C37.2882 18.7622 37.292 18.738 37.287 18.7148C37.2495 18.5755 37.2015 18.4408 37.1588 18.3013C37.1162 18.1617 37.0695 18.0258 37.0294 17.8864C37.0234 17.8621 37.0085 17.841 36.9877 17.8271C36.967 17.8132 36.9417 17.8076 36.917 17.8113C36.8923 17.8166 36.8706 17.8313 36.8566 17.8523C36.8426 17.8732 36.8373 17.8989 36.842 17.9237L36.8313 17.9332Z" fill="white" fill-opacity="0.5"/>
<path d="M37.086 17.7514L37.3964 17.9547C37.5003 18.0229 37.6015 18.0935 37.7096 18.1557C37.7203 18.1648 37.7328 18.1716 37.7464 18.1757C37.7599 18.1797 37.7741 18.1808 37.7881 18.1789C37.8021 18.1771 37.8155 18.1723 37.8275 18.1649C37.8395 18.1575 37.8498 18.1476 37.8578 18.136C37.8657 18.1243 37.8711 18.1111 37.8736 18.0973C37.8761 18.0834 37.8757 18.0691 37.8723 18.0554C37.8689 18.0417 37.8627 18.0289 37.854 18.0178C37.8453 18.0067 37.8344 17.9975 37.822 17.9909C37.7221 17.9191 37.6152 17.8583 37.5075 17.7911C37.3997 17.724 37.2981 17.6609 37.1903 17.5938C37.1699 17.5859 37.1474 17.5853 37.1266 17.5921C37.1058 17.5989 37.088 17.6126 37.0762 17.6311C37.0644 17.6495 37.0593 17.6714 37.0617 17.6931C37.0642 17.7149 37.0742 17.7351 37.0898 17.7503L37.086 17.7514Z" fill="white" fill-opacity="0.5"/>
</svg>
