<svg width="20" height="35" viewBox="0 0 20 35" fill="none" xmlns="http://www.w3.org/2000/svg">
<path d="M16.5962 11.8254C16.3134 11.4854 15.7767 11.7804 15.7767 12.1655C15.781 12.5688 15.8897 12.964 16.0922 13.3128C16.5979 14.2858 16.8701 15.3632 16.8871 16.4597C16.8871 18.5084 16.8871 20.5243 16.3626 22.5075C15.4284 25.9944 12.3758 28.1005 10.3968 30.94C10.3827 30.9648 10.3762 30.9932 10.3783 31.0216C10.3804 31.05 10.3909 31.0772 10.4085 31.0996C10.4261 31.122 10.4499 31.1387 10.4771 31.1475C10.5042 31.1563 10.5332 31.1568 10.5606 31.149C11.9333 30.7024 13.3469 29.5715 14.3795 28.5799C16.0371 27.0478 17.2431 25.0907 17.8664 22.9213C18.4523 20.7825 18.4687 18.6559 18.4687 16.4597C18.4687 14.4027 17.8377 13.3087 16.5962 11.8254Z" fill="white" fill-opacity="0.12"/>
<path d="M10.3149 3.69205C9.4217 2.40955 7.25005 1.70069 5.80775 1.23359C3.56235 0.496045 0.616312 0.459168 -1.69465 0.868913C-3.74337 1.23359 -5.95194 2.36858 -7.7835 3.38884C-9.34351 4.25046 -10.6234 5.54175 -11.4712 7.10932C-11.475 7.11315 -11.4771 7.1183 -11.4771 7.12366C-11.4771 7.12903 -11.475 7.13418 -11.4712 7.13801C-11.1741 7.12673 -10.8878 7.02367 -10.6517 6.84299C-9.77895 6.37178 -8.93897 5.58098 -8.0867 5.01963C-6.29055 3.83603 -4.33199 2.91956 -2.2724 2.29892C0.0704842 1.73814 2.51344 1.74517 4.85306 2.31941C6.58628 2.79471 7.99578 4.03214 9.69212 4.51154C10.1305 4.62627 10.5977 4.0977 10.3149 3.69205Z" fill="white" fill-opacity="0.12"/>
<path d="M-10.4182 4.69974C-13.7863 7.3303 -15.0565 11.395 -15.7449 15.4801C-16.3558 18.9661 -15.8631 22.5559 -14.3354 25.7483C-10.7214 33.2098 -2.27249 35.5576 5.48807 34.5332C9.29869 34.0334 13.0069 32.4845 15.6703 29.6409C18.4852 26.6457 19.6489 22.1713 19.9644 18.168C20.3004 13.9108 18.2066 10.1125 15.9161 6.6952C13.6256 3.27793 10.5894 1.62256 6.69685 0.635077C-1.64965 -1.47101 -11.4426 1.63895 -14.487 10.2969C-14.5321 10.4239 -14.3231 10.514 -14.2698 10.3911C-11.4344 3.66719 -4.43593 0.167968 2.68543 0.708831C6.43459 0.995652 11.1712 2.18391 13.7485 5.089C16.0308 7.63761 18.2557 11.3089 19.0342 14.6524C19.9152 18.5081 18.7392 23.8963 16.67 27.2685C14.6664 30.5464 11.1753 32.6402 7.50813 33.5376C0.337603 35.2954 -8.59074 33.7465 -12.8849 27.2644C-17.2486 20.6757 -16.1628 10.219 -10.3485 4.81447C-10.2748 4.74891 -10.3772 4.65467 -10.451 4.70794L-10.4182 4.69974Z" fill="white" fill-opacity="0.12"/>
<path d="M-0.547514 15.8896C-1.367 14.4801 -2.3053 13.1566 -3.24362 11.8168C-4.227 10.4113 -7.11983 7.53084 -4.7597 5.73616C-3.71349 5.05325 -2.75742 5.08193 -1.89149 5.8222C-0.899906 6.01615 -0.513349 6.62803 -0.731879 7.65786C-0.63354 8.45276 -0.572067 9.25177 -0.514702 10.0508C-0.477826 10.5793 -0.16646 15.3406 -0.555717 15.3324C-0.632675 15.3412 -0.703674 15.378 -0.755237 15.4358C-0.8068 15.4936 -0.835316 15.5684 -0.835316 15.6458C-0.835316 15.7233 -0.8068 15.798 -0.755237 15.8559C-0.703674 15.9137 -0.632675 15.9505 -0.555717 15.9593H-0.080399C0.00256538 15.9582 0.0817938 15.9245 0.140079 15.8654C0.198364 15.8064 0.231018 15.7268 0.231011 15.6438C0.267888 13.7753 0.230995 11.9069 0.112169 10.0385C0.0261226 8.80924 0.157233 6.71135 -0.510651 5.61323C-1.27687 4.384 -3.18215 4.46595 -4.41548 4.90438C-5.91924 5.43704 -6.87394 6.88344 -6.25113 8.44047C-5.69387 9.82951 -4.37042 11.1981 -3.50996 12.4068C-2.6495 13.6155 -1.73577 14.8653 -0.752386 16.0535C-0.645853 16.1846 -0.44096 16.0167 -0.527007 15.8773L-0.547514 15.8896Z" fill="white" fill-opacity="0.12"/>
<path d="M0.501797 15.6404C0.865531 14.0911 1.04027 12.5033 1.02218 10.912C1.05906 8.93289 0.178092 4.72072 3.10777 4.30688C5.6195 3.9545 5.89812 6.69979 5.09502 8.35925C4.68527 9.2402 4.16902 10.0925 3.68142 10.9365C3.42738 11.3832 0.841873 15.288 0.899237 15.3495C0.784509 15.2266 0.48949 15.3085 0.53866 15.497C0.587829 15.6855 0.591949 15.8084 0.817308 15.9067C0.875596 15.9377 0.942106 15.9497 1.00753 15.9408C1.07294 15.932 1.13394 15.9029 1.18194 15.8576C2.14074 14.9848 2.78406 13.604 3.45604 12.4936C4.38288 11.085 5.2046 9.61004 5.91451 8.08063C6.60288 6.42116 6.52092 4.64697 4.6238 3.92582C2.80044 3.23335 1.19835 3.73324 0.694365 5.61396C0.305107 7.06446 0.555052 8.63378 0.591929 10.1212C0.637 11.965 0.448522 13.8089 0.493594 15.6363H0.518153L0.501797 15.6404Z" fill="white" fill-opacity="0.12"/>
<path d="M1.97264 16.1809C3.06666 14.3412 4.57042 12.7227 5.91028 11.055C7.1682 9.49389 8.6474 6.71582 10.7002 8.95303C11.6631 9.99787 12.6629 11.4115 12.204 12.9685C11.7246 14.5829 10.2904 14.8656 8.926 15.1852C7.56155 15.5048 3.45592 17.111 2.33322 15.9269C2.0423 15.6196 1.58749 16.0785 1.87431 16.3858C2.50532 17.0701 3.1691 17.0619 4.07464 16.943C6.05365 16.6463 8.00703 16.1984 9.9176 15.6032C12.2531 14.9066 13.4824 12.9972 12.3761 10.633C11.7983 9.37097 9.99137 6.67894 8.34419 7.59267C7.0494 8.30973 6.02094 10.2642 5.1154 11.3992C3.92305 12.8948 2.57497 14.333 1.7186 16.058C1.7023 16.0863 1.6979 16.1198 1.70635 16.1513C1.7148 16.1828 1.73542 16.2097 1.76367 16.226C1.79193 16.2423 1.8255 16.2467 1.857 16.2382C1.88851 16.2298 1.91538 16.2092 1.93168 16.1809H1.97264Z" fill="white" fill-opacity="0.12"/>
<path d="M-0.936723 18.758C-2.94152 19.6621 -4.85321 20.76 -6.64449 22.0359C-7.61558 22.7038 -8.89806 23.6011 -9.17668 24.8345C-9.74623 27.3339 -6.8944 29.3949 -4.92353 30.1284C-1.66606 31.3576 -1.29728 28.7434 -0.87115 26.1047C-0.559744 24.1789 -0.0516949 22.1998 0.067132 20.2576C0.124496 19.3972 0.00977707 18.758 -0.895759 18.5654C-0.967497 18.5539 -1.04097 18.5692 -1.10208 18.6085C-1.16319 18.6478 -1.20764 18.7083 -1.22692 18.7783C-1.24621 18.8484 -1.239 18.9231 -1.20662 18.9881C-1.17424 19.0532 -1.11898 19.104 -1.05146 19.1308C-0.00661469 19.5406 -1.35876 24.6501 -1.49807 25.531C-1.63738 26.412 -1.58412 27.6535 -1.96519 28.3992C-3.01823 30.4807 -4.69409 29.649 -6.01757 28.8745C-7.06242 28.264 -8.2384 27.3134 -8.54161 26.0678C-9.0415 23.9863 -6.90263 22.7898 -5.57096 21.9171C-4.00573 20.8927 -2.39134 19.9626 -0.912164 18.8153C-0.88758 18.7948 -0.912138 18.7702 -0.936723 18.7784V18.758Z" fill="white" fill-opacity="0.12"/>
<path d="M-10.8074 15.451C-11.6556 15.451 -12.0367 15.914 -12.2907 16.6802C-12.6554 17.8685 -12.7742 20.1508 -12.2907 21.3308C-11.1066 24.199 -7.14434 21.925 -5.46438 20.8924C-4.3171 20.1917 0.313036 17.9258 -2.57566 16.6597C-4.49327 15.8198 -6.93945 15.5329 -8.98818 15.1806C-10.2174 14.9757 -11.3401 14.693 -11.9752 15.9386C-12.0058 16.0027 -12.0112 16.076 -11.9902 16.1439C-11.9692 16.2118 -11.9234 16.2693 -11.8619 16.305C-11.8004 16.3406 -11.7278 16.3518 -11.6584 16.3363C-11.5891 16.3208 -11.5281 16.2797 -11.4876 16.2213C-10.5657 14.8446 -6.98042 16.1926 -5.59548 16.5163C-4.64487 16.7417 -3.54676 16.7007 -3.19028 17.7005C-2.70678 18.2004 -2.79694 18.5555 -3.46073 18.7658C-3.83769 19.0444 -4.21877 19.3149 -4.60393 19.5853C-5.65288 20.3024 -8.12359 22.2159 -9.37331 22.0028L-11.9342 20.1917C-11.9588 19.822 -11.9588 19.4511 -11.9342 19.0813C-11.9096 18.2618 -11.9711 15.8607 -10.8197 15.7255C-10.7853 15.7197 -10.7541 15.7019 -10.7316 15.6753C-10.7091 15.6487 -10.6967 15.6149 -10.6967 15.5801C-10.6967 15.5452 -10.7091 15.5114 -10.7316 15.4848C-10.7541 15.4582 -10.7853 15.4404 -10.8197 15.4346L-10.8074 15.451Z" fill="white" fill-opacity="0.12"/>
<path d="M1.63671 19.2742C-0.0719259 18.7989 0.0387051 25.277 -0.00226939 26.1784C-0.0555362 27.506 -0.305478 29.2228 0.870489 30.1734C1.8129 30.9315 3.11584 30.7553 4.20577 30.5299C5.29569 30.3045 6.76669 29.9276 7.34853 28.7926C7.99182 27.5306 7.18465 25.9776 6.65608 24.8181C6.09063 23.5888 3.11176 17.9344 1.25152 19.053C0.841779 19.2988 1.19826 19.8725 1.6121 19.6758C2.46847 19.3029 4.78354 22.9537 5.11544 23.4905C6.34467 25.5392 7.92627 28.7106 4.64012 29.6981C2.93558 30.2103 1.18597 30.6119 0.542673 27.8993C0.366483 27.17 0.542647 26.1907 0.567232 25.4409C0.591816 24.691 0.624638 19.3521 1.58344 19.5119C1.61495 19.5206 1.64859 19.5164 1.67702 19.5003C1.70545 19.4841 1.72635 19.4573 1.73504 19.4258C1.74374 19.3943 1.73953 19.3606 1.72339 19.3322C1.70725 19.3038 1.68048 19.2829 1.64896 19.2742H1.63671Z" fill="white" fill-opacity="0.12"/>
<path d="M2.79185 18.6022C3.65641 17.205 7.85217 17.836 9.32316 17.7827C10.618 17.7213 12.3512 17.5615 12.9658 19.3439C13.4616 20.7821 12.3799 22.3186 11.5112 23.3348C9.42973 25.7687 7.90545 23.7773 6.51231 22.0359C5.93457 21.3106 5.38964 20.528 4.75044 19.856C4.75044 19.856 3.05 18.3687 3.52121 18.2171C3.55554 18.2087 3.58555 18.188 3.60554 18.1588C3.62552 18.1297 3.63407 18.0942 3.6295 18.0592C3.62493 18.0241 3.60757 17.992 3.58078 17.969C3.55399 17.9459 3.51962 17.9336 3.4843 17.9343C2.98031 17.9343 2.74676 18.2293 2.82051 18.7538C2.86968 19.0734 3.3901 19.3848 3.57858 19.5733C4.38675 20.4095 5.14085 21.2964 5.83628 22.2285C6.65577 23.302 7.69241 25.3425 9.25353 25.4654C10.6098 25.5679 11.6382 24.3591 12.3758 23.388C13.7075 21.6302 14.5556 18.3851 11.753 17.5C9.97467 16.9387 7.79072 17.6311 5.95097 17.582C4.62749 17.5451 3.34091 17.2542 2.64025 18.5612C2.63007 18.5818 2.62809 18.6054 2.6347 18.6273C2.64131 18.6492 2.65599 18.6678 2.67581 18.6793C2.69563 18.6908 2.71912 18.6943 2.74143 18.6891C2.76374 18.6839 2.78323 18.6704 2.79595 18.6514L2.79185 18.6022Z" fill="white" fill-opacity="0.12"/>
<path d="M-13.2578 11.4851C-10.4879 6.39606 -5.25138 2.53217 0.64894 2.20847C7.00408 1.85199 13.6174 6.3346 15.8095 12.2472C18.1573 18.5942 15.6497 25.8139 10.1796 29.6614C7.40676 31.5843 4.07442 32.5334 0.70451 32.3599C-2.66541 32.1864 -5.88262 30.9001 -8.44332 28.7026C-11.4304 26.0761 -13.4176 23.5275 -13.7126 19.43C-13.9503 16.0988 -13.8929 12.1407 -11.8974 9.32983C-11.7622 9.14135 -12.0736 8.96926 -12.2088 9.14955C-14.2576 11.8703 -14.3313 15.4924 -14.2166 18.7703C-14.1019 22.0483 -13.1349 24.8469 -10.7624 27.2029C-8.05812 29.8826 -5.40707 31.7347 -1.64562 32.5296C1.57559 33.2498 4.94443 32.8868 7.93831 31.497C14.1418 28.6288 17.9811 21.9664 16.9896 15.1441C16.0144 8.45298 10.7164 3.89662 4.39401 2.24945C-2.70277 0.401498 -10.2421 5.15863 -13.2701 11.4523C-13.2701 11.4523 -13.2701 11.4769 -13.2701 11.4523L-13.2578 11.4851Z" fill="white" fill-opacity="0.12"/>
<path d="M8.76639 12.972C8.03295 12.5336 6.86927 13.3408 6.40626 13.8776C6.23826 14.0742 5.89002 14.4389 6.03753 14.7175C6.18503 14.9962 6.88566 14.9634 7.17248 14.9265C7.76308 14.8554 8.3362 14.6791 8.86472 14.4061C9.01676 14.3337 9.1428 14.2161 9.22565 14.0695C9.3085 13.9229 9.34412 13.7543 9.32774 13.5867C9.27857 12.8901 8.27473 12.3287 7.72567 12.8532C7.71212 12.8669 7.70236 12.884 7.69741 12.9026C7.69246 12.9212 7.69249 12.9408 7.69746 12.9595C7.70243 12.9781 7.71215 12.9951 7.72572 13.0088C7.73929 13.0225 7.75625 13.0324 7.77484 13.0376C7.97561 13.0786 8.18456 13.0376 8.36895 13.0663C8.46868 13.0791 8.5644 13.1137 8.64935 13.1675C8.7343 13.2213 8.80643 13.293 8.86067 13.3777C9.06555 13.7096 8.86064 13.9472 8.56972 14.1316C8.00884 14.4358 7.38033 14.5936 6.74228 14.5905C6.52511 14.5905 6.42679 14.6315 6.45137 14.4266C6.45137 14.3201 6.65211 14.148 6.71767 14.0742C6.90745 13.864 7.12863 13.6843 7.3733 13.5416C7.61901 13.4018 7.87849 13.2878 8.14767 13.2015C8.36189 13.1687 8.57027 13.1052 8.76639 13.013V12.9761V12.972Z" fill="white" fill-opacity="0.12"/>
<path d="M1.49314 23.7977C1.34509 24.5143 1.29684 25.2478 1.34974 25.9776C1.34257 26.154 1.3708 26.3301 1.43272 26.4955C1.49465 26.6609 1.58902 26.8122 1.71032 26.9405C2.52981 27.5879 2.91497 26.2398 2.93955 25.6867C2.96886 25.1668 2.8704 24.6477 2.65275 24.1747C2.51754 23.9002 2.24299 23.3921 1.87013 23.3552C0.923616 23.2897 1.28829 25.4449 1.46038 25.8833C1.46909 25.9211 1.49159 25.9543 1.52345 25.9764C1.55532 25.9984 1.59427 26.0078 1.63269 26.0027C1.67111 25.9976 1.70621 25.9783 1.73118 25.9487C1.75614 25.919 1.76918 25.8811 1.76769 25.8424C1.76769 25.4941 1.72672 25.1581 1.71852 24.8139C1.71852 24.6131 1.64475 24.101 1.75539 23.9575C2.06679 23.5478 2.48884 24.8631 2.53391 25.1007C2.56669 25.2687 2.69781 25.8096 2.59128 25.9858L1.64475 26.375C1.61245 26.2746 1.58783 26.1719 1.57102 26.0677C1.45431 25.3169 1.45431 24.5526 1.57102 23.8018C1.57102 23.7609 1.51364 23.7404 1.50545 23.8018L1.49314 23.7977Z" fill="white" fill-opacity="0.12"/>
<path d="M1.0055 21.3315L1.1694 22.3763C1.17707 22.4025 1.19453 22.4248 1.21817 22.4386C1.24181 22.4523 1.26981 22.4564 1.2964 22.4501C1.3221 22.4416 1.34383 22.424 1.35742 22.4005C1.37101 22.3771 1.37555 22.3496 1.37017 22.323L1.20627 21.2741C1.2025 21.2609 1.19618 21.2486 1.18766 21.2379C1.17913 21.2271 1.16858 21.2182 1.1566 21.2115C1.14461 21.2048 1.13141 21.2006 1.11778 21.199C1.10416 21.1975 1.09035 21.1986 1.07717 21.2024C1.06399 21.2061 1.0517 21.2125 1.04096 21.221C1.03022 21.2295 1.02126 21.2401 1.0146 21.2521C1.00794 21.2641 1.00371 21.2772 1.00214 21.2909C1.00058 21.3045 1.00173 21.3183 1.0055 21.3315Z" fill="white" fill-opacity="0.12"/>
<path d="M1.46016 21.3266L1.5708 21.6585C1.57411 21.6712 1.57993 21.6832 1.58796 21.6937C1.59598 21.7041 1.60605 21.7129 1.61752 21.7194C1.62898 21.7259 1.64164 21.73 1.65473 21.7315C1.66782 21.733 1.68105 21.7319 1.69369 21.7281C1.70698 21.7248 1.71946 21.7189 1.73041 21.7106C1.74135 21.7024 1.75054 21.6921 1.75742 21.6802C1.76429 21.6684 1.76874 21.6553 1.77047 21.6417C1.7722 21.6281 1.77117 21.6143 1.76747 21.6011L1.65683 21.2733C1.64917 21.2471 1.63171 21.2248 1.60806 21.2111C1.58442 21.1973 1.55643 21.1932 1.52984 21.1996C1.51692 21.2033 1.50486 21.2096 1.49437 21.218C1.48388 21.2265 1.47513 21.2369 1.46866 21.2487C1.4622 21.2605 1.45812 21.2734 1.45666 21.2868C1.4552 21.3001 1.45639 21.3137 1.46016 21.3266Z" fill="white" fill-opacity="0.12"/>
<path d="M2.02995 21.0483C2.92161 22.077 3.58996 23.2798 3.99264 24.5803C4.03362 24.7032 4.23029 24.6499 4.18931 24.527C3.77463 23.1921 3.08825 21.9575 2.17335 20.9007C2.08731 20.8024 1.94391 20.9458 2.02995 21.0483Z" fill="white" fill-opacity="0.12"/>
<path d="M4.84065 25.515C5.04142 26.0641 5.25039 26.6172 5.45116 27.154C5.49624 27.2769 5.69291 27.2236 5.64783 27.1007C5.44296 26.5516 5.23809 25.9985 5.03732 25.4617C4.99225 25.3388 4.79558 25.3921 4.84065 25.515Z" fill="white" fill-opacity="0.12"/>
<path d="M4.3285 18.7051C4.83049 19.5193 5.411 20.2823 6.06171 20.9833C6.15185 21.0816 6.29525 20.9341 6.20511 20.8399C5.56752 20.1507 4.9981 19.4015 4.50471 18.6027C4.43505 18.492 4.25884 18.6027 4.3285 18.7051Z" fill="white" fill-opacity="0.12"/>
<path d="M7.32377 21.815L8.87667 23.3515C8.96681 23.4457 9.11431 23.2982 9.02007 23.2081L7.46717 21.6715C7.37293 21.5773 7.22953 21.7248 7.32377 21.815Z" fill="white" fill-opacity="0.12"/>
<path d="M1.73911 27.7725L2.18162 28.8747C2.18928 28.9009 2.20674 28.9232 2.23039 28.937C2.25403 28.9507 2.28202 28.9548 2.30861 28.9484C2.32153 28.9447 2.33359 28.9384 2.34408 28.93C2.35457 28.9216 2.36332 28.9112 2.36979 28.8994C2.37625 28.8876 2.38033 28.8746 2.38179 28.8612C2.38325 28.8479 2.38205 28.8343 2.37829 28.8214L1.93578 27.7192C1.92666 27.6956 1.90911 27.6762 1.88651 27.6647C1.86392 27.6533 1.83788 27.6506 1.81344 27.6572C1.78899 27.6639 1.76785 27.6793 1.75412 27.7006C1.74039 27.7219 1.73507 27.7475 1.73911 27.7725Z" fill="white" fill-opacity="0.12"/>
<path d="M5.72982 19.3846L6.61073 20.3229C6.70087 20.4172 6.84432 20.2738 6.75418 20.1754L5.87322 19.2412C5.78307 19.1429 5.63967 19.2904 5.72982 19.3846Z" fill="white" fill-opacity="0.12"/>
<path d="M6.57392 18.4627L9.16764 18.7208C9.29876 18.7208 9.29876 18.5282 9.16764 18.516L6.57392 18.2578C6.44281 18.2578 6.44281 18.4504 6.57392 18.4627Z" fill="white" fill-opacity="0.12"/>
<path d="M9.08148 19.3525L10.3517 19.795C10.4746 19.836 10.5279 19.6393 10.4049 19.5943L9.13475 19.1558C9.01182 19.1108 8.95856 19.3115 9.08148 19.3525Z" fill="white" fill-opacity="0.12"/>
<path d="M8.70893 20.5938C9.07482 20.9343 9.48905 21.2187 9.93816 21.4379C10.057 21.4953 10.1594 21.3191 10.0406 21.2617C9.60571 21.0475 9.20414 20.7715 8.84828 20.4422C8.74994 20.3521 8.60654 20.4996 8.70488 20.5856L8.70893 20.5938Z" fill="white" fill-opacity="0.12"/>
<path d="M3.15691 15.4064L5.57851 12.9192C5.67276 12.825 5.52521 12.6816 5.43506 12.7758L3.01351 15.2629C2.92336 15.3572 3.06677 15.5006 3.15691 15.4064Z" fill="white" fill-opacity="0.12"/>
<path d="M6.8524 11.8739L8.72081 9.99727C8.81505 9.90303 8.66756 9.75962 8.57741 9.84977L6.7049 11.7305C6.68588 11.7501 6.67541 11.7764 6.67579 11.8036C6.67618 11.8309 6.68739 11.8569 6.70695 11.876C6.72651 11.895 6.7528 11.9054 6.78008 11.9051C6.80736 11.9047 6.83339 11.8935 6.8524 11.8739Z" fill="white" fill-opacity="0.12"/>
<path d="M7.74191 11.8863L8.68024 11.0668C8.69927 11.047 8.7099 11.0205 8.7099 10.9931C8.7099 10.9656 8.69927 10.9391 8.68024 10.9193C8.66109 10.9005 8.63533 10.89 8.60851 10.89C8.5817 10.89 8.55599 10.9005 8.53684 10.9193L7.59851 11.7388C7.57948 11.7586 7.56885 11.785 7.56885 11.8125C7.56885 11.84 7.57948 11.8665 7.59851 11.8863C7.61766 11.9051 7.64342 11.9156 7.67023 11.9156C7.69705 11.9156 7.72276 11.9051 7.74191 11.8863Z" fill="white" fill-opacity="0.12"/>
<path d="M9.65138 10.9726L9.81529 10.862C9.82743 10.8559 9.83811 10.8472 9.8466 10.8366C9.85508 10.826 9.86117 10.8137 9.86445 10.8005C9.87427 10.7755 9.87427 10.7477 9.86445 10.7227C9.85812 10.7111 9.84931 10.7011 9.83869 10.6933C9.82808 10.6855 9.8159 10.6802 9.80298 10.6776C9.77804 10.6674 9.75009 10.6674 9.72515 10.6776L9.56125 10.7882C9.53835 10.8025 9.52101 10.8242 9.51208 10.8497C9.50183 10.8746 9.50183 10.9026 9.51208 10.9276C9.51817 10.9397 9.52683 10.9504 9.53744 10.9589C9.54805 10.9673 9.56037 10.9734 9.57355 10.9767C9.59857 10.9865 9.62636 10.9865 9.65138 10.9767V10.9726Z" fill="white" fill-opacity="0.12"/>
<path d="M9.87235 12.3946L11.1016 11.5137C11.1244 11.4986 11.1407 11.4756 11.1475 11.4491C11.1544 11.4226 11.1511 11.3945 11.1384 11.3703C11.1241 11.3478 11.1018 11.3315 11.076 11.3247C11.0502 11.3179 11.0228 11.321 10.9991 11.3334L9.75761 12.2021C9.73513 12.2164 9.71887 12.2387 9.71204 12.2645C9.70521 12.2903 9.70832 12.3178 9.72074 12.3414C9.73443 12.3646 9.75673 12.3816 9.78282 12.3885C9.8089 12.3954 9.83664 12.3917 9.86004 12.3783L9.87235 12.3946Z" fill="white" fill-opacity="0.12"/>
<path d="M1.90706 6.21596L1.43994 9.14153C1.43994 9.27265 1.61617 9.32592 1.63666 9.1948L2.10373 6.26922C2.10373 6.1422 1.92754 6.08484 1.90706 6.21596Z" fill="white" fill-opacity="0.12"/>
<path d="M2.88219 5.88808L2.55032 7.69506C2.52983 7.82618 2.7265 7.87944 2.74699 7.75242L3.07886 5.93316C3.10344 5.80204 2.90268 5.74877 2.88219 5.87579V5.88808Z" fill="white" fill-opacity="0.12"/>
<path d="M3.66466 6.87529L3.16889 7.92423C3.15545 7.94763 3.15178 7.97539 3.15868 8.00147C3.16559 8.02756 3.18249 8.04986 3.20575 8.06355C3.21718 8.07077 3.23 8.07556 3.24336 8.07761C3.25673 8.07967 3.27035 8.07894 3.28343 8.07548C3.2965 8.07202 3.30874 8.0659 3.31934 8.0575C3.32994 8.0491 3.33869 8.03861 3.34505 8.02667L3.84087 6.98182C3.85354 6.95759 3.85674 6.92952 3.84993 6.90304C3.84312 6.87655 3.82674 6.85353 3.80396 6.83841C3.78034 6.82599 3.75293 6.82289 3.72713 6.82972C3.70134 6.83655 3.67905 6.85281 3.66466 6.87529Z" fill="white" fill-opacity="0.12"/>
<path d="M1.72247 10.7399C1.5217 11.5594 1.31274 12.3789 1.11606 13.223C1.11202 13.248 1.11739 13.2736 1.13111 13.2949C1.14484 13.3161 1.16594 13.3316 1.19039 13.3382C1.21483 13.3448 1.24087 13.3421 1.26346 13.3307C1.28605 13.3193 1.3036 13.2999 1.31273 13.2762C1.5135 12.4567 1.72247 11.6373 1.91914 10.8178C1.92675 10.7917 1.9237 10.7636 1.91064 10.7398C1.89758 10.716 1.87555 10.6984 1.84947 10.6907C1.82339 10.6831 1.79536 10.6862 1.77154 10.6993C1.74772 10.7123 1.73008 10.7343 1.72247 10.7604V10.7399Z" fill="white" fill-opacity="0.12"/>
</svg>
