<svg width="20" height="46" viewBox="0 0 20 46" fill="none" xmlns="http://www.w3.org/2000/svg">
<path d="M14.2825 36.7237C11.9794 34.1915 9.37177 32.9073 8.78678 29.1987C8.4331 26.8372 7.91318 21.7697 9.87451 20.1837C10.4874 19.6917 9.84783 18.6534 9.23253 19.1224C6.6098 21.1822 7.03839 26.3689 7.47324 29.3243C8.00504 32.9543 10.4489 36.1189 14.1164 36.9996C14.1535 37.0054 14.1915 36.9993 14.225 36.9824C14.2586 36.9655 14.286 36.9385 14.3034 36.9052C14.3208 36.8719 14.3273 36.834 14.3221 36.7968C14.3169 36.7596 14.3002 36.7249 14.2743 36.6977L14.2825 36.7237Z" fill="white" fill-opacity="0.08"/>
<path d="M9.84826 19.6919C10.0303 18.944 10.2953 18.2187 10.6383 17.5296C10.8588 17.108 11.7468 15.0912 12.3467 15.1511C12.4143 15.1546 12.4815 15.1387 12.5403 15.1051C12.5991 15.0716 12.647 15.0218 12.6784 14.9619C12.7098 14.9019 12.7233 14.8341 12.7173 14.7667C12.7113 14.6992 12.6861 14.6349 12.6446 14.5814C11.74 13.731 10.867 15.4001 10.4787 16.0314C9.89193 16.9868 8.84398 18.6297 9.502 19.7575C9.5218 19.7852 9.54906 19.8068 9.58062 19.8196C9.61218 19.8325 9.64674 19.8361 9.68028 19.8301C9.71382 19.8241 9.74496 19.8087 9.77009 19.7856C9.79522 19.7626 9.8133 19.7329 9.82223 19.7001L9.84826 19.6919Z" fill="white" fill-opacity="0.08"/>
<path d="M12.8263 14.7339C12.6087 14.0542 13.796 12.8107 14.1355 12.328C14.6021 11.6579 15.9041 9.48768 16.9848 10.14C17.4235 10.3695 17.7661 9.71435 17.3424 9.45644C15.9716 8.62337 14.5883 10.3666 13.8919 11.3373C13.1955 12.308 11.7087 13.7358 12.3947 14.9072C12.4288 14.9532 12.4776 14.9861 12.533 15.0004C12.5884 15.0148 12.6471 15.0098 12.6992 14.9862C12.7514 14.9627 12.7939 14.922 12.8197 14.8709C12.8456 14.8198 12.8531 14.7614 12.8412 14.7055L12.8263 14.7339Z" fill="white" fill-opacity="0.08"/>
<path d="M17.2361 10.0325C18.1671 8.68051 19.3665 7.53467 20.7597 6.66638C22.3172 5.79793 23.9436 5.05919 25.6223 4.45767L25.0527 4.15971C25.5331 6.19573 26.088 8.24175 25.711 10.3081C25.6968 10.3939 25.7131 10.4819 25.7569 10.5569C25.8007 10.6319 25.8694 10.6893 25.951 10.7191C26.0327 10.7489 26.1221 10.7493 26.204 10.7201C26.2859 10.6909 26.355 10.6341 26.3994 10.5594C27.5495 8.83205 26.3506 5.67295 25.9005 3.87039C25.8839 3.81258 25.8558 3.75873 25.8179 3.71211C25.7799 3.66549 25.7328 3.62709 25.6795 3.59922C25.6263 3.57135 25.5679 3.5546 25.5079 3.55C25.448 3.54539 25.3877 3.55303 25.3308 3.57243C22.9707 4.47824 16.5688 6.57833 17.1425 9.9618C17.1425 9.9618 17.1937 9.98862 17.1994 9.9916L17.2361 10.0325Z" fill="white" fill-opacity="0.08"/>
<path d="M25.0103 23.4797C25.9973 30.5255 20.3741 33.2868 14.8293 35.8425C14.2551 36.1081 14.7029 37.0968 15.2939 36.8546C20.0941 34.9179 29.3978 29.9608 25.7106 23.2366C25.5323 22.9256 24.9772 23.0851 25.0252 23.4512L25.0103 23.4797Z" fill="white" fill-opacity="0.08"/>
<path d="M25.1845 4.22813C23.4444 7.55496 20.8794 10.5447 19.0504 13.8613C17.3224 16.9985 15.7216 20.1007 14.8808 23.6223C13.4004 29.8926 13.2055 37.2562 14.8803 43.4864C15.1235 44.3392 16.4564 43.9408 16.2194 43.0623C14.4805 36.5664 14.4147 28.6747 16.3384 22.2226C17.4104 18.6334 19.31 15.39 21.0922 12.1215C22.4845 9.57043 24.5541 7.0979 25.2873 4.2674C25.289 4.25551 25.2871 4.24337 25.2816 4.23267C25.2762 4.22196 25.2675 4.21322 25.2569 4.20765C25.2462 4.20208 25.2341 4.19997 25.2222 4.2016C25.2103 4.20322 25.1992 4.20852 25.1904 4.21674L25.1845 4.22813Z" fill="white" fill-opacity="0.08"/>
<path d="M9.69836 19.0908C9.07636 21.5006 9.74678 24.3108 10.4749 26.636C11.2031 28.9612 12.2432 31.8414 14.095 33.4194C14.147 33.4627 14.2114 33.4885 14.279 33.4931C14.3465 33.4977 14.4138 33.4808 14.4712 33.4449C14.5286 33.4089 14.5732 33.3558 14.5986 33.293C14.624 33.2302 14.629 33.161 14.6127 33.0953C13.7351 30.7644 12.1757 28.7662 11.3599 26.3589C10.5441 23.9515 10.4428 21.4681 9.73578 19.0886L9.7073 19.0737L9.69836 19.0908Z" fill="white" fill-opacity="0.08"/>
<path d="M25.3811 23.2162C23.5757 24.4484 22.2661 26.0923 20.3001 27.1462C18.3341 28.2001 16.0973 28.4957 14.2992 29.6447C14.244 29.6807 14.202 29.7337 14.1797 29.7957C14.1574 29.8578 14.156 29.9254 14.1757 29.9883C14.1954 30.0512 14.2351 30.1059 14.2888 30.1441C14.3425 30.1824 14.4072 30.202 14.4731 30.2C17.9448 30.1513 24.9046 27.262 25.5941 23.3639C25.5955 23.3368 25.5891 23.3099 25.5757 23.2864C25.5622 23.2629 25.5424 23.2437 25.5184 23.2312C25.4944 23.2186 25.4673 23.2132 25.4403 23.2156C25.4133 23.218 25.3876 23.2281 25.3662 23.2447L25.3811 23.2162Z" fill="white" fill-opacity="0.08"/>
<path d="M12.3675 14.3203C12.0248 17.6525 13.2876 21.0917 14.7286 24.0655C14.9338 24.4776 15.6184 24.1536 15.4595 23.7223C14.3004 20.584 12.9843 17.7046 12.5801 14.3299C12.5706 14.2234 12.3693 14.2197 12.3705 14.3146L12.3675 14.3203Z" fill="white" fill-opacity="0.08"/>
<path d="M25.0148 16.8142C23.5729 17.6706 22.4727 19.025 21.0357 19.9276C19.45 20.9027 17.7118 21.6049 15.8937 22.0047C15.3826 22.1219 15.6301 22.897 16.1355 22.7769C19.2342 22.0542 23.8841 20.155 25.1676 16.9521C25.1762 16.9313 25.1781 16.9083 25.1731 16.8863C25.1682 16.8644 25.1565 16.8445 25.1398 16.8294C25.1231 16.8143 25.1021 16.8047 25.0797 16.802C25.0573 16.7993 25.0347 16.8035 25.0148 16.8142Z" fill="white" fill-opacity="0.08"/>
<path d="M17.3105 9.72362C17.14 11.6586 17.1424 14.2064 18.2642 15.9177C18.3508 16.0573 18.6135 15.9988 18.5852 15.8172C18.4477 14.8456 18.0333 13.9179 17.8584 12.9485C17.6432 11.8856 17.4957 10.8101 17.4168 9.72845C17.4377 9.68857 17.3086 9.67183 17.3105 9.72362Z" fill="white" fill-opacity="0.08"/>
<path d="M25.6678 10.4883C24.7841 11.1388 23.7918 11.627 22.7372 11.9301C21.8696 12.2018 20.7643 12.2621 19.9423 12.71C19.8964 12.7404 19.8604 12.7834 19.8386 12.8339C19.8169 12.8844 19.8103 12.9401 19.8196 12.9942C19.829 13.0484 19.854 13.0987 19.8915 13.1389C19.929 13.1791 19.9774 13.2075 20.0307 13.2206C21.1424 13.2272 22.2439 13.0087 23.2688 12.5782C24.2968 12.2285 25.2351 11.6566 26.0168 10.903C26.2334 10.6971 25.9183 10.3146 25.6849 10.4973L25.6678 10.4883Z" fill="white" fill-opacity="0.08"/>
<path d="M11.2709 33.4224C11.7628 34.202 12.5832 35.255 13.5281 35.4736C13.5548 35.4805 13.5831 35.4781 13.6082 35.4669C13.6334 35.4557 13.6541 35.4363 13.6668 35.4119C13.6796 35.3875 13.6837 35.3595 13.6786 35.3324C13.6734 35.3053 13.6593 35.2808 13.6384 35.2628C13.2962 34.946 12.8538 34.7654 12.4941 34.4684C12.0974 34.1295 11.7477 33.7392 11.4542 33.3078C11.4372 33.288 11.4136 33.2749 11.3877 33.2709C11.3619 33.267 11.3355 33.2724 11.3133 33.2863C11.2912 33.3002 11.2747 33.3215 11.2669 33.3465C11.2591 33.3714 11.2606 33.3984 11.2709 33.4224Z" fill="white" fill-opacity="0.08"/>
<path d="M12.3087 33.7547C12.7166 34.1637 13.1869 34.5052 13.7021 34.7664C13.7819 34.8081 13.8504 34.6771 13.7677 34.6411C13.25 34.4071 12.7733 34.0916 12.3556 33.7066C12.348 33.7027 12.3392 33.7019 12.3311 33.7044C12.323 33.707 12.3162 33.7127 12.3122 33.7202C12.3083 33.7278 12.3075 33.7366 12.31 33.7447C12.3126 33.7529 12.3182 33.7596 12.3258 33.7636L12.3087 33.7547Z" fill="white" fill-opacity="0.08"/>
<path d="M11.4861 32.0259C12.2917 32.8387 13.1662 33.5801 14.0998 34.2418C14.1194 34.2521 14.1423 34.2541 14.1635 34.2475C14.1846 34.2409 14.2023 34.2261 14.2126 34.2065C14.2228 34.1868 14.2249 34.1639 14.2183 34.1428C14.2116 34.1216 14.1969 34.1039 14.1772 34.0937C13.2436 33.4399 12.3662 32.7092 11.5544 31.9092C11.4803 31.8705 11.3955 31.9495 11.4634 32.014L11.4861 32.0259Z" fill="white" fill-opacity="0.08"/>
<path d="M12.7601 28.7311C12.9041 29.0119 13.0724 29.2796 13.263 29.5311C13.4013 29.7596 13.5907 29.953 13.8163 30.0961C13.8362 30.1088 13.8599 30.1143 13.8834 30.1115C13.9069 30.1088 13.9287 30.0981 13.9452 30.0812C13.9617 30.0643 13.9719 30.0423 13.974 30.0187C13.9762 29.9952 13.9701 29.9717 13.957 29.9521C13.8059 29.7446 13.6274 29.5585 13.4265 29.3989C13.2159 29.1722 13.0223 28.9304 12.8473 28.6752C12.8437 28.6694 12.8389 28.6645 12.8333 28.6606C12.8277 28.6567 12.8214 28.654 12.8148 28.6525C12.8081 28.6511 12.8013 28.6509 12.7946 28.6521C12.7879 28.6533 12.7815 28.6558 12.7757 28.6595C12.77 28.6632 12.7651 28.6679 12.7612 28.6735C12.7573 28.6791 12.7545 28.6854 12.7531 28.692C12.7516 28.6987 12.7515 28.7056 12.7527 28.7123C12.7539 28.719 12.7564 28.7254 12.7601 28.7311Z" fill="white" fill-opacity="0.08"/>
<path d="M12.9248 27.7216L13.609 28.6744C13.7907 28.9762 14.0076 29.2552 14.2552 29.5057C14.2746 29.5194 14.298 29.5264 14.3217 29.5256C14.3455 29.5248 14.3683 29.5163 14.3868 29.5013C14.4053 29.4864 14.4184 29.4658 14.4241 29.4428C14.4299 29.4197 14.4279 29.3954 14.4186 29.3736C14.235 29.0554 14.0146 28.7598 13.7618 28.4932L13.0731 27.6323C13.0028 27.5448 12.8575 27.6284 12.9248 27.7216Z" fill="white" fill-opacity="0.08"/>
<path d="M12.4242 24.2679C12.7031 24.8999 13.0023 25.5207 13.3392 26.125C13.6258 26.7569 14.0079 27.341 14.4722 27.8566C14.5541 27.9358 14.7225 27.8497 14.6758 27.731C14.3652 27.157 14.0129 26.6066 13.6218 26.0842C13.2219 25.4615 12.9026 24.8374 12.5866 24.1933C12.5394 24.1033 12.3856 24.1752 12.4242 24.2679Z" fill="white" fill-opacity="0.08"/>
<path d="M13.736 25.2146L14.5773 26.3802C14.6558 26.4938 14.8333 26.3762 14.7519 26.2684L13.8642 25.1221C13.7939 25.0345 13.6456 25.1238 13.7129 25.2171L13.736 25.2146Z" fill="white" fill-opacity="0.08"/>
<path d="M14.1121 24.7589L14.3787 25.1232C14.386 25.1346 14.3955 25.1445 14.4067 25.1523C14.4179 25.1601 14.4305 25.1656 14.4438 25.1685C14.4571 25.1714 14.4708 25.1717 14.4842 25.1693C14.4976 25.1669 14.5104 25.1619 14.5219 25.1545C14.5333 25.1472 14.5432 25.1377 14.551 25.1265C14.5588 25.1153 14.5643 25.1027 14.5672 25.0894C14.5701 25.0761 14.5704 25.0624 14.568 25.049C14.5656 25.0356 14.5606 25.0228 14.5532 25.0113L14.3477 24.6136C14.2674 24.4483 14.0055 24.616 14.1121 24.7589Z" fill="white" fill-opacity="0.08"/>
<path d="M15.9441 21.9222C15.4437 21.0302 14.9977 20.1089 14.6085 19.1631C14.5479 19.0154 14.3223 19.086 14.3742 19.2365C14.6884 20.2407 15.2048 21.17 15.8915 21.9672C15.9257 21.9851 15.9606 21.9598 15.9213 21.9102L15.9441 21.9222Z" fill="white" fill-opacity="0.08"/>
<path d="M16.0945 20.7609C15.5623 19.67 15.1576 18.5296 14.7122 17.4115C14.7028 17.3797 14.6813 17.3529 14.6522 17.337C14.6231 17.3211 14.5888 17.3174 14.557 17.3267C14.5252 17.3361 14.4984 17.3576 14.4825 17.3867C14.4666 17.4158 14.4629 17.4501 14.4722 17.4819C14.7825 18.6763 15.2685 19.8181 15.9142 20.8697C15.981 20.9917 16.1499 20.8769 16.0945 20.7609Z" fill="white" fill-opacity="0.08"/>
<path d="M15.1206 16.1304C15.3729 17.3719 15.9108 18.5375 16.6917 19.535C16.6975 19.5476 16.7062 19.5588 16.717 19.5675C16.7279 19.5763 16.7406 19.5824 16.7542 19.5853C16.7678 19.5883 16.7819 19.5881 16.7954 19.5847C16.8089 19.5813 16.8215 19.5748 16.832 19.5658C16.8426 19.5567 16.8509 19.5453 16.8564 19.5325C16.8618 19.5197 16.8642 19.5058 16.8633 19.4919C16.8625 19.478 16.8584 19.4644 16.8514 19.4524C16.8444 19.4403 16.8348 19.4301 16.8232 19.4224C16.0177 18.4663 15.4465 17.3353 15.1553 16.1195C15.1553 16.1195 15.1211 16.1017 15.1553 16.1195L15.1206 16.1304Z" fill="white" fill-opacity="0.08"/>
<path d="M16.1938 17.6569L16.4851 18.2373C16.548 18.4278 16.6529 18.6017 16.7921 18.7461C16.8101 18.7621 16.8324 18.7723 16.8561 18.7757C16.8799 18.779 16.9041 18.7753 16.9258 18.765C16.9475 18.7546 16.9656 18.7381 16.9779 18.7175C16.9903 18.6969 16.9963 18.6732 16.9952 18.6492C16.9486 18.4571 16.8584 18.2783 16.7316 18.1268L16.3684 17.545C16.2986 17.4287 16.1327 17.5379 16.1938 17.6569Z" fill="white" fill-opacity="0.08"/>
<path d="M16.4423 15.1309C16.5789 15.9712 16.9299 16.762 17.4614 17.427C17.4866 17.4494 17.5189 17.4621 17.5526 17.4627C17.5863 17.4634 17.6191 17.452 17.6452 17.4307C17.6712 17.4093 17.6888 17.3793 17.6947 17.3462C17.7006 17.313 17.6945 17.2788 17.6775 17.2498C17.4736 16.9182 17.2028 16.6315 17.0049 16.2885C16.7878 15.919 16.6108 15.5272 16.477 15.1201L16.4423 15.1309Z" fill="white" fill-opacity="0.08"/>
<path d="M17.1628 15.1814C17.2061 15.4751 17.2878 15.7619 17.4061 16.0342C17.5082 16.2689 17.6315 16.6019 17.871 16.7127C17.9013 16.7297 17.9359 16.7372 17.9705 16.7344C18.0051 16.7315 18.0381 16.7183 18.0651 16.6965C18.0921 16.6747 18.112 16.6453 18.1221 16.6121C18.1323 16.5789 18.1322 16.5434 18.122 16.5102C18.0543 16.2789 17.8188 16.105 17.7073 15.916C17.5643 15.6852 17.4501 15.4379 17.367 15.1794C17.3428 15.087 17.1904 15.0871 17.1997 15.208L17.1628 15.1814Z" fill="white" fill-opacity="0.08"/>
<path d="M16.2508 21.35C17.4106 21.2496 18.4956 20.7357 19.3081 19.902C19.3333 19.8815 19.3492 19.8518 19.3525 19.8195C19.3558 19.7872 19.3461 19.7549 19.3256 19.7298C19.3051 19.7046 19.2754 19.6886 19.2432 19.6853C19.2109 19.682 19.1786 19.6917 19.1534 19.7122C18.2194 20.3051 17.244 20.8302 16.2348 21.2836C16.226 21.2857 16.2184 21.2913 16.2137 21.299C16.2089 21.3067 16.2075 21.316 16.2096 21.3248C16.2117 21.3336 16.2173 21.3412 16.225 21.346C16.2327 21.3507 16.242 21.3522 16.2508 21.35Z" fill="white" fill-opacity="0.08"/>
<path d="M16.6861 20.1704C17.4798 19.9718 18.2402 19.6583 18.9431 19.2397C18.9529 19.2338 18.9614 19.2261 18.9681 19.217C18.9749 19.2078 18.9797 19.1974 18.9825 19.1864C18.9852 19.1754 18.9858 19.1639 18.9841 19.1527C18.9824 19.1414 18.9785 19.1307 18.9726 19.1209C18.9668 19.1112 18.959 19.1027 18.9499 19.0959C18.9407 19.0892 18.9304 19.0843 18.9193 19.0816C18.9083 19.0788 18.8968 19.0783 18.8856 19.08C18.8744 19.0817 18.8636 19.0856 18.8538 19.0914C18.1684 19.5113 17.4254 19.829 16.6483 20.0346C16.6316 20.0407 16.6178 20.0529 16.6097 20.0687C16.6015 20.0845 16.5997 20.1028 16.6044 20.1199C16.6092 20.1371 16.6203 20.1518 16.6354 20.1611C16.6505 20.1705 16.6686 20.1738 16.6861 20.1704Z" fill="white" fill-opacity="0.08"/>
<path d="M17.26 18.9761C18.2318 18.807 19.153 18.4209 19.9549 17.8464C19.9682 17.8321 19.9765 17.8138 19.9786 17.7944C19.9806 17.7749 19.9763 17.7553 19.9662 17.7386C19.9561 17.7218 19.9408 17.7088 19.9226 17.7015C19.9045 17.6942 19.8845 17.693 19.8656 17.6981C19.46 17.8632 19.093 18.1211 18.6955 18.3122C18.2102 18.5331 17.7089 18.7172 17.1959 18.8628C17.1352 18.8818 17.1423 18.9654 17.2315 18.9612L17.26 18.9761Z" fill="white" fill-opacity="0.08"/>
<path d="M18.0633 17.6907C18.4301 17.6012 18.7913 17.4897 19.1448 17.3568C19.4788 17.254 19.7984 17.1091 20.0958 16.9256C20.1774 16.8667 20.1253 16.7306 20.0269 16.7662C19.6912 16.8808 19.3798 17.0879 19.0579 17.2316C18.7361 17.3752 18.3918 17.4926 18.0505 17.6042C17.984 17.6203 17.9968 17.7068 18.0803 17.6997L18.0633 17.6907Z" fill="white" fill-opacity="0.08"/>
<path d="M18.7337 16.5185C19.2307 16.4063 19.7093 16.2243 20.1554 15.978C20.2834 15.8999 20.1859 15.7255 20.056 15.7519C19.5732 15.9002 19.1128 16.1134 18.6872 16.3854C18.6349 16.4161 18.6737 16.4944 18.7315 16.4811L18.7337 16.5185Z" fill="white" fill-opacity="0.08"/>
<path d="M18.1574 12.3497L18.4597 13.5888C18.5108 13.9771 18.6182 14.3559 18.7785 14.7132C18.7902 14.7272 18.8058 14.7374 18.8234 14.7423C18.841 14.7472 18.8596 14.7467 18.8769 14.7408C18.8942 14.7348 18.9092 14.7238 18.9201 14.7091C18.9309 14.6945 18.9371 14.6768 18.9377 14.6586C18.8854 14.2736 18.779 13.898 18.6216 13.5429L18.2239 12.3336C18.2228 12.3292 18.2209 12.3251 18.2183 12.3215C18.2156 12.3179 18.2123 12.3148 18.2085 12.3125C18.2046 12.3101 18.2004 12.3086 18.196 12.3079C18.1915 12.3072 18.187 12.3074 18.1826 12.3084C18.1783 12.3095 18.1742 12.3114 18.1705 12.314C18.1669 12.3167 18.1638 12.32 18.1615 12.3238C18.1592 12.3276 18.1576 12.3319 18.1569 12.3363C18.1562 12.3408 18.1564 12.3453 18.1574 12.3497Z" fill="white" fill-opacity="0.08"/>
<path d="M18.8978 11.8226C19.0362 12.63 19.2449 13.4238 19.5216 14.1949C19.5681 14.328 19.7706 14.2598 19.7269 14.1353C19.4311 13.3688 19.2041 12.5775 19.0483 11.7708C19.0325 11.69 18.9059 11.6963 18.9127 11.7942L18.8978 11.8226Z" fill="white" fill-opacity="0.08"/>
<path d="M19.6626 9.91618C19.675 10.7422 19.7406 11.5665 19.859 12.3841C19.8876 12.5514 20.1154 12.5182 20.1302 12.3373C20.0921 11.5279 20.0051 10.7217 19.8695 9.92283C19.8518 9.79024 19.6416 9.80365 19.6536 9.93327L19.6626 9.91618Z" fill="white" fill-opacity="0.08"/>
<path d="M14.8064 28.6046C15.599 28.4994 16.3239 28.1025 16.8396 27.4916C16.8533 27.4721 16.8603 27.4488 16.8595 27.425C16.8587 27.4013 16.8501 27.3784 16.8352 27.36C16.8203 27.3415 16.7997 27.3284 16.7767 27.3227C16.7536 27.3169 16.7293 27.3188 16.7075 27.3281C16.0883 27.7507 15.4059 28.0721 14.6858 28.2804C14.4808 28.3255 14.5819 28.6178 14.7809 28.584L14.8064 28.6046Z" fill="white" fill-opacity="0.08"/>
<path d="M14.9689 27.6009C15.6993 27.3117 16.3979 26.9477 17.0533 26.5147C17.1873 26.4251 17.0475 26.2069 16.9249 26.3024C16.3006 26.7607 15.6293 27.1514 14.9224 27.4678C14.8441 27.5066 14.8791 27.6338 14.9689 27.6009Z" fill="white" fill-opacity="0.08"/>
<path d="M15.1736 26.2794C16.0353 26.0713 16.8286 25.644 17.4765 25.039C17.4873 25.0227 17.4925 25.0033 17.4913 24.9838C17.4901 24.9642 17.4825 24.9456 17.4698 24.9308C17.4571 24.9159 17.4398 24.9056 17.4207 24.9014C17.4016 24.8972 17.3817 24.8994 17.3639 24.9076C17.0207 25.1198 16.7055 25.3757 16.3368 25.5674C15.944 25.7729 15.5291 25.9332 15.1002 26.0452C14.95 26.0827 15.0204 26.3226 15.1736 26.2794Z" fill="white" fill-opacity="0.08"/>
<path d="M15.6256 24.7232C16.5589 24.5786 17.4586 24.2678 18.2821 23.8056C18.3491 23.7608 18.2994 23.6477 18.224 23.6809C17.3783 24.0714 16.5054 24.4005 15.6123 24.6655C15.5781 24.6476 15.5766 24.7338 15.6313 24.7262L15.6256 24.7232Z" fill="white" fill-opacity="0.08"/>
<path d="M14.6179 34.9988C15.6344 34.6364 16.5781 34.0957 17.4048 33.402C17.4953 33.326 17.3686 33.1799 17.2696 33.2443C16.4043 33.8581 15.4957 34.4085 14.5509 34.8912C14.4812 34.9273 14.5336 35.049 14.606 35.0216L14.6179 34.9988Z" fill="white" fill-opacity="0.08"/>
<path d="M14.6441 33.8952C15.4953 33.8435 16.3014 33.495 16.9222 32.9103C16.958 32.8419 16.9018 32.769 16.8408 32.8024C16.4575 33.0082 16.1195 33.2522 15.7196 33.4203C15.3197 33.5884 14.9979 33.732 14.6329 33.8749C14.6151 33.9091 14.6329 33.8749 14.6329 33.8749L14.6441 33.8952Z" fill="white" fill-opacity="0.08"/>
<path d="M14.5782 32.9536C15.3341 32.7138 16.071 32.4177 16.7827 32.0679C16.8814 32.018 16.7864 31.8667 16.6877 31.9167C15.9921 32.2703 15.2716 32.5723 14.5318 32.8205C14.445 32.8476 14.4915 32.9807 14.5782 32.9536Z" fill="white" fill-opacity="0.08"/>
<path d="M14.8751 31.6221C15.5839 31.4667 16.2615 31.1933 16.8797 30.8133C16.8924 30.8075 16.9023 30.7968 16.9071 30.7837C16.9119 30.7705 16.9113 30.756 16.9054 30.7434C16.8996 30.7307 16.8889 30.7208 16.8758 30.716C16.8627 30.7112 16.8482 30.7118 16.8355 30.7176C16.5025 30.8409 16.1856 31.0307 15.8725 31.1716C15.5399 31.3082 15.1998 31.4259 14.8539 31.524C14.8443 31.5311 14.8372 31.5411 14.8335 31.5525C14.8298 31.5639 14.8298 31.5761 14.8334 31.5875C14.8369 31.599 14.844 31.609 14.8535 31.6162C14.863 31.6235 14.8745 31.6276 14.8865 31.6281L14.8751 31.6221Z" fill="white" fill-opacity="0.08"/>
<path d="M10.8133 30.7888C10.0059 29.3363 9.73418 27.5255 9.30313 25.9361C9.28437 25.861 9.16642 25.8646 9.16756 25.9595C9.28514 26.7684 9.47262 27.5656 9.72789 28.3421C9.9996 29.2097 10.4486 29.9741 10.7553 30.8165C10.7571 30.8203 10.7596 30.8238 10.7628 30.8266C10.7659 30.8294 10.7696 30.8316 10.7735 30.833C10.7775 30.8344 10.7817 30.835 10.786 30.8348C10.7902 30.8346 10.7943 30.8335 10.7981 30.8317C10.8019 30.8299 10.8053 30.8273 10.8082 30.8242C10.811 30.821 10.8132 30.8174 10.8146 30.8134C10.816 30.8094 10.8166 30.8052 10.8164 30.801C10.8161 30.7968 10.8151 30.7926 10.8133 30.7888Z" fill="white" fill-opacity="0.08"/>
<path d="M10.3456 31.4734L9.28459 28.9523C9.22105 28.8103 8.98109 28.8807 9.05033 29.0257L10.1461 31.5359C10.1985 31.6577 10.4037 31.5981 10.3456 31.4734Z" fill="white" fill-opacity="0.08"/>
<path d="M19.7573 23.453C20.558 23.0595 21.3376 22.6245 22.0931 22.1499C22.7411 21.677 23.3515 21.1546 23.9188 20.5874C24.0595 20.4433 23.8305 20.2292 23.6841 20.3703C22.5334 21.5764 21.1988 22.5925 19.7299 23.3806C19.7263 23.383 19.7232 23.3861 19.7207 23.3897C19.7183 23.3933 19.7166 23.3973 19.7157 23.4016C19.7148 23.4059 19.7148 23.4102 19.7156 23.4145C19.7164 23.4188 19.7181 23.4228 19.7204 23.4265C19.7228 23.4301 19.7259 23.4332 19.7295 23.4357C19.7331 23.4381 19.7371 23.4398 19.7414 23.4407C19.7457 23.4416 19.75 23.4416 19.7543 23.4408C19.7586 23.44 19.7626 23.4383 19.7663 23.4359L19.7573 23.453Z" fill="white" fill-opacity="0.08"/>
<path d="M18.715 24.6555L19.6274 24.2984C19.7114 24.2625 19.6679 24.1237 19.5839 24.1596L18.6881 24.5544C18.6301 24.5821 18.6285 24.6683 18.7207 24.6585L18.715 24.6555Z" fill="white" fill-opacity="0.08"/>
<path d="M18.2211 25.9063C19.9573 25.153 21.7253 24.5469 23.1271 23.2124C23.2295 23.1136 23.0833 22.9356 22.9724 23.0227C21.4975 24.1086 20.0111 25.3553 18.2021 25.8456C18.2021 25.8456 18.1663 25.9139 18.2211 25.9063Z" fill="white" fill-opacity="0.08"/>
<path d="M18.3894 26.7345C19.1315 26.4921 19.8564 26.1998 20.5592 25.8598C20.6869 25.796 20.5869 25.5986 20.4568 25.6394C19.7209 25.9021 19.0042 26.2157 18.3118 26.5778C18.2247 26.6194 18.2967 26.7731 18.3894 26.7345Z" fill="white" fill-opacity="0.08"/>
<path d="M17.5016 30.7613C17.7542 30.625 18.113 30.6604 18.3874 30.5935C18.6694 30.5416 18.9387 30.4363 19.181 30.283C19.2039 30.2687 19.2214 30.2472 19.2308 30.2218C19.2402 30.1965 19.2409 30.1688 19.2328 30.143C19.2247 30.1172 19.2083 30.0948 19.1862 30.0793C19.164 30.0638 19.1373 30.0562 19.1103 30.0575C18.8399 30.0849 18.5761 30.1578 18.33 30.2732C18.0605 30.3862 17.7857 30.6342 17.4915 30.6835C17.4424 30.6941 17.4528 30.7576 17.5105 30.7442L17.5016 30.7613Z" fill="white" fill-opacity="0.08"/>
<path d="M17.427 32.0283L19.0053 31.5769C19.1845 31.5256 19.0918 31.2449 18.921 31.3079L17.3805 31.8952C17.3642 31.9023 17.3512 31.9154 17.3442 31.9317C17.3371 31.948 17.3364 31.9664 17.3422 31.9832C17.3481 32 17.3601 32.014 17.3758 32.0223C17.3915 32.0307 17.4098 32.0328 17.427 32.0283Z" fill="white" fill-opacity="0.08"/>
<path d="M17.4898 33.9471C19.7868 33.0851 21.8078 31.6177 23.3386 29.7004C23.3624 29.6685 23.3735 29.629 23.3699 29.5895C23.3663 29.5499 23.3482 29.5131 23.319 29.4861C23.2898 29.4591 23.2517 29.4439 23.212 29.4434C23.1723 29.4429 23.1337 29.4571 23.1039 29.4833C21.4575 31.2294 19.5552 32.7149 17.4621 33.8891C17.4544 33.8927 17.4485 33.8993 17.4457 33.9073C17.4428 33.9154 17.4433 33.9242 17.4469 33.9319C17.4506 33.9396 17.4572 33.9455 17.4652 33.9484C17.4733 33.9512 17.4821 33.9507 17.4898 33.9471Z" fill="white" fill-opacity="0.08"/>
<path d="M10.4697 19.0447C10.3193 20.611 10.5726 22.1896 11.2055 23.6302C11.2443 23.7086 11.3432 23.6443 11.3302 23.5721C11.0616 22.0605 10.7117 20.5933 10.5416 19.046C10.5389 19.0387 10.5341 19.0324 10.5277 19.0279C10.5214 19.0234 10.5138 19.021 10.5061 19.0208C10.4983 19.0207 10.4907 19.0229 10.4842 19.0271C10.4777 19.0314 10.4727 19.0375 10.4697 19.0447Z" fill="white" fill-opacity="0.08"/>
<path d="M11.3753 21.4334C11.3678 21.4294 11.359 21.4286 11.3508 21.4312C11.3427 21.4337 11.3359 21.4394 11.332 21.447C11.328 21.4545 11.3272 21.4633 11.3298 21.4715C11.3323 21.4796 11.338 21.4864 11.3455 21.4904C11.3531 21.4943 11.3619 21.4951 11.37 21.4925C11.3782 21.49 11.385 21.4843 11.3889 21.4768C11.3929 21.4692 11.3937 21.4604 11.3911 21.4523C11.3886 21.4441 11.3829 21.4373 11.3753 21.4334Z" fill="white" fill-opacity="0.08"/>
<path d="M11.4232 21.0086C11.4156 21.0046 11.4068 21.0038 11.3987 21.0064C11.3905 21.0089 11.3838 21.0146 11.3798 21.0222C11.3759 21.0297 11.3751 21.0385 11.3776 21.0467C11.3802 21.0548 11.3858 21.0616 11.3934 21.0655C11.4009 21.0695 11.4098 21.0703 11.4179 21.0677C11.426 21.0652 11.4328 21.0595 11.4368 21.052C11.4407 21.0444 11.4415 21.0356 11.439 21.0275C11.4364 21.0193 11.4307 21.0125 11.4232 21.0086Z" fill="white" fill-opacity="0.08"/>
<path d="M11.3326 17.2978L11.4356 18.585C11.4322 18.9726 11.4734 19.3593 11.5583 19.7375C11.5665 19.7666 11.5852 19.7916 11.6108 19.8078C11.6364 19.8239 11.667 19.8299 11.6968 19.8248C11.7266 19.8196 11.7534 19.8035 11.7721 19.7797C11.7907 19.7559 11.7999 19.726 11.7978 19.6959C11.7802 19.3042 11.7208 18.9156 11.6205 18.5367L11.3819 17.2728C11.3968 17.2443 11.3136 17.2371 11.3098 17.2859L11.3326 17.2978Z" fill="white" fill-opacity="0.08"/>
<path d="M11.2482 20.6493C11.3624 21.2199 11.5353 21.7772 11.7642 22.3122C11.8418 22.4689 12.0484 22.3375 12.0223 22.1933C11.8817 21.6452 11.6862 21.1128 11.4388 20.6039C11.4353 20.5925 11.4295 20.582 11.4218 20.5728C11.4142 20.5636 11.4048 20.5561 11.3942 20.5505C11.3836 20.545 11.3721 20.5416 11.3602 20.5405C11.3483 20.5395 11.3363 20.5408 11.3249 20.5443C11.3135 20.5479 11.3029 20.5537 11.2938 20.5613C11.2846 20.569 11.277 20.5784 11.2715 20.589C11.266 20.5995 11.2626 20.6111 11.2615 20.623C11.2604 20.6349 11.2617 20.6469 11.2653 20.6583L11.2482 20.6493Z" fill="white" fill-opacity="0.08"/>
<path d="M12.5265 21.992L12.9692 23.1014C13.0034 23.1193 12.9692 23.1014 12.9692 23.1014C12.8353 22.7194 12.6927 22.3401 12.5501 21.9608C12.5501 21.9608 12.5159 21.9429 12.5501 21.9608L12.5265 21.992Z" fill="white" fill-opacity="0.08"/>
<path d="M13.4548 14.6133C13.5688 15.1445 13.6914 15.673 13.8343 16.1903C13.9343 16.6779 14.0967 17.1506 14.3176 17.5966C14.3847 17.7043 14.53 17.6206 14.509 17.5081C14.368 17.0147 14.1943 16.5312 13.9891 16.0609C13.8139 15.5774 13.6647 15.0859 13.5213 14.5973C13.5107 14.5482 13.4529 14.5615 13.4548 14.6133Z" fill="white" fill-opacity="0.08"/>
<path d="M14.4529 14.1341L14.5822 14.9272C14.5815 14.9379 14.5832 14.9485 14.5873 14.9584C14.5913 14.9683 14.5975 14.9772 14.6055 14.9843C14.6134 14.9914 14.6229 14.9967 14.6332 14.9996C14.6434 15.0026 14.6542 15.0032 14.6648 15.0013C14.6753 14.9995 14.6853 14.9954 14.6939 14.9891C14.7026 14.9829 14.7098 14.9748 14.7149 14.9654C14.72 14.956 14.7229 14.9456 14.7234 14.9349C14.7239 14.9243 14.7219 14.9136 14.7177 14.9038L14.5657 14.0988C14.5523 14.041 14.4574 14.0421 14.4618 14.117L14.4529 14.1341Z" fill="white" fill-opacity="0.08"/>
<path d="M15.1187 12.668L15.3245 13.9945C15.3096 14.023 15.3986 14.0333 15.3936 13.9872L15.2193 12.6699C15.209 12.6064 15.1054 12.6103 15.1127 12.6794L15.1187 12.668Z" fill="white" fill-opacity="0.08"/>
<path d="M16.2398 10.5781C16.0895 11.8588 16.2088 13.1569 16.59 14.3888C16.6362 14.5363 16.8618 14.4656 16.8243 14.3154C16.4622 13.0981 16.2799 11.8345 16.2832 10.5645L16.2547 10.5496L16.2398 10.5781Z" fill="white" fill-opacity="0.08"/>
<path d="M18.7188 9.16834L18.7382 10.1579C18.7393 10.2528 18.8863 10.2353 18.8792 10.1518C18.8622 9.82371 18.8481 9.48989 18.8254 9.15879C18.8252 9.15199 18.8236 9.1453 18.8207 9.13911C18.8179 9.13293 18.8139 9.12736 18.8089 9.12273C18.8039 9.1181 18.798 9.1145 18.7917 9.11213C18.7853 9.10976 18.7785 9.10867 18.7717 9.10892C18.7649 9.10918 18.7582 9.11076 18.752 9.1136C18.7458 9.11644 18.7403 9.12047 18.7356 9.12546C18.731 9.13044 18.7274 9.1363 18.725 9.14268C18.7227 9.14906 18.7216 9.15585 18.7218 9.16265L18.7188 9.16834Z" fill="white" fill-opacity="0.08"/>
<path d="M19.1524 8.60391L19.2637 9.598C19.2702 9.71027 19.4516 9.69633 19.4334 9.59247L19.3596 8.59619C19.3506 8.46087 19.1317 8.477 19.1524 8.60391Z" fill="white" fill-opacity="0.08"/>
</svg>
