<svg width="37" height="46" viewBox="0 0 37 46" fill="none" xmlns="http://www.w3.org/2000/svg">
<path d="M14.2815 36.7237C11.9784 34.1915 9.3708 32.9073 8.7858 29.1987C8.43212 26.8372 7.91221 21.7697 9.87354 20.1837C10.4864 19.6917 9.84686 18.6534 9.23155 19.1224C6.60882 21.1822 7.03742 26.3689 7.47227 29.3243C8.00406 32.9543 10.448 36.1189 14.1154 36.9996C14.1526 37.0054 14.1905 36.9993 14.2241 36.9824C14.2576 36.9655 14.285 36.9385 14.3024 36.9052C14.3198 36.8719 14.3264 36.834 14.3211 36.7968C14.3159 36.7596 14.2992 36.7249 14.2733 36.6977L14.2815 36.7237Z" fill="white" fill-opacity="0.12"/>
<path d="M9.84777 19.6919C10.0298 18.944 10.2948 18.2187 10.6378 17.5296C10.8583 17.108 11.7463 15.0912 12.3462 15.1511C12.4138 15.1546 12.481 15.1387 12.5398 15.1051C12.5986 15.0716 12.6466 15.0218 12.6779 14.9619C12.7093 14.9019 12.7228 14.8341 12.7168 14.7667C12.7108 14.6992 12.6856 14.6349 12.6441 14.5814C11.7395 13.731 10.8665 15.4001 10.4782 16.0314C9.89144 16.9868 8.84349 18.6297 9.50151 19.7575C9.52131 19.7852 9.54857 19.8068 9.58013 19.8196C9.61169 19.8325 9.64625 19.8361 9.67979 19.8301C9.71333 19.8241 9.74448 19.8087 9.7696 19.7856C9.79473 19.7626 9.81281 19.7329 9.82174 19.7001L9.84777 19.6919Z" fill="white" fill-opacity="0.12"/>
<path d="M12.8258 14.7339C12.6082 14.0542 13.7955 12.8107 14.135 12.328C14.6016 11.6579 15.9036 9.48768 16.9844 10.14C17.423 10.3695 17.7657 9.71435 17.3419 9.45644C15.9711 8.62337 14.5878 10.3666 13.8914 11.3373C13.1951 12.308 11.7082 13.7358 12.3942 14.9072C12.4283 14.9532 12.4771 14.9861 12.5325 15.0004C12.5879 15.0148 12.6466 15.0098 12.6987 14.9862C12.7509 14.9627 12.7934 14.922 12.8192 14.8709C12.8451 14.8198 12.8526 14.7614 12.8407 14.7055L12.8258 14.7339Z" fill="white" fill-opacity="0.12"/>
<path d="M17.2361 10.0325C18.1671 8.68051 19.3665 7.53467 20.7597 6.66638C22.3172 5.79793 23.9436 5.05919 25.6223 4.45767L25.0527 4.15971C25.5331 6.19573 26.088 8.24175 25.711 10.3081C25.6968 10.3939 25.7131 10.4819 25.7569 10.5569C25.8007 10.6319 25.8694 10.6893 25.951 10.7191C26.0327 10.7489 26.1221 10.7493 26.204 10.7201C26.2859 10.6909 26.355 10.6341 26.3994 10.5594C27.5495 8.83205 26.3506 5.67295 25.9005 3.87039C25.8839 3.81258 25.8558 3.75873 25.8179 3.71211C25.7799 3.66549 25.7328 3.62709 25.6795 3.59922C25.6263 3.57135 25.5679 3.5546 25.5079 3.55C25.448 3.54539 25.3877 3.55303 25.3308 3.57243C22.9707 4.47824 16.5688 6.57833 17.1425 9.9618C17.1425 9.9618 17.1937 9.98862 17.1994 9.9916L17.2361 10.0325Z" fill="white" fill-opacity="0.12"/>
<path d="M25.8163 10.704C25.6234 11.5028 25.9727 12.3747 25.9515 13.2197C25.9152 14.3679 25.5076 15.4733 24.7897 16.3702C24.328 16.934 25.1707 17.7085 25.6067 17.1385C26.4012 16.1401 26.871 14.9225 26.9529 13.6492C27.0104 12.7071 26.8207 11.1278 25.8827 10.688C25.878 10.685 25.8726 10.6833 25.867 10.683C25.8615 10.6827 25.8559 10.6839 25.8509 10.6864C25.8459 10.6889 25.8417 10.6927 25.8386 10.6974C25.8356 10.702 25.8337 10.7074 25.8334 10.713L25.8163 10.704Z" fill="white" fill-opacity="0.12"/>
<path d="M26.3056 10.184C26.1016 10.3828 25.9236 10.6066 25.7758 10.8501L26.2328 11.0166C26.3378 10.6217 26.4398 10.2325 26.5361 9.84031L25.939 9.78914C25.9382 10.1367 25.8339 10.4762 25.6393 10.7642L26.2717 11.095C26.385 10.918 26.4382 10.7092 26.4234 10.4996C26.4215 10.4534 26.4074 10.4085 26.3827 10.3695C26.3579 10.3304 26.3232 10.2986 26.2823 10.2771C26.2413 10.2557 26.1954 10.2454 26.1492 10.2473C26.1029 10.2493 26.0581 10.2633 26.019 10.2881C25.8467 10.4042 25.7142 10.5704 25.6393 10.7642C25.6096 10.8462 25.6106 10.9361 25.6421 11.0174C25.6737 11.0986 25.7337 11.1657 25.8109 11.2061C25.8881 11.2465 25.9774 11.2575 26.0621 11.237C26.1469 11.2166 26.2213 11.1661 26.2717 11.095C26.4865 10.6919 26.5769 10.2343 26.5315 9.77984C26.5058 9.45443 26.0125 9.38503 25.9343 9.72867L25.7457 10.9214C25.6968 11.2369 26.201 11.341 26.2269 11.028C26.2546 10.7615 26.3095 10.4985 26.3907 10.2431C26.4176 10.1918 26.3375 10.1645 26.2996 10.1954L26.3056 10.184Z" fill="white" fill-opacity="0.12"/>
<path d="M24.8997 17.2549C25.248 17.678 25.4996 18.1721 25.6369 18.7026C25.7742 19.2331 25.794 19.7872 25.6947 20.3261C25.5812 21.3477 25.0293 22.2779 24.9966 23.2838C25.0009 23.3627 25.0257 23.4392 25.0686 23.5057C25.1114 23.5721 25.1707 23.6264 25.2408 23.663C25.3108 23.6997 25.3892 23.7175 25.4683 23.7147C25.5473 23.712 25.6242 23.6887 25.6916 23.6473C26.7774 22.7642 26.9553 20.8983 26.8669 19.597C26.8826 19.018 26.7454 18.4452 26.4689 17.9362C26.1924 17.4273 25.7866 17.0003 25.2923 16.6984C25.2229 16.6708 25.1462 16.6672 25.0744 16.6882C25.0027 16.7092 24.9401 16.7537 24.8966 16.8145C24.8532 16.8753 24.8313 16.9489 24.8345 17.0235C24.8378 17.0982 24.866 17.1696 24.9146 17.2264L24.8997 17.2549Z" fill="white" fill-opacity="0.12"/>
<path d="M25.0103 23.4797C25.9973 30.5255 20.3741 33.2868 14.8293 35.8425C14.2551 36.1081 14.7029 37.0968 15.2939 36.8546C20.0941 34.9179 29.3978 29.9608 25.7106 23.2366C25.5323 22.9256 24.9772 23.0851 25.0252 23.4512L25.0103 23.4797Z" fill="white" fill-opacity="0.12"/>
<path d="M25.1835 4.22813C23.4434 7.55496 20.8785 10.5447 19.0494 13.8613C17.3214 16.9985 15.7206 20.1007 14.8799 23.6223C13.3994 29.8926 13.2045 37.2562 14.8793 43.4864C15.1225 44.3392 16.4554 43.9408 16.2184 43.0623C14.4795 36.5664 14.4137 28.6747 16.3374 22.2226C17.4094 18.6334 19.309 15.39 21.0912 12.1215C22.4835 9.57043 24.5531 7.0979 25.2863 4.2674C25.2881 4.25551 25.2861 4.24337 25.2806 4.23267C25.2752 4.22196 25.2665 4.21322 25.2559 4.20765C25.2452 4.20208 25.2331 4.19997 25.2212 4.2016C25.2093 4.20322 25.1982 4.20852 25.1895 4.21674L25.1835 4.22813Z" fill="white" fill-opacity="0.12"/>
<path d="M9.69787 19.0908C9.07587 21.5006 9.74629 24.3108 10.4745 26.636C11.2026 28.9612 12.2427 31.8414 14.0945 33.4194C14.1465 33.4627 14.2109 33.4885 14.2785 33.4931C14.346 33.4977 14.4133 33.4808 14.4707 33.4449C14.5281 33.4089 14.5727 33.3558 14.5981 33.293C14.6236 33.2302 14.6285 33.161 14.6122 33.0953C13.7347 30.7644 12.1752 28.7662 11.3594 26.3589C10.5436 23.9515 10.4423 21.4681 9.7353 19.0886L9.70681 19.0737L9.69787 19.0908Z" fill="white" fill-opacity="0.12"/>
<path d="M25.3806 23.2162C23.5753 24.4484 22.2656 26.0923 20.2996 27.1462C18.3336 28.2001 16.0968 28.4957 14.2988 29.6447C14.2435 29.6807 14.2015 29.7337 14.1792 29.7957C14.1569 29.8578 14.1555 29.9254 14.1752 29.9883C14.1949 30.0512 14.2346 30.1059 14.2883 30.1441C14.342 30.1824 14.4068 30.202 14.4726 30.2C17.9443 30.1513 24.9041 27.262 25.5936 23.3639C25.595 23.3368 25.5886 23.3099 25.5752 23.2864C25.5618 23.2629 25.5419 23.2437 25.5179 23.2312C25.4939 23.2186 25.4668 23.2132 25.4398 23.2156C25.4128 23.218 25.3871 23.2281 25.3657 23.2447L25.3806 23.2162Z" fill="white" fill-opacity="0.12"/>
<path d="M12.367 14.3203C12.0243 17.6525 13.2871 21.0917 14.7281 24.0655C14.9333 24.4776 15.6179 24.1536 15.459 23.7223C14.3 20.584 12.9838 17.7046 12.5796 14.3299C12.5701 14.2234 12.3688 14.2197 12.37 14.3146L12.367 14.3203Z" fill="white" fill-opacity="0.12"/>
<path d="M25.0138 16.8142C23.5719 17.6706 22.4717 19.025 21.0347 19.9276C19.449 20.9027 17.7109 21.6049 15.8927 22.0047C15.3816 22.1219 15.6291 22.897 16.1345 22.7769C19.2332 22.0542 23.8831 20.155 25.1666 16.9521C25.1752 16.9313 25.1771 16.9083 25.1722 16.8863C25.1672 16.8644 25.1555 16.8445 25.1388 16.8294C25.1221 16.8143 25.1011 16.8047 25.0787 16.802C25.0564 16.7993 25.0337 16.8035 25.0138 16.8142Z" fill="white" fill-opacity="0.12"/>
<path d="M17.3105 9.72362C17.14 11.6586 17.1424 14.2064 18.2642 15.9177C18.3508 16.0573 18.6135 15.9988 18.5852 15.8172C18.4477 14.8456 18.0333 13.9179 17.8584 12.9485C17.6432 11.8856 17.4957 10.8101 17.4168 9.72845C17.4377 9.68857 17.3086 9.67183 17.3105 9.72362Z" fill="white" fill-opacity="0.12"/>
<path d="M25.6673 10.4883C24.7836 11.1388 23.7913 11.627 22.7367 11.9301C21.8691 12.2018 20.7638 12.2621 19.9418 12.71C19.896 12.7404 19.8599 12.7834 19.8382 12.8339C19.8164 12.8844 19.8098 12.9401 19.8192 12.9942C19.8285 13.0484 19.8535 13.0987 19.891 13.1389C19.9285 13.1791 19.9769 13.2075 20.0303 13.2206C21.1419 13.2272 22.2434 13.0087 23.2683 12.5782C24.2963 12.2285 25.2346 11.6566 26.0163 10.903C26.2329 10.6971 25.9178 10.3146 25.6844 10.4973L25.6673 10.4883Z" fill="white" fill-opacity="0.12"/>
<path d="M11.2709 33.4224C11.7628 34.202 12.5832 35.255 13.5281 35.4736C13.5548 35.4805 13.5831 35.4781 13.6082 35.4669C13.6334 35.4557 13.6541 35.4363 13.6668 35.4119C13.6796 35.3875 13.6837 35.3595 13.6786 35.3324C13.6734 35.3053 13.6593 35.2808 13.6384 35.2628C13.2962 34.946 12.8538 34.7654 12.4941 34.4684C12.0974 34.1295 11.7477 33.7392 11.4542 33.3078C11.4372 33.288 11.4136 33.2749 11.3877 33.2709C11.3619 33.267 11.3355 33.2724 11.3133 33.2863C11.2912 33.3002 11.2747 33.3215 11.2669 33.3465C11.2591 33.3714 11.2606 33.3984 11.2709 33.4224Z" fill="white" fill-opacity="0.12"/>
<path d="M12.3087 33.7547C12.7166 34.1637 13.1869 34.5052 13.7021 34.7664C13.7819 34.8081 13.8504 34.6771 13.7677 34.6411C13.25 34.4071 12.7733 34.0916 12.3556 33.7066C12.348 33.7027 12.3392 33.7019 12.3311 33.7044C12.323 33.707 12.3162 33.7127 12.3122 33.7202C12.3083 33.7278 12.3075 33.7366 12.31 33.7447C12.3126 33.7529 12.3182 33.7596 12.3258 33.7636L12.3087 33.7547Z" fill="white" fill-opacity="0.12"/>
<path d="M11.4861 32.0259C12.2917 32.8387 13.1662 33.5801 14.0998 34.2418C14.1194 34.2521 14.1423 34.2541 14.1635 34.2475C14.1846 34.2409 14.2023 34.2261 14.2126 34.2065C14.2228 34.1868 14.2249 34.1639 14.2183 34.1428C14.2116 34.1216 14.1969 34.1039 14.1772 34.0937C13.2436 33.4399 12.3662 32.7092 11.5544 31.9092C11.4803 31.8705 11.3955 31.9495 11.4634 32.014L11.4861 32.0259Z" fill="white" fill-opacity="0.12"/>
<path d="M12.7596 28.7311C12.9036 29.0119 13.0719 29.2796 13.2626 29.5311C13.4009 29.7596 13.5902 29.953 13.8158 30.0961C13.8358 30.1088 13.8594 30.1143 13.8829 30.1115C13.9064 30.1088 13.9282 30.0981 13.9447 30.0812C13.9612 30.0643 13.9714 30.0423 13.9735 30.0187C13.9757 29.9952 13.9697 29.9717 13.9565 29.9521C13.8054 29.7446 13.6269 29.5585 13.426 29.3989C13.2154 29.1722 13.0218 28.9304 12.8469 28.6752C12.8432 28.6694 12.8384 28.6645 12.8328 28.6606C12.8272 28.6567 12.821 28.654 12.8143 28.6525C12.8077 28.6511 12.8008 28.6509 12.7941 28.6521C12.7874 28.6533 12.781 28.6558 12.7753 28.6595C12.7695 28.6632 12.7646 28.6679 12.7607 28.6735C12.7568 28.6791 12.754 28.6854 12.7526 28.692C12.7511 28.6987 12.751 28.7056 12.7522 28.7123C12.7534 28.719 12.7559 28.7254 12.7596 28.7311Z" fill="white" fill-opacity="0.12"/>
<path d="M12.9248 27.7216L13.609 28.6744C13.7907 28.9762 14.0076 29.2552 14.2552 29.5057C14.2746 29.5194 14.298 29.5264 14.3217 29.5256C14.3455 29.5248 14.3683 29.5163 14.3868 29.5013C14.4053 29.4864 14.4184 29.4658 14.4241 29.4428C14.4299 29.4197 14.4279 29.3954 14.4186 29.3736C14.235 29.0554 14.0146 28.7598 13.7618 28.4932L13.0731 27.6323C13.0028 27.5448 12.8575 27.6284 12.9248 27.7216Z" fill="white" fill-opacity="0.12"/>
<path d="M12.4237 24.2679C12.7026 24.8999 13.0018 25.5207 13.3387 26.125C13.6253 26.7569 14.0074 27.341 14.4717 27.8566C14.5536 27.9358 14.722 27.8497 14.6753 27.731C14.3647 27.157 14.0124 26.6066 13.6213 26.0842C13.2214 25.4615 12.9022 24.8374 12.5861 24.1933C12.5389 24.1033 12.3852 24.1752 12.4237 24.2679Z" fill="white" fill-opacity="0.12"/>
<path d="M13.735 25.2146L14.5764 26.3802C14.6548 26.4938 14.8323 26.3762 14.7509 26.2684L13.8632 25.1221C13.7929 25.0345 13.6446 25.1238 13.7119 25.2171L13.735 25.2146Z" fill="white" fill-opacity="0.12"/>
<path d="M14.1117 24.7589L14.3782 25.1232C14.3855 25.1346 14.3951 25.1445 14.4062 25.1523C14.4174 25.1601 14.43 25.1656 14.4433 25.1685C14.4566 25.1714 14.4703 25.1717 14.4837 25.1693C14.4971 25.1669 14.5099 25.1619 14.5214 25.1545C14.5328 25.1472 14.5428 25.1377 14.5505 25.1265C14.5583 25.1153 14.5638 25.1027 14.5667 25.0894C14.5696 25.0761 14.5699 25.0624 14.5675 25.049C14.5651 25.0356 14.5601 25.0228 14.5528 25.0113L14.3472 24.6136C14.2669 24.4483 14.005 24.616 14.1117 24.7589Z" fill="white" fill-opacity="0.12"/>
<path d="M15.9436 21.9222C15.4432 21.0302 14.9972 20.1089 14.608 19.1631C14.5474 19.0154 14.3218 19.086 14.3737 19.2365C14.6879 20.2407 15.2043 21.17 15.891 21.9672C15.9252 21.9851 15.9601 21.9598 15.9208 21.9102L15.9436 21.9222Z" fill="white" fill-opacity="0.12"/>
<path d="M16.094 20.7609C15.5618 19.67 15.1571 18.5296 14.7117 17.4115C14.7024 17.3797 14.6808 17.3529 14.6517 17.337C14.6226 17.3211 14.5883 17.3174 14.5565 17.3267C14.5247 17.3361 14.4979 17.3576 14.482 17.3867C14.4661 17.4158 14.4624 17.4501 14.4717 17.4819C14.7821 18.6763 15.268 19.8181 15.9137 20.8697C15.9805 20.9917 16.1494 20.8769 16.094 20.7609Z" fill="white" fill-opacity="0.12"/>
<path d="M15.1201 16.1304C15.3724 17.3719 15.9103 18.5375 16.6912 19.535C16.697 19.5476 16.7057 19.5588 16.7165 19.5675C16.7274 19.5763 16.7401 19.5824 16.7537 19.5853C16.7673 19.5883 16.7814 19.5881 16.7949 19.5847C16.8084 19.5813 16.821 19.5748 16.8316 19.5658C16.8421 19.5567 16.8505 19.5453 16.8559 19.5325C16.8613 19.5197 16.8637 19.5058 16.8628 19.4919C16.862 19.478 16.8579 19.4644 16.8509 19.4524C16.844 19.4403 16.8343 19.4301 16.8227 19.4224C16.0172 18.4663 15.4461 17.3353 15.1548 16.1195C15.1548 16.1195 15.1206 16.1017 15.1548 16.1195L15.1201 16.1304Z" fill="white" fill-opacity="0.12"/>
<path d="M16.1938 17.6569L16.4851 18.2373C16.548 18.4278 16.6529 18.6017 16.7921 18.7461C16.8101 18.7621 16.8324 18.7723 16.8561 18.7757C16.8799 18.779 16.9041 18.7753 16.9258 18.765C16.9475 18.7546 16.9656 18.7381 16.9779 18.7175C16.9903 18.6969 16.9963 18.6732 16.9952 18.6492C16.9486 18.4571 16.8584 18.2783 16.7316 18.1268L16.3684 17.545C16.2986 17.4287 16.1327 17.5379 16.1938 17.6569Z" fill="white" fill-opacity="0.12"/>
<path d="M16.4413 15.1309C16.578 15.9712 16.929 16.762 17.4604 17.427C17.4856 17.4494 17.5179 17.4621 17.5516 17.4627C17.5853 17.4634 17.6181 17.452 17.6442 17.4307C17.6702 17.4093 17.6878 17.3793 17.6937 17.3462C17.6996 17.313 17.6935 17.2788 17.6765 17.2498C17.4726 16.9182 17.2018 16.6315 17.0039 16.2885C16.7868 15.919 16.6099 15.5272 16.476 15.1201L16.4413 15.1309Z" fill="white" fill-opacity="0.12"/>
<path d="M17.1619 15.1814C17.2051 15.4751 17.2869 15.7619 17.4051 16.0342C17.5072 16.2689 17.6305 16.6019 17.87 16.7127C17.9003 16.7297 17.935 16.7372 17.9696 16.7344C18.0042 16.7315 18.0371 16.7183 18.0641 16.6965C18.0912 16.6747 18.111 16.6453 18.1212 16.6121C18.1313 16.5789 18.1313 16.5434 18.121 16.5102C18.0534 16.2789 17.8179 16.105 17.7063 15.916C17.5633 15.6852 17.4491 15.4379 17.3661 15.1794C17.3419 15.087 17.1895 15.0871 17.1988 15.208L17.1619 15.1814Z" fill="white" fill-opacity="0.12"/>
<path d="M16.2499 21.35C17.4096 21.2496 18.4947 20.7357 19.3071 19.902C19.3323 19.8815 19.3483 19.8518 19.3516 19.8195C19.3548 19.7872 19.3452 19.7549 19.3247 19.7298C19.3041 19.7046 19.2745 19.6886 19.2422 19.6853C19.2099 19.682 19.1776 19.6917 19.1524 19.7122C18.2184 20.3051 17.243 20.8302 16.2338 21.2836C16.225 21.2857 16.2174 21.2913 16.2127 21.299C16.208 21.3067 16.2065 21.316 16.2086 21.3248C16.2108 21.3336 16.2163 21.3412 16.224 21.346C16.2318 21.3507 16.2411 21.3522 16.2499 21.35Z" fill="white" fill-opacity="0.12"/>
<path d="M16.6856 20.1704C17.4793 19.9718 18.2397 19.6583 18.9426 19.2397C18.9524 19.2338 18.9609 19.2261 18.9676 19.217C18.9744 19.2078 18.9793 19.1974 18.982 19.1864C18.9847 19.1754 18.9853 19.1639 18.9836 19.1527C18.9819 19.1414 18.978 19.1307 18.9721 19.1209C18.9663 19.1112 18.9585 19.1027 18.9494 19.0959C18.9403 19.0892 18.9299 19.0843 18.9188 19.0816C18.9078 19.0788 18.8963 19.0783 18.8851 19.08C18.8739 19.0817 18.8631 19.0856 18.8533 19.0914C18.1679 19.5113 17.4249 19.829 16.6478 20.0346C16.6311 20.0407 16.6173 20.0529 16.6092 20.0687C16.601 20.0845 16.5992 20.1028 16.6039 20.1199C16.6087 20.1371 16.6198 20.1518 16.6349 20.1611C16.65 20.1705 16.6681 20.1738 16.6856 20.1704Z" fill="white" fill-opacity="0.12"/>
<path d="M17.2595 18.9761C18.2313 18.807 19.1525 18.4209 19.9544 17.8464C19.9677 17.8321 19.9761 17.8138 19.9781 17.7944C19.9801 17.7749 19.9758 17.7553 19.9657 17.7386C19.9556 17.7218 19.9403 17.7088 19.9222 17.7015C19.904 17.6942 19.884 17.693 19.8651 17.6981C19.4595 17.8632 19.0925 18.1211 18.695 18.3122C18.2097 18.5331 17.7084 18.7172 17.1954 18.8628C17.1347 18.8818 17.1418 18.9654 17.231 18.9612L17.2595 18.9761Z" fill="white" fill-opacity="0.12"/>
<path d="M18.0628 17.6907C18.4297 17.6012 18.7908 17.4897 19.1443 17.3568C19.4784 17.254 19.7979 17.1091 20.0954 16.9256C20.177 16.8667 20.1248 16.7306 20.0264 16.7662C19.6907 16.8808 19.3793 17.0879 19.0575 17.2316C18.7356 17.3752 18.3913 17.4926 18.05 17.6042C17.9835 17.6203 17.9963 17.7068 18.0799 17.6997L18.0628 17.6907Z" fill="white" fill-opacity="0.12"/>
<path d="M18.7337 16.5185C19.2307 16.4063 19.7093 16.2243 20.1554 15.978C20.2834 15.8999 20.1859 15.7255 20.056 15.7519C19.5732 15.9002 19.1128 16.1134 18.6872 16.3854C18.6349 16.4161 18.6737 16.4944 18.7315 16.4811L18.7337 16.5185Z" fill="white" fill-opacity="0.12"/>
<path d="M18.1574 12.3497L18.4597 13.5888C18.5108 13.9771 18.6182 14.3559 18.7785 14.7132C18.7902 14.7272 18.8058 14.7374 18.8234 14.7423C18.841 14.7472 18.8596 14.7467 18.8769 14.7408C18.8942 14.7348 18.9092 14.7238 18.9201 14.7091C18.9309 14.6945 18.9371 14.6768 18.9377 14.6586C18.8854 14.2736 18.779 13.898 18.6216 13.5429L18.2239 12.3336C18.2228 12.3292 18.2209 12.3251 18.2183 12.3215C18.2156 12.3179 18.2123 12.3148 18.2085 12.3125C18.2046 12.3101 18.2004 12.3086 18.196 12.3079C18.1915 12.3072 18.187 12.3074 18.1826 12.3084C18.1783 12.3095 18.1742 12.3114 18.1705 12.314C18.1669 12.3167 18.1638 12.32 18.1615 12.3238C18.1592 12.3276 18.1576 12.3319 18.1569 12.3363C18.1562 12.3408 18.1564 12.3453 18.1574 12.3497Z" fill="white" fill-opacity="0.12"/>
<path d="M18.8973 11.8226C19.0357 12.63 19.2445 13.4238 19.5211 14.1949C19.5676 14.328 19.7701 14.2598 19.7264 14.1353C19.4306 13.3688 19.2036 12.5775 19.0478 11.7708C19.032 11.69 18.9054 11.6963 18.9122 11.7942L18.8973 11.8226Z" fill="white" fill-opacity="0.12"/>
<path d="M19.6626 9.91618C19.675 10.7422 19.7406 11.5665 19.859 12.3841C19.8876 12.5514 20.1154 12.5182 20.1302 12.3373C20.0921 11.5279 20.0051 10.7217 19.8695 9.92283C19.8518 9.79024 19.6416 9.80365 19.6536 9.93327L19.6626 9.91618Z" fill="white" fill-opacity="0.12"/>
<path d="M20.6119 9.55662C20.6294 9.856 20.647 10.1554 20.6702 10.4577C20.6715 10.4719 20.6783 10.4849 20.6892 10.494C20.7001 10.5031 20.7141 10.5075 20.7283 10.5062C20.7424 10.505 20.7554 10.4981 20.7645 10.4872C20.7736 10.4764 20.778 10.4623 20.7768 10.4482L20.7472 9.54759C20.7431 9.45837 20.5991 9.47012 20.6119 9.55662Z" fill="white" fill-opacity="0.12"/>
<path d="M21.2079 8.26472C21.1535 8.61457 21.1192 8.96726 21.1052 9.32104C21.0592 9.678 21.0868 10.0406 21.1864 10.3865C21.2222 10.4705 21.38 10.4878 21.3935 10.3788C21.3888 10.0424 21.3555 9.70699 21.294 9.37625C21.2623 9.00893 21.2566 8.63985 21.2767 8.27173C21.2946 8.23755 21.2084 8.23598 21.2198 8.24194L21.2079 8.26472Z" fill="white" fill-opacity="0.12"/>
<path d="M21.9426 7.70609L21.9008 9.36739C21.874 9.41866 22.009 9.424 22.0044 9.36353C21.9973 8.80842 21.9815 8.25603 21.9714 7.70662C21.9714 7.70662 21.9372 7.68874 21.9714 7.70662L21.9426 7.70609Z" fill="white" fill-opacity="0.12"/>
<path d="M21.2565 11.5699L22.4904 11.0834C22.4969 11.0811 22.5028 11.0775 22.5079 11.0729C22.513 11.0682 22.5171 11.0627 22.52 11.0564C22.5229 11.0502 22.5246 11.0435 22.5249 11.0366C22.5252 11.0298 22.5242 11.0229 22.5218 11.0164C22.5195 11.01 22.5159 11.004 22.5113 10.9989C22.5066 10.9939 22.501 10.9898 22.4948 10.9868C22.4886 10.9839 22.4819 10.9823 22.475 10.9819C22.4681 10.9816 22.4613 10.9827 22.4548 10.985L21.2098 11.4511C21.1201 11.484 21.1665 11.6171 21.2476 11.5869L21.2565 11.5699Z" fill="white" fill-opacity="0.12"/>
<path d="M21.9728 10.2976C22.6797 10.1522 23.3413 9.83879 23.9017 9.38395C23.9779 9.3077 23.8704 9.20797 23.7921 9.2468C23.4903 9.39369 23.2277 9.60455 22.926 9.75144C22.5977 9.90335 22.2568 10.0261 21.9071 10.1182C21.7973 10.1478 21.8489 10.3126 21.9557 10.2887L21.9728 10.2976Z" fill="white" fill-opacity="0.12"/>
<path d="M23.0175 8.85564C23.3991 8.58369 23.7838 8.30604 24.1831 8.01427C24.3346 7.9049 24.178 7.66337 24.0321 7.77572L22.9064 8.63795C22.7839 8.73348 22.9066 8.94276 23.0378 8.84451L23.0175 8.85564Z" fill="white" fill-opacity="0.12"/>
<path d="M14.8064 28.6046C15.599 28.4994 16.3239 28.1025 16.8396 27.4916C16.8533 27.4721 16.8603 27.4488 16.8595 27.425C16.8587 27.4013 16.8501 27.3784 16.8352 27.36C16.8203 27.3415 16.7997 27.3284 16.7767 27.3227C16.7536 27.3169 16.7293 27.3188 16.7075 27.3281C16.0883 27.7507 15.4059 28.0721 14.6858 28.2804C14.4808 28.3255 14.5819 28.6178 14.7809 28.584L14.8064 28.6046Z" fill="white" fill-opacity="0.12"/>
<path d="M14.9684 27.6009C15.6988 27.3117 16.3974 26.9477 17.0529 26.5147C17.1868 26.4251 17.047 26.2069 16.9245 26.3024C16.3001 26.7607 15.6288 27.1514 14.9219 27.4678C14.8436 27.5066 14.8786 27.6338 14.9684 27.6009Z" fill="white" fill-opacity="0.12"/>
<path d="M15.1736 26.2794C16.0353 26.0713 16.8286 25.644 17.4765 25.039C17.4873 25.0227 17.4925 25.0033 17.4913 24.9838C17.4901 24.9642 17.4825 24.9456 17.4698 24.9308C17.4571 24.9159 17.4398 24.9056 17.4207 24.9014C17.4016 24.8972 17.3817 24.8994 17.3639 24.9076C17.0207 25.1198 16.7055 25.3757 16.3368 25.5674C15.944 25.7729 15.5291 25.9332 15.1002 26.0452C14.95 26.0827 15.0204 26.3226 15.1736 26.2794Z" fill="white" fill-opacity="0.12"/>
<path d="M15.6251 24.7232C16.5584 24.5786 17.4581 24.2678 18.2817 23.8056C18.3486 23.7608 18.2989 23.6477 18.2235 23.6809C17.3778 24.0714 16.5049 24.4005 15.6118 24.6655C15.5776 24.6476 15.5761 24.7338 15.6308 24.7262L15.6251 24.7232Z" fill="white" fill-opacity="0.12"/>
<path d="M14.6179 34.9988C15.6344 34.6364 16.5781 34.0957 17.4048 33.402C17.4953 33.326 17.3686 33.1799 17.2696 33.2443C16.4043 33.8581 15.4957 34.4085 14.5509 34.8912C14.4812 34.9273 14.5336 35.049 14.606 35.0216L14.6179 34.9988Z" fill="white" fill-opacity="0.12"/>
<path d="M14.6436 33.8952C15.4948 33.8435 16.301 33.495 16.9217 32.9103C16.9575 32.8419 16.9013 32.769 16.8403 32.8024C16.457 33.0082 16.119 33.2522 15.7191 33.4203C15.3192 33.5884 14.9974 33.732 14.6325 33.8749C14.6146 33.9091 14.6325 33.8749 14.6325 33.8749L14.6436 33.8952Z" fill="white" fill-opacity="0.12"/>
<path d="M14.5773 32.9536C15.3332 32.7138 16.07 32.4177 16.7817 32.0679C16.8804 32.018 16.7854 31.8667 16.6867 31.9167C15.9912 32.2703 15.2706 32.5723 14.5308 32.8205C14.4441 32.8476 14.4905 32.9807 14.5773 32.9536Z" fill="white" fill-opacity="0.12"/>
<path d="M14.8746 31.6221C15.5834 31.4667 16.261 31.1933 16.8792 30.8133C16.8919 30.8075 16.9018 30.7968 16.9066 30.7837C16.9114 30.7705 16.9108 30.756 16.905 30.7434C16.8991 30.7307 16.8884 30.7208 16.8753 30.716C16.8622 30.7112 16.8477 30.7118 16.835 30.7176C16.502 30.8409 16.1851 31.0307 15.872 31.1716C15.5394 31.3082 15.1993 31.4259 14.8534 31.524C14.8438 31.5311 14.8367 31.5411 14.833 31.5525C14.8294 31.5639 14.8293 31.5761 14.8329 31.5875C14.8365 31.599 14.8435 31.609 14.853 31.6162C14.8625 31.6235 14.874 31.6276 14.886 31.6281L14.8746 31.6221Z" fill="white" fill-opacity="0.12"/>
<path d="M10.8123 30.7888C10.0049 29.3363 9.7332 27.5255 9.30215 25.9361C9.2834 25.861 9.16544 25.8646 9.16658 25.9595C9.28416 26.7684 9.47164 27.5656 9.72692 28.3421C9.99862 29.2097 10.4476 29.9741 10.7543 30.8165C10.7561 30.8203 10.7587 30.8238 10.7618 30.8266C10.7649 30.8294 10.7686 30.8316 10.7726 30.833C10.7765 30.8344 10.7808 30.835 10.785 30.8348C10.7892 30.8346 10.7933 30.8335 10.7971 30.8317C10.8009 30.8299 10.8044 30.8273 10.8072 30.8242C10.81 30.821 10.8122 30.8174 10.8136 30.8134C10.815 30.8094 10.8156 30.8052 10.8154 30.801C10.8152 30.7968 10.8141 30.7926 10.8123 30.7888Z" fill="white" fill-opacity="0.12"/>
<path d="M10.3456 31.4734L9.28459 28.9523C9.22105 28.8103 8.98109 28.8807 9.05033 29.0257L10.1461 31.5359C10.1985 31.6577 10.4037 31.5981 10.3456 31.4734Z" fill="white" fill-opacity="0.12"/>
<path d="M19.7573 23.453C20.558 23.0595 21.3376 22.6245 22.0931 22.1499C22.7411 21.677 23.3515 21.1546 23.9188 20.5874C24.0595 20.4433 23.8305 20.2292 23.6841 20.3703C22.5334 21.5764 21.1988 22.5925 19.7299 23.3806C19.7263 23.383 19.7232 23.3861 19.7207 23.3897C19.7183 23.3933 19.7166 23.3973 19.7157 23.4016C19.7148 23.4059 19.7148 23.4102 19.7156 23.4145C19.7164 23.4188 19.7181 23.4228 19.7204 23.4265C19.7228 23.4301 19.7259 23.4332 19.7295 23.4357C19.7331 23.4381 19.7371 23.4398 19.7414 23.4407C19.7457 23.4416 19.75 23.4416 19.7543 23.4408C19.7586 23.44 19.7626 23.4383 19.7663 23.4359L19.7573 23.453Z" fill="white" fill-opacity="0.12"/>
<path d="M18.7146 24.6555L19.6269 24.2984C19.7109 24.2625 19.6674 24.1237 19.5834 24.1596L18.6876 24.5544C18.6296 24.5821 18.6281 24.6683 18.7203 24.6585L18.7146 24.6555Z" fill="white" fill-opacity="0.12"/>
<path d="M18.2201 25.9063C19.9563 25.153 21.7243 24.5469 23.1261 23.2124C23.2286 23.1136 23.0823 22.9356 22.9714 23.0227C21.4966 24.1086 20.0101 25.3553 18.2011 25.8456C18.2011 25.8456 18.1653 25.9139 18.2201 25.9063Z" fill="white" fill-opacity="0.12"/>
<path d="M18.3889 26.7345C19.131 26.4921 19.8559 26.1998 20.5587 25.8598C20.6864 25.796 20.5865 25.5986 20.4563 25.6394C19.7204 25.9021 19.0037 26.2157 18.3113 26.5778C18.2242 26.6194 18.2962 26.7731 18.3889 26.7345Z" fill="white" fill-opacity="0.12"/>
<path d="M17.5016 30.7613C17.7542 30.625 18.113 30.6604 18.3874 30.5935C18.6694 30.5416 18.9387 30.4363 19.181 30.283C19.2039 30.2687 19.2214 30.2472 19.2308 30.2218C19.2402 30.1965 19.2409 30.1688 19.2328 30.143C19.2247 30.1172 19.2083 30.0948 19.1862 30.0793C19.164 30.0638 19.1373 30.0562 19.1103 30.0575C18.8399 30.0849 18.5761 30.1578 18.33 30.2732C18.0605 30.3862 17.7857 30.6342 17.4915 30.6835C17.4424 30.6941 17.4528 30.7576 17.5105 30.7442L17.5016 30.7613Z" fill="white" fill-opacity="0.12"/>
<path d="M17.4265 32.0283L19.0048 31.5769C19.184 31.5256 19.0913 31.2449 18.9205 31.3079L17.38 31.8952C17.3637 31.9023 17.3508 31.9154 17.3437 31.9317C17.3366 31.948 17.3359 31.9664 17.3417 31.9832C17.3476 32 17.3596 32.014 17.3753 32.0223C17.391 32.0307 17.4093 32.0328 17.4265 32.0283Z" fill="white" fill-opacity="0.12"/>
<path d="M17.4893 33.9471C19.7863 33.0851 21.8073 31.6177 23.3381 29.7004C23.3619 29.6685 23.3731 29.629 23.3694 29.5895C23.3658 29.5499 23.3477 29.5131 23.3185 29.4861C23.2894 29.4591 23.2512 29.4439 23.2115 29.4434C23.1718 29.4429 23.1332 29.4571 23.1034 29.4833C21.457 31.2294 19.5547 32.7149 17.4616 33.8891C17.4539 33.8927 17.448 33.8993 17.4452 33.9073C17.4423 33.9154 17.4428 33.9242 17.4465 33.9319C17.4501 33.9396 17.4567 33.9455 17.4647 33.9484C17.4728 33.9512 17.4816 33.9507 17.4893 33.9471Z" fill="white" fill-opacity="0.12"/>
<path d="M20.6308 30.5771L21.8162 29.9057C21.9529 29.8248 21.8158 29.6153 21.6849 29.6992L20.51 30.4196C20.4861 30.434 20.4689 30.4574 20.4622 30.4845C20.4555 30.5116 20.4599 30.5403 20.4743 30.5642C20.4887 30.5881 20.5121 30.6053 20.5392 30.612C20.5663 30.6187 20.5949 30.6143 20.6188 30.5999L20.6308 30.5771Z" fill="white" fill-opacity="0.12"/>
<path d="M10.4692 19.0447C10.3188 20.611 10.5721 22.1896 11.205 23.6302C11.2438 23.7086 11.3427 23.6443 11.3297 23.5721C11.0611 22.0605 10.7112 20.5933 10.5411 19.046C10.5384 19.0387 10.5336 19.0324 10.5272 19.0279C10.5209 19.0234 10.5134 19.021 10.5056 19.0208C10.4978 19.0207 10.4902 19.0229 10.4837 19.0271C10.4772 19.0314 10.4722 19.0375 10.4692 19.0447Z" fill="white" fill-opacity="0.12"/>
<path d="M11.3748 21.4334C11.3673 21.4294 11.3585 21.4286 11.3503 21.4312C11.3422 21.4337 11.3354 21.4394 11.3315 21.447C11.3275 21.4545 11.3267 21.4633 11.3293 21.4715C11.3318 21.4796 11.3375 21.4864 11.3451 21.4904C11.3526 21.4943 11.3614 21.4951 11.3696 21.4925C11.3777 21.49 11.3845 21.4843 11.3884 21.4768C11.3924 21.4692 11.3932 21.4604 11.3906 21.4523C11.3881 21.4441 11.3824 21.4373 11.3748 21.4334Z" fill="white" fill-opacity="0.12"/>
<path d="M11.4227 21.0086C11.4151 21.0046 11.4063 21.0038 11.3982 21.0064C11.3901 21.0089 11.3833 21.0146 11.3793 21.0222C11.3754 21.0297 11.3746 21.0385 11.3771 21.0467C11.3797 21.0548 11.3853 21.0616 11.3929 21.0655C11.4005 21.0695 11.4093 21.0703 11.4174 21.0677C11.4255 21.0652 11.4323 21.0595 11.4363 21.052C11.4402 21.0444 11.441 21.0356 11.4385 21.0275C11.4359 21.0193 11.4303 21.0125 11.4227 21.0086Z" fill="white" fill-opacity="0.12"/>
<path d="M11.3321 17.2978L11.4351 18.585C11.4317 18.9726 11.4729 19.3593 11.5578 19.7375C11.566 19.7666 11.5847 19.7916 11.6103 19.8078C11.6359 19.8239 11.6666 19.8299 11.6964 19.8248C11.7261 19.8196 11.753 19.8035 11.7716 19.7797C11.7902 19.7559 11.7994 19.726 11.7973 19.6959C11.7797 19.3042 11.7203 18.9156 11.62 18.5367L11.3815 17.2728C11.3964 17.2443 11.3131 17.2371 11.3093 17.2859L11.3321 17.2978Z" fill="white" fill-opacity="0.12"/>
<path d="M11.2477 20.6493C11.3619 21.2199 11.5348 21.7772 11.7637 22.3122C11.8413 22.4689 12.0479 22.3375 12.0218 22.1933C11.8812 21.6452 11.6857 21.1128 11.4383 20.6039C11.4348 20.5925 11.429 20.582 11.4213 20.5728C11.4137 20.5636 11.4043 20.5561 11.3937 20.5505C11.3831 20.545 11.3716 20.5416 11.3597 20.5405C11.3478 20.5395 11.3358 20.5408 11.3244 20.5443C11.313 20.5479 11.3024 20.5537 11.2933 20.5613C11.2841 20.569 11.2765 20.5784 11.271 20.589C11.2655 20.5995 11.2621 20.6111 11.261 20.623C11.26 20.6349 11.2612 20.6469 11.2648 20.6583L11.2477 20.6493Z" fill="white" fill-opacity="0.12"/>
<path d="M12.526 21.992L12.9687 23.1014C13.0029 23.1193 12.9687 23.1014 12.9687 23.1014C12.8348 22.7194 12.6922 22.3401 12.5496 21.9608C12.5496 21.9608 12.5154 21.9429 12.5496 21.9608L12.526 21.992Z" fill="white" fill-opacity="0.12"/>
<path d="M13.4543 14.6133C13.5683 15.1445 13.6909 15.673 13.8339 16.1903C13.9338 16.6779 14.0962 17.1506 14.3171 17.5966C14.3842 17.7043 14.5295 17.6206 14.5085 17.5081C14.3675 17.0147 14.1938 16.5312 13.9886 16.0609C13.8134 15.5774 13.6642 15.0859 13.5208 14.5973C13.5102 14.5482 13.4524 14.5615 13.4543 14.6133Z" fill="white" fill-opacity="0.12"/>
<path d="M14.4524 14.1341L14.5817 14.9272C14.581 14.9379 14.5827 14.9485 14.5868 14.9584C14.5908 14.9683 14.5971 14.9772 14.605 14.9843C14.613 14.9914 14.6224 14.9967 14.6327 14.9996C14.6429 15.0026 14.6537 15.0032 14.6643 15.0013C14.6748 14.9995 14.6848 14.9954 14.6935 14.9891C14.7021 14.9829 14.7093 14.9748 14.7144 14.9654C14.7195 14.956 14.7224 14.9456 14.7229 14.9349C14.7234 14.9243 14.7214 14.9136 14.7172 14.9038L14.5652 14.0988C14.5518 14.041 14.4569 14.0421 14.4613 14.117L14.4524 14.1341Z" fill="white" fill-opacity="0.12"/>
<path d="M15.1177 12.668L15.3235 13.9945C15.3086 14.023 15.3976 14.0333 15.3927 13.9872L15.2183 12.6699C15.208 12.6064 15.1044 12.6103 15.1118 12.6794L15.1177 12.668Z" fill="white" fill-opacity="0.12"/>
<path d="M16.2398 10.5781C16.0895 11.8588 16.2088 13.1569 16.59 14.3888C16.6362 14.5363 16.8618 14.4656 16.8243 14.3154C16.4622 13.0981 16.2799 11.8345 16.2832 10.5645L16.2547 10.5496L16.2398 10.5781Z" fill="white" fill-opacity="0.12"/>
<path d="M18.7184 9.16834L18.7377 10.1579C18.7388 10.2528 18.8858 10.2353 18.8787 10.1518C18.8617 9.82371 18.8476 9.48989 18.8249 9.15879C18.8247 9.15199 18.8231 9.1453 18.8202 9.13911C18.8174 9.13293 18.8134 9.12736 18.8084 9.12273C18.8034 9.1181 18.7976 9.1145 18.7912 9.11213C18.7848 9.10976 18.778 9.10867 18.7712 9.10892C18.7644 9.10918 18.7577 9.11076 18.7515 9.1136C18.7453 9.11644 18.7398 9.12047 18.7351 9.12546C18.7305 9.13044 18.7269 9.1363 18.7245 9.14268C18.7222 9.14906 18.7211 9.15585 18.7213 9.16265L18.7184 9.16834Z" fill="white" fill-opacity="0.12"/>
<path d="M19.1519 8.60391L19.2632 9.598C19.2697 9.71027 19.4512 9.69633 19.4329 9.59247L19.3591 8.59619C19.3501 8.46087 19.1312 8.477 19.1519 8.60391Z" fill="white" fill-opacity="0.12"/>
<path d="M20.9515 7.52091C20.944 7.51696 20.9351 7.51617 20.927 7.51872C20.9189 7.52126 20.9121 7.52695 20.9081 7.5345C20.9042 7.54206 20.9034 7.55087 20.9059 7.55901C20.9085 7.56714 20.9142 7.57392 20.9217 7.57788C20.9255 7.57983 20.9295 7.58104 20.9337 7.58141C20.9379 7.58179 20.9422 7.58134 20.9462 7.58007C20.9502 7.57881 20.954 7.57676 20.9572 7.57405C20.9605 7.57135 20.9631 7.56804 20.9651 7.5643C20.967 7.56056 20.9682 7.55647 20.9686 7.55226C20.969 7.54806 20.9685 7.54381 20.9673 7.53978C20.966 7.53576 20.964 7.53202 20.9613 7.52878C20.9586 7.52554 20.9552 7.52287 20.9515 7.52091Z" fill="white" fill-opacity="0.12"/>
<path d="M20.4465 7.61255L20.4836 8.4155C20.4873 8.43713 20.4988 8.45665 20.5159 8.4704C20.533 8.48415 20.5545 8.49118 20.5765 8.49016C20.5984 8.48915 20.6192 8.48017 20.6349 8.46491C20.6507 8.44964 20.6603 8.42914 20.662 8.40726L20.6193 7.60133C20.6127 7.48906 20.4313 7.503 20.4408 7.60957L20.4465 7.61255Z" fill="white" fill-opacity="0.12"/>
<path d="M21.3143 6.82632C21.1467 6.86927 21.1193 7.26846 21.0961 7.4377C21.0728 7.60693 21.1029 8.00718 21.3291 8.06019C21.3472 8.06297 21.3657 8.06116 21.3829 8.05494C21.4 8.04872 21.4154 8.0383 21.4275 8.0246C21.5186 7.91987 21.4713 7.82987 21.4534 7.71165C21.4354 7.59342 21.3925 7.42586 21.3807 7.28187C21.369 7.13788 21.3978 6.81921 21.3023 6.8491L21.3143 6.82632Z" fill="white" fill-opacity="0.12"/>
<path d="M23.1315 10.7732C23.4204 10.7882 23.7089 10.7381 23.9757 10.6265C24.2426 10.5149 24.4809 10.3447 24.6731 10.1285C24.7327 10.0146 24.5965 9.91431 24.5005 9.97294C24.2768 10.0954 24.1067 10.2821 23.9006 10.3847C23.6673 10.5219 23.4115 10.6166 23.145 10.6642C23.145 10.6642 23.1092 10.7325 23.1524 10.7333L23.1315 10.7732Z" fill="white" fill-opacity="0.12"/>
<path d="M24.1577 9.7136C24.2233 9.58827 24.4548 9.50623 24.5798 9.43375L24.9751 9.20518C25.0564 9.16066 24.9725 9.02973 24.8996 9.08591L24.5407 9.36978C24.4269 9.46259 24.274 9.64384 24.1241 9.66698C23.9741 9.69012 24.1223 9.76759 24.1697 9.69081L24.1577 9.7136Z" fill="white" fill-opacity="0.12"/>
<path d="M24.3837 8.19908L25.0618 7.59611C25.0623 7.58862 25.0607 7.58114 25.057 7.57458C25.0534 7.56802 25.0479 7.56268 25.0412 7.5592C25.0346 7.55572 25.027 7.55426 25.0196 7.55499C25.0121 7.55572 25.005 7.55862 24.9992 7.56333C24.7796 7.77499 24.5688 7.98392 24.3522 8.18988C24.3522 8.18988 24.3522 8.18988 24.3807 8.20478L24.3837 8.19908Z" fill="white" fill-opacity="0.12"/>
<path d="M20.1432 14.7525C21.0338 14.7066 21.9163 14.5597 22.7737 14.3146C23.5567 14.0392 24.286 13.6303 24.9294 13.106C25.0229 13.0243 24.8962 12.8782 24.7973 12.9426C23.4562 13.7865 21.7882 14.7423 20.1386 14.692C20.1044 14.6742 20.1028 14.7604 20.1147 14.7376L20.1432 14.7525Z" fill="white" fill-opacity="0.12"/>
<path d="M21.6855 15.3272C22.1011 15.2453 22.5105 15.1346 22.9108 14.9959C23.2718 14.9077 23.6081 14.7388 23.8946 14.502C24.0057 14.4006 23.882 14.2488 23.7521 14.2751C23.4137 14.3913 23.0897 14.5455 22.7861 14.7348C22.4144 14.9133 22.0312 15.0668 21.639 15.1941C21.5523 15.2213 21.5675 15.3308 21.6798 15.3242L21.6855 15.3272Z" fill="white" fill-opacity="0.12"/>
<path d="M20.6777 16.8244C21.226 16.7194 21.7718 16.5913 22.3296 16.4405C22.8371 16.3321 23.3198 16.1292 23.7524 15.8425C23.7823 15.8293 23.8059 15.8047 23.8178 15.7742C23.8296 15.7437 23.8289 15.7097 23.8157 15.6797C23.8025 15.6497 23.778 15.6262 23.7475 15.6144C23.717 15.6025 23.683 15.6032 23.653 15.6164C23.1415 15.765 22.6442 15.9589 22.1672 16.196C21.6723 16.3922 21.1661 16.5587 20.6514 16.6945C20.5646 16.7217 20.6083 16.8461 20.6948 16.8333L20.6777 16.8244Z" fill="white" fill-opacity="0.12"/>
<path d="M21.0764 18.2949L22.0811 17.7612C22.2408 17.6778 22.0844 17.4219 21.9302 17.5226L20.9586 18.1318C20.8627 18.1904 20.955 18.333 21.0536 18.283L21.0764 18.2949Z" fill="white" fill-opacity="0.12"/>
<path d="M20.3931 19.3383L21.1866 19.0278C21.2707 18.992 21.2299 18.8618 21.1488 18.892L20.3496 19.1994C20.2655 19.2353 20.312 19.3684 20.396 19.3326L20.3931 19.3383Z" fill="white" fill-opacity="0.12"/>
<path d="M24.2856 20.315L24.7972 20.0167C24.981 19.9457 25.1395 19.8214 25.2523 19.6598C25.2697 19.6238 25.2774 19.5839 25.2748 19.544C25.2721 19.504 25.2592 19.4655 25.2372 19.4321C25.2152 19.3987 25.185 19.3715 25.1493 19.3533C25.1137 19.335 25.074 19.3263 25.0341 19.328C24.8404 19.3796 24.6669 19.4887 24.5366 19.641L24.0634 20.0464C23.9056 20.1816 24.12 20.4098 24.2856 20.315Z" fill="white" fill-opacity="0.12"/>
<path d="M23.2176 22.6074C23.4659 22.3963 23.7084 22.1822 23.951 21.968C24.0269 21.9062 23.92 21.7777 23.8414 21.8309C23.5847 22.0304 23.3223 22.2269 23.0629 22.4177C23.0504 22.4278 23.0401 22.4403 23.0325 22.4545C23.0249 22.4686 23.0201 22.4841 23.0185 22.5001C23.0168 22.5161 23.0184 22.5323 23.023 22.5477C23.0276 22.5631 23.0352 22.5774 23.0454 22.5899C23.0555 22.6023 23.068 22.6127 23.0822 22.6203C23.0963 22.6279 23.1119 22.6327 23.1279 22.6343C23.1438 22.6359 23.16 22.6344 23.1754 22.6298C23.1908 22.6251 23.2051 22.6175 23.2176 22.6074Z" fill="white" fill-opacity="0.12"/>
<path d="M22.1804 29.0151C22.6618 28.6973 23.0926 28.3087 23.4581 27.8624C23.5992 27.6896 23.3363 27.4432 23.1979 27.6247C22.8597 28.0538 22.4616 28.432 22.0156 28.7476C21.8468 28.8624 22.0115 29.13 22.1804 29.0151Z" fill="white" fill-opacity="0.12"/>
</svg>
